<ttFont>
<head>
    <!-- Most of this table will be recalculated by the compiler -->
    <tableVersion value="1.0"/>
    <fontRevision value="1.29999"/>
    <checkSumAdjustment value="0xe00cea88"/>
    <magicNumber value="0x5f0f3cf5"/>
    <flags value="00000000 00001001"/>
    <unitsPerEm value="1000"/>
    <created value="Thu Dec  2 04:44:25 2010"/>
    <modified value="Thu Jun  9 21:16:16 2016"/>
    <xMin value="-180"/>
    <yMin value="-309"/>
    <xMax value="1816"/>
    <yMax value="1089"/>
    <macStyle value="00000000 00000000"/>
    <lowestRecPPEM value="9"/>
    <fontDirectionHint value="2"/>
    <indexToLocFormat value="0"/>
    <glyphDataFormat value="0"/>
  </head>
    <TTGlyph name=".notdef" xMin="0" yMin="-200" xMax="500" yMax="800">
      <contour>
        <pt x="0" y="800" on="1"/>
        <pt x="500" y="800" on="1"/>
        <pt x="500" y="-200" on="1"/>
        <pt x="0" y="-200" on="1"/>
      </contour>
      <contour>
        <pt x="250" y="360" on="1"/>
        <pt x="429" y="750" on="1"/>
        <pt x="71" y="750" on="1"/>
      </contour>
      <contour>
        <pt x="222" y="300" on="1"/>
        <pt x="50" y="676" on="1"/>
        <pt x="50" y="-76" on="1"/>
      </contour>
      <contour>
        <pt x="278" y="300" on="1"/>
        <pt x="450" y="-76" on="1"/>
        <pt x="450" y="676" on="1"/>
      </contour>
      <contour>
        <pt x="71" y="-150" on="1"/>
        <pt x="429" y="-150" on="1"/>
        <pt x="250" y="240" on="1"/>
      </contour>
    </TTGlyph>
    <TTGlyph name="A" xMin="-2" yMin="-6" xMax="734" yMax="705">
      <contour>
        <pt x="734" y="8" on="1"/>
        <pt x="734" y="-6" on="0"/>
        <pt x="726" y="-6" on="1"/>
        <pt x="701" y="-6" on="0"/>
        <pt x="666" y="-4" on="0"/>
        <pt x="636" y="-2" on="0"/>
        <pt x="605" y="0" on="0"/>
        <pt x="584" y="0" on="1"/>
        <pt x="561" y="0" on="0"/>
        <pt x="524" y="-2" on="0"/>
        <pt x="490" y="-4" on="0"/>
        <pt x="452" y="-6" on="0"/>
        <pt x="427" y="-6" on="1"/>
        <pt x="419" y="-6" on="0"/>
        <pt x="419" y="8" on="1"/>
        <pt x="419" y="20" on="0"/>
        <pt x="425" y="22" on="1"/>
        <pt x="474" y="24" on="0"/>
        <pt x="509" y="45" on="0"/>
        <pt x="509" y="64" on="1"/>
        <pt x="509" y="73" on="0"/>
        <pt x="504" y="94" on="0"/>
        <pt x="500" y="106" on="1"/>
        <pt x="442" y="272" on="1"/>
        <pt x="236" y="272" on="1"/>
        <pt x="179" y="118" on="1"/>
        <pt x="174" y="105" on="0"/>
        <pt x="168" y="81" on="0"/>
        <pt x="168" y="70" on="1"/>
        <pt x="168" y="50" on="0"/>
        <pt x="202" y="24" on="0"/>
        <pt x="249" y="22" on="1"/>
        <pt x="255" y="20" on="0"/>
        <pt x="255" y="8" on="1"/>
        <pt x="255" y="-6" on="0"/>
        <pt x="247" y="-6" on="1"/>
        <pt x="225" y="-6" on="0"/>
        <pt x="195" y="-4" on="0"/>
        <pt x="168" y="-2" on="0"/>
        <pt x="140" y="0" on="0"/>
        <pt x="119" y="0" on="1"/>
        <pt x="102" y="0" on="0"/>
        <pt x="77" y="-2" on="0"/>
        <pt x="52" y="-4" on="0"/>
        <pt x="25" y="-6" on="0"/>
        <pt x="7" y="-6" on="1"/>
        <pt x="-2" y="-6" on="0"/>
        <pt x="0" y="8" on="1"/>
        <pt x="0" y="13" on="0"/>
        <pt x="8" y="21" on="0"/>
        <pt x="11" y="22" on="1"/>
        <pt x="37" y="24" on="0"/>
        <pt x="73" y="39" on="0"/>
        <pt x="98" y="65" on="0"/>
        <pt x="117" y="100" on="0"/>
        <pt x="127" y="122" on="1"/>
        <pt x="361" y="697" on="1"/>
        <pt x="364" y="705" on="0"/>
        <pt x="375" y="705" on="1"/>
        <pt x="387" y="705" on="0"/>
        <pt x="389" y="697" on="1"/>
        <pt x="597" y="122" on="1"/>
        <pt x="604" y="102" on="0"/>
        <pt x="623" y="69" on="0"/>
        <pt x="652" y="43" on="0"/>
        <pt x="694" y="25" on="0"/>
        <pt x="724" y="22" on="1"/>
        <pt x="727" y="21" on="0"/>
        <pt x="734" y="13" on="0"/>
      </contour>
      <contour>
        <pt x="343" y="561" on="1"/>
        <pt x="248" y="305" on="1"/>
        <pt x="431" y="305" on="1"/>
      </contour>
      <contour>
        <pt x="646" y="17" on="1"/>
        <pt x="614" y="24" on="0"/>
        <pt x="575" y="68" on="0"/>
        <pt x="567" y="91" on="1"/>
        <pt x="367" y="660" on="1"/>
        <pt x="347" y="610" on="1"/>
        <pt x="525" y="91" on="1"/>
        <pt x="531" y="76" on="0"/>
        <pt x="531" y="61" on="1"/>
        <pt x="531" y="47" on="0"/>
        <pt x="516" y="22" on="0"/>
        <pt x="497" y="17" on="1"/>
        <pt x="497" y="16" on="1"/>
        <pt x="507" y="18" on="0"/>
        <pt x="547" y="19" on="0"/>
        <pt x="569" y="19" on="1"/>
        <pt x="592" y="19" on="0"/>
        <pt x="628" y="18" on="0"/>
        <pt x="646" y="16" on="1"/>
      </contour>
      <contour>
        <pt x="154" y="18" on="1"/>
        <pt x="142" y="29" on="0"/>
        <pt x="132" y="54" on="0"/>
        <pt x="132" y="65" on="1"/>
        <pt x="132" y="79" on="0"/>
        <pt x="137" y="97" on="1"/>
        <pt x="136" y="97" on="1"/>
        <pt x="125" y="69" on="0"/>
        <pt x="92" y="28" on="0"/>
        <pt x="69" y="17" on="1"/>
        <pt x="80" y="18" on="0"/>
        <pt x="104" y="19" on="0"/>
        <pt x="119" y="19" on="1"/>
        <pt x="130" y="19" on="0"/>
        <pt x="146" y="19" on="0"/>
      </contour>
    </TTGlyph>
    <TTGlyph name="AE" xMin="0" yMin="-6" xMax="1034" yMax="690">
      <contour>
        <pt x="1032" y="159" on="1"/>
        <pt x="1012" y="117" on="0"/>
        <pt x="981" y="41" on="0"/>
        <pt x="966" y="-6" on="1"/>
        <pt x="942" y="-5" on="0"/>
        <pt x="871" y="-3" on="0"/>
        <pt x="794" y="-1" on="0"/>
        <pt x="722" y="0" on="0"/>
        <pt x="697" y="0" on="1"/>
        <pt x="672" y="0" on="0"/>
        <pt x="600" y="-1" on="0"/>
        <pt x="523" y="-3" on="0"/>
        <pt x="452" y="-5" on="0"/>
        <pt x="428" y="-6" on="1"/>
        <pt x="420" y="-6" on="0"/>
        <pt x="420" y="8" on="1"/>
        <pt x="420" y="22" on="0"/>
        <pt x="428" y="22" on="1"/>
        <pt x="464" y="26" on="0"/>
        <pt x="506" y="39" on="0"/>
        <pt x="527" y="59" on="0"/>
        <pt x="532" y="87" on="0"/>
        <pt x="532" y="107" on="1"/>
        <pt x="532" y="273" on="1"/>
        <pt x="310" y="273" on="1"/>
        <pt x="210" y="119" on="1"/>
        <pt x="197" y="98" on="0"/>
        <pt x="184" y="69" on="0"/>
        <pt x="184" y="58" on="1"/>
        <pt x="184" y="40" on="0"/>
        <pt x="222" y="26" on="0"/>
        <pt x="257" y="22" on="1"/>
        <pt x="263" y="22" on="0"/>
        <pt x="263" y="8" on="1"/>
        <pt x="263" y="-6" on="0"/>
        <pt x="255" y="-6" on="1"/>
        <pt x="233" y="-6" on="0"/>
        <pt x="200" y="-4" on="0"/>
        <pt x="171" y="-2" on="0"/>
        <pt x="140" y="0" on="0"/>
        <pt x="119" y="0" on="1"/>
        <pt x="102" y="0" on="0"/>
        <pt x="76" y="-2" on="0"/>
        <pt x="51" y="-4" on="0"/>
        <pt x="24" y="-6" on="0"/>
        <pt x="6" y="-6" on="1"/>
        <pt x="0" y="-6" on="0"/>
        <pt x="0" y="8" on="1"/>
        <pt x="0" y="14" on="0"/>
        <pt x="7" y="22" on="0"/>
        <pt x="11" y="22" on="1"/>
        <pt x="38" y="25" on="0"/>
        <pt x="77" y="39" on="0"/>
        <pt x="109" y="64" on="0"/>
        <pt x="137" y="100" on="0"/>
        <pt x="153" y="123" on="1"/>
        <pt x="460" y="565" on="1"/>
        <pt x="474" y="585" on="0"/>
        <pt x="484" y="619" on="0"/>
        <pt x="470" y="645" on="0"/>
        <pt x="430" y="660" on="0"/>
        <pt x="394" y="662" on="1"/>
        <pt x="388" y="662" on="0"/>
        <pt x="388" y="676" on="1"/>
        <pt x="388" y="690" on="0"/>
        <pt x="396" y="690" on="1"/>
        <pt x="418" y="690" on="0"/>
        <pt x="478" y="688" on="0"/>
        <pt x="541" y="686" on="0"/>
        <pt x="599" y="684" on="0"/>
        <pt x="619" y="684" on="1"/>
        <pt x="644" y="684" on="0"/>
        <pt x="735" y="685" on="0"/>
        <pt x="833" y="687" on="0"/>
        <pt x="922" y="689" on="0"/>
        <pt x="946" y="690" on="1"/>
        <pt x="952" y="648" on="0"/>
        <pt x="967" y="580" on="0"/>
        <pt x="979" y="539" on="1"/>
        <pt x="981" y="534" on="0"/>
        <pt x="969" y="527" on="0"/>
        <pt x="961" y="527" on="1"/>
        <pt x="953" y="527" on="0"/>
        <pt x="951" y="534" on="1"/>
        <pt x="940" y="569" on="0"/>
        <pt x="906" y="614" on="0"/>
        <pt x="864" y="641" on="0"/>
        <pt x="816" y="652" on="0"/>
        <pt x="792" y="652" on="1"/>
        <pt x="692" y="652" on="1"/>
        <pt x="682" y="652" on="0"/>
        <pt x="662" y="647" on="0"/>
        <pt x="645" y="634" on="0"/>
        <pt x="634" y="610" on="0"/>
        <pt x="634" y="592" on="1"/>
        <pt x="634" y="369" on="1"/>
        <pt x="760" y="369" on="1"/>
        <pt x="779" y="369" on="0"/>
        <pt x="810" y="375" on="0"/>
        <pt x="832" y="396" on="0"/>
        <pt x="848" y="439" on="0"/>
        <pt x="852" y="475" on="1"/>
        <pt x="854" y="483" on="0"/>
        <pt x="867" y="483" on="1"/>
        <pt x="872" y="483" on="0"/>
        <pt x="881" y="478" on="0"/>
        <pt x="881" y="475" on="1"/>
        <pt x="881" y="437" on="0"/>
        <pt x="875" y="386" on="0"/>
        <pt x="875" y="351" on="1"/>
        <pt x="875" y="316" on="0"/>
        <pt x="881" y="265" on="0"/>
        <pt x="881" y="227" on="1"/>
        <pt x="881" y="224" on="0"/>
        <pt x="872" y="219" on="0"/>
        <pt x="867" y="219" on="1"/>
        <pt x="854" y="219" on="0"/>
        <pt x="852" y="227" on="1"/>
        <pt x="848" y="263" on="0"/>
        <pt x="832" y="307" on="0"/>
        <pt x="810" y="330" on="0"/>
        <pt x="779" y="337" on="0"/>
        <pt x="760" y="337" on="1"/>
        <pt x="634" y="337" on="1"/>
        <pt x="634" y="92" on="1"/>
        <pt x="634" y="74" on="0"/>
        <pt x="645" y="50" on="0"/>
        <pt x="662" y="37" on="0"/>
        <pt x="682" y="32" on="0"/>
        <pt x="692" y="32" on="1"/>
        <pt x="800" y="32" on="1"/>
        <pt x="830" y="32" on="0"/>
        <pt x="891" y="52" on="0"/>
        <pt x="946" y="89" on="0"/>
        <pt x="991" y="139" on="0"/>
        <pt x="1005" y="169" on="1"/>
        <pt x="1007" y="173" on="0"/>
        <pt x="1014" y="173" on="1"/>
        <pt x="1022" y="173" on="0"/>
        <pt x="1034" y="163" on="0"/>
      </contour>
      <contour>
        <pt x="532" y="609" on="1"/>
        <pt x="331" y="305" on="1"/>
        <pt x="532" y="305" on="1"/>
      </contour>
      <contour>
        <pt x="643" y="19" on="1"/>
        <pt x="614" y="25" on="0"/>
        <pt x="590" y="67" on="0"/>
        <pt x="590" y="90" on="1"/>
        <pt x="590" y="592" on="1"/>
        <pt x="590" y="613" on="0"/>
        <pt x="610" y="655" on="0"/>
        <pt x="637" y="664" on="1"/>
        <pt x="637" y="665" on="1"/>
        <pt x="623" y="665" on="0"/>
        <pt x="587" y="665" on="0"/>
        <pt x="549" y="666" on="0"/>
        <pt x="512" y="667" on="0"/>
        <pt x="498" y="668" on="1"/>
        <pt x="498" y="667" on="1"/>
        <pt x="525" y="661" on="0"/>
        <pt x="552" y="627" on="0"/>
        <pt x="552" y="604" on="1"/>
        <pt x="552" y="90" on="1"/>
        <pt x="552" y="69" on="0"/>
        <pt x="530" y="24" on="0"/>
        <pt x="500" y="16" on="1"/>
        <pt x="500" y="15" on="1"/>
        <pt x="513" y="17" on="0"/>
        <pt x="552" y="18" on="0"/>
        <pt x="571" y="18" on="1"/>
        <pt x="643" y="18" on="1"/>
      </contour>
      <contour>
        <pt x="957" y="75" on="1"/>
        <pt x="934" y="56" on="0"/>
        <pt x="871" y="22" on="0"/>
        <pt x="839" y="19" on="1"/>
        <pt x="839" y="18" on="1"/>
        <pt x="935" y="15" on="1"/>
      </contour>
      <contour>
        <pt x="162" y="103" on="1"/>
        <pt x="145" y="76" on="0"/>
        <pt x="100" y="27" on="0"/>
        <pt x="73" y="19" on="1"/>
        <pt x="73" y="18" on="1"/>
        <pt x="80" y="19" on="0"/>
        <pt x="108" y="20" on="0"/>
        <pt x="119" y="20" on="1"/>
        <pt x="130" y="20" on="0"/>
        <pt x="157" y="19" on="0"/>
        <pt x="165" y="18" on="1"/>
        <pt x="165" y="19" on="1"/>
        <pt x="157" y="24" on="0"/>
        <pt x="148" y="47" on="0"/>
        <pt x="148" y="58" on="1"/>
        <pt x="148" y="65" on="0"/>
        <pt x="157" y="93" on="0"/>
        <pt x="163" y="103" on="1"/>
      </contour>
      <contour>
        <pt x="921" y="626" on="1"/>
        <pt x="919" y="634" on="0"/>
        <pt x="915" y="660" on="0"/>
        <pt x="913" y="669" on="1"/>
        <pt x="829" y="666" on="1"/>
        <pt x="829" y="665" on="1"/>
        <pt x="858" y="664" on="0"/>
        <pt x="904" y="641" on="0"/>
      </contour>
      <contour>
        <pt x="844" y="322" on="1"/>
        <pt x="843" y="329" on="0"/>
        <pt x="843" y="343" on="0"/>
        <pt x="843" y="351" on="1"/>
        <pt x="843" y="359" on="0"/>
        <pt x="843" y="373" on="0"/>
        <pt x="844" y="380" on="1"/>
        <pt x="835" y="368" on="0"/>
        <pt x="810" y="355" on="0"/>
        <pt x="796" y="353" on="1"/>
        <pt x="796" y="352" on="1"/>
        <pt x="826" y="349" on="0"/>
      </contour>
    </TTGlyph>
    <TTGlyph name="AEacute" xMin="0" yMin="-6" xMax="1034" yMax="924">
      <component glyphName="AE" x="0" y="0" flags="0x204"/>
      <component glyphName="acute" x="536" y="0" flags="0x4"/>
    </TTGlyph>
    <TTGlyph name="Aacute" xMin="-2" yMin="-6" xMax="734" yMax="939">
      <component glyphName="A" x="0" y="0" flags="0x204"/>
      <component glyphName="acute" x="272" y="15" flags="0x4"/>
    </TTGlyph>
    <TTGlyph name="Abreve" xMin="-2" yMin="-6" xMax="734" yMax="922">
      <component glyphName="A" x="0" y="0" flags="0x204"/>
      <component glyphName="breve" x="200" y="15" flags="0x4"/>
    </TTGlyph>
    <TTGlyph name="Acircumflex" xMin="-2" yMin="-6" xMax="734" yMax="925">
      <component glyphName="A" x="0" y="0" flags="0x204"/>
      <component glyphName="circumflex" x="200" y="15" flags="0x4"/>
    </TTGlyph>
    <TTGlyph name="Adieresis" xMin="-2" yMin="-6" xMax="734" yMax="883">
      <component glyphName="A" x="0" y="0" flags="0x204"/>
      <component glyphName="dieresis" x="200" y="15" flags="0x4"/>
    </TTGlyph>
    <TTGlyph name="Agrave" xMin="-2" yMin="-6" xMax="734" yMax="939">
      <component glyphName="A" x="0" y="0" flags="0x204"/>
      <component glyphName="grave" x="161" y="15" flags="0x4"/>
    </TTGlyph>
    <TTGlyph name="Amacron" xMin="-2" yMin="-6" xMax="734" yMax="859">
      <component glyphName="A" x="0" y="0" flags="0x204"/>
      <component glyphName="macron" x="201" y="15" flags="0x4"/>
    </TTGlyph>
    <TTGlyph name="Aogonek" xMin="-2" yMin="-225" xMax="734" yMax="705">
      <contour>
        <pt x="734" y="8" on="1"/>
        <pt x="734" y="-6" on="0"/>
        <pt x="726" y="-6" on="1"/>
        <pt x="700" y="-6" on="0"/>
        <pt x="664" y="-4" on="0"/>
        <pt x="648" y="-3" on="1"/>
        <pt x="590" y="-64" on="0"/>
        <pt x="590" y="-122" on="1"/>
        <pt x="590" y="-174" on="0"/>
        <pt x="647" y="-174" on="1"/>
        <pt x="661" y="-174" on="0"/>
        <pt x="684" y="-162" on="0"/>
        <pt x="695" y="-155" on="1"/>
        <pt x="698" y="-153" on="0"/>
        <pt x="706" y="-158" on="0"/>
        <pt x="709" y="-163" on="1"/>
        <pt x="714" y="-172" on="0"/>
        <pt x="710" y="-179" on="1"/>
        <pt x="694" y="-201" on="0"/>
        <pt x="645" y="-225" on="0"/>
        <pt x="609" y="-225" on="1"/>
        <pt x="586" y="-225" on="0"/>
        <pt x="554" y="-211" on="0"/>
        <pt x="533" y="-188" on="0"/>
        <pt x="523" y="-159" on="0"/>
        <pt x="523" y="-144" on="1"/>
        <pt x="523" y="-78" on="0"/>
        <pt x="606" y="0" on="1"/>
        <pt x="584" y="0" on="1"/>
        <pt x="561" y="0" on="0"/>
        <pt x="524" y="-2" on="0"/>
        <pt x="490" y="-4" on="0"/>
        <pt x="452" y="-6" on="0"/>
        <pt x="427" y="-6" on="1"/>
        <pt x="419" y="-6" on="0"/>
        <pt x="419" y="8" on="1"/>
        <pt x="419" y="20" on="0"/>
        <pt x="425" y="22" on="1"/>
        <pt x="474" y="24" on="0"/>
        <pt x="509" y="45" on="0"/>
        <pt x="509" y="64" on="1"/>
        <pt x="509" y="73" on="0"/>
        <pt x="504" y="94" on="0"/>
        <pt x="500" y="106" on="1"/>
        <pt x="442" y="272" on="1"/>
        <pt x="236" y="272" on="1"/>
        <pt x="179" y="118" on="1"/>
        <pt x="174" y="105" on="0"/>
        <pt x="168" y="81" on="0"/>
        <pt x="168" y="70" on="1"/>
        <pt x="168" y="50" on="0"/>
        <pt x="202" y="24" on="0"/>
        <pt x="249" y="22" on="1"/>
        <pt x="255" y="20" on="0"/>
        <pt x="255" y="8" on="1"/>
        <pt x="255" y="-6" on="0"/>
        <pt x="247" y="-6" on="1"/>
        <pt x="225" y="-6" on="0"/>
        <pt x="195" y="-4" on="0"/>
        <pt x="168" y="-2" on="0"/>
        <pt x="140" y="0" on="0"/>
        <pt x="119" y="0" on="1"/>
        <pt x="102" y="0" on="0"/>
        <pt x="77" y="-2" on="0"/>
        <pt x="52" y="-4" on="0"/>
        <pt x="25" y="-6" on="0"/>
        <pt x="7" y="-6" on="1"/>
        <pt x="-2" y="-6" on="0"/>
        <pt x="0" y="8" on="1"/>
        <pt x="0" y="13" on="0"/>
        <pt x="8" y="21" on="0"/>
        <pt x="11" y="22" on="1"/>
        <pt x="37" y="24" on="0"/>
        <pt x="73" y="39" on="0"/>
        <pt x="98" y="65" on="0"/>
        <pt x="117" y="100" on="0"/>
        <pt x="127" y="122" on="1"/>
        <pt x="361" y="697" on="1"/>
        <pt x="364" y="705" on="0"/>
        <pt x="375" y="705" on="1"/>
        <pt x="387" y="705" on="0"/>
        <pt x="389" y="697" on="1"/>
        <pt x="597" y="122" on="1"/>
        <pt x="604" y="102" on="0"/>
        <pt x="623" y="69" on="0"/>
        <pt x="652" y="43" on="0"/>
        <pt x="694" y="25" on="0"/>
        <pt x="724" y="22" on="1"/>
        <pt x="727" y="21" on="0"/>
        <pt x="734" y="13" on="0"/>
      </contour>
      <contour>
        <pt x="646" y="17" on="1"/>
        <pt x="614" y="24" on="0"/>
        <pt x="575" y="68" on="0"/>
        <pt x="567" y="91" on="1"/>
        <pt x="367" y="660" on="1"/>
        <pt x="347" y="610" on="1"/>
        <pt x="525" y="91" on="1"/>
        <pt x="531" y="76" on="0"/>
        <pt x="531" y="61" on="1"/>
        <pt x="531" y="47" on="0"/>
        <pt x="516" y="22" on="0"/>
        <pt x="497" y="17" on="1"/>
        <pt x="497" y="16" on="1"/>
        <pt x="507" y="18" on="0"/>
        <pt x="547" y="19" on="0"/>
        <pt x="569" y="19" on="1"/>
        <pt x="592" y="19" on="0"/>
        <pt x="628" y="18" on="0"/>
        <pt x="646" y="16" on="1"/>
      </contour>
      <contour>
        <pt x="343" y="561" on="1"/>
        <pt x="248" y="305" on="1"/>
        <pt x="431" y="305" on="1"/>
      </contour>
      <contour>
        <pt x="674" y="-187" on="1"/>
        <pt x="666" y="-192" on="0"/>
        <pt x="643" y="-196" on="0"/>
        <pt x="635" y="-196" on="1"/>
        <pt x="594" y="-196" on="0"/>
        <pt x="562" y="-154" on="0"/>
        <pt x="562" y="-126" on="1"/>
        <pt x="562" y="-101" on="0"/>
        <pt x="592" y="-38" on="0"/>
        <pt x="618" y="-9" on="1"/>
        <pt x="543" y="-81" on="0"/>
        <pt x="543" y="-144" on="1"/>
        <pt x="543" y="-169" on="0"/>
        <pt x="578" y="-205" on="0"/>
        <pt x="613" y="-205" on="1"/>
        <pt x="626" y="-205" on="0"/>
        <pt x="664" y="-196" on="0"/>
      </contour>
      <contour>
        <pt x="154" y="18" on="1"/>
        <pt x="142" y="29" on="0"/>
        <pt x="132" y="54" on="0"/>
        <pt x="132" y="65" on="1"/>
        <pt x="132" y="79" on="0"/>
        <pt x="137" y="97" on="1"/>
        <pt x="136" y="97" on="1"/>
        <pt x="125" y="69" on="0"/>
        <pt x="92" y="28" on="0"/>
        <pt x="69" y="17" on="1"/>
        <pt x="80" y="18" on="0"/>
        <pt x="104" y="19" on="0"/>
        <pt x="119" y="19" on="1"/>
        <pt x="130" y="19" on="0"/>
        <pt x="146" y="19" on="0"/>
      </contour>
    </TTGlyph>
    <TTGlyph name="Aring" xMin="-2" yMin="-6" xMax="734" yMax="887">
      <contour>
        <pt x="597" y="122" on="1"/>
        <pt x="604" y="102" on="0"/>
        <pt x="623" y="69" on="0"/>
        <pt x="652" y="43" on="0"/>
        <pt x="694" y="25" on="0"/>
        <pt x="724" y="22" on="1"/>
        <pt x="727" y="21" on="0"/>
        <pt x="734" y="13" on="0"/>
        <pt x="734" y="8" on="1"/>
        <pt x="734" y="-6" on="0"/>
        <pt x="726" y="-6" on="1"/>
        <pt x="701" y="-6" on="0"/>
        <pt x="666" y="-4" on="0"/>
        <pt x="636" y="-2" on="0"/>
        <pt x="605" y="0" on="0"/>
        <pt x="584" y="0" on="1"/>
        <pt x="561" y="0" on="0"/>
        <pt x="524" y="-2" on="0"/>
        <pt x="490" y="-4" on="0"/>
        <pt x="452" y="-6" on="0"/>
        <pt x="427" y="-6" on="1"/>
        <pt x="419" y="-6" on="0"/>
        <pt x="419" y="8" on="1"/>
        <pt x="419" y="20" on="0"/>
        <pt x="425" y="22" on="1"/>
        <pt x="474" y="24" on="0"/>
        <pt x="509" y="45" on="0"/>
        <pt x="509" y="64" on="1"/>
        <pt x="509" y="73" on="0"/>
        <pt x="504" y="94" on="0"/>
        <pt x="500" y="106" on="1"/>
        <pt x="442" y="272" on="1"/>
        <pt x="236" y="272" on="1"/>
        <pt x="179" y="118" on="1"/>
        <pt x="174" y="105" on="0"/>
        <pt x="168" y="81" on="0"/>
        <pt x="168" y="70" on="1"/>
        <pt x="168" y="50" on="0"/>
        <pt x="202" y="24" on="0"/>
        <pt x="249" y="22" on="1"/>
        <pt x="255" y="20" on="0"/>
        <pt x="255" y="8" on="1"/>
        <pt x="255" y="-6" on="0"/>
        <pt x="247" y="-6" on="1"/>
        <pt x="225" y="-6" on="0"/>
        <pt x="195" y="-4" on="0"/>
        <pt x="168" y="-2" on="0"/>
        <pt x="140" y="0" on="0"/>
        <pt x="119" y="0" on="1"/>
        <pt x="102" y="0" on="0"/>
        <pt x="77" y="-2" on="0"/>
        <pt x="52" y="-4" on="0"/>
        <pt x="25" y="-6" on="0"/>
        <pt x="7" y="-6" on="1"/>
        <pt x="-2" y="-6" on="0"/>
        <pt x="0" y="8" on="1"/>
        <pt x="0" y="13" on="0"/>
        <pt x="8" y="21" on="0"/>
        <pt x="11" y="22" on="1"/>
        <pt x="37" y="24" on="0"/>
        <pt x="73" y="39" on="0"/>
        <pt x="98" y="65" on="0"/>
        <pt x="117" y="100" on="0"/>
        <pt x="127" y="122" on="1"/>
        <pt x="359" y="691" on="1"/>
        <pt x="338" y="694" on="0"/>
        <pt x="305" y="713" on="0"/>
        <pt x="283" y="740" on="0"/>
        <pt x="271" y="773" on="0"/>
        <pt x="271" y="789" on="1"/>
        <pt x="271" y="808" on="0"/>
        <pt x="286" y="844" on="0"/>
        <pt x="314" y="871" on="0"/>
        <pt x="352" y="887" on="0"/>
        <pt x="375" y="887" on="1"/>
        <pt x="398" y="887" on="0"/>
        <pt x="436" y="871" on="0"/>
        <pt x="464" y="844" on="0"/>
        <pt x="479" y="808" on="0"/>
        <pt x="479" y="789" on="1"/>
        <pt x="479" y="773" on="0"/>
        <pt x="467" y="740" on="0"/>
        <pt x="445" y="713" on="0"/>
        <pt x="412" y="694" on="0"/>
        <pt x="391" y="691" on="1"/>
      </contour>
      <contour>
        <pt x="435" y="789" on="1"/>
        <pt x="435" y="817" on="0"/>
        <pt x="401" y="855" on="0"/>
        <pt x="375" y="855" on="1"/>
        <pt x="349" y="855" on="0"/>
        <pt x="315" y="817" on="0"/>
        <pt x="315" y="789" on="1"/>
        <pt x="315" y="760" on="0"/>
        <pt x="349" y="722" on="0"/>
        <pt x="375" y="722" on="1"/>
        <pt x="401" y="722" on="0"/>
        <pt x="435" y="760" on="0"/>
      </contour>
      <contour>
        <pt x="343" y="561" on="1"/>
        <pt x="248" y="305" on="1"/>
        <pt x="431" y="305" on="1"/>
      </contour>
      <contour>
        <pt x="646" y="17" on="1"/>
        <pt x="614" y="24" on="0"/>
        <pt x="575" y="68" on="0"/>
        <pt x="567" y="91" on="1"/>
        <pt x="367" y="660" on="1"/>
        <pt x="347" y="610" on="1"/>
        <pt x="525" y="91" on="1"/>
        <pt x="531" y="76" on="0"/>
        <pt x="531" y="61" on="1"/>
        <pt x="531" y="47" on="0"/>
        <pt x="516" y="22" on="0"/>
        <pt x="497" y="17" on="1"/>
        <pt x="497" y="16" on="1"/>
        <pt x="507" y="18" on="0"/>
        <pt x="547" y="19" on="0"/>
        <pt x="569" y="19" on="1"/>
        <pt x="592" y="19" on="0"/>
        <pt x="628" y="18" on="0"/>
        <pt x="646" y="16" on="1"/>
      </contour>
      <contour>
        <pt x="154" y="18" on="1"/>
        <pt x="142" y="29" on="0"/>
        <pt x="132" y="54" on="0"/>
        <pt x="132" y="65" on="1"/>
        <pt x="132" y="79" on="0"/>
        <pt x="137" y="97" on="1"/>
        <pt x="136" y="97" on="1"/>
        <pt x="125" y="69" on="0"/>
        <pt x="92" y="28" on="0"/>
        <pt x="69" y="17" on="1"/>
        <pt x="80" y="18" on="0"/>
        <pt x="104" y="19" on="0"/>
        <pt x="119" y="19" on="1"/>
        <pt x="130" y="19" on="0"/>
        <pt x="146" y="19" on="0"/>
      </contour>
    </TTGlyph>
    <TTGlyph name="Aringacute" xMin="-2" yMin="-6" xMax="734" yMax="1089">
      <component glyphName="Aring" x="0" y="0" flags="0x204"/>
      <component glyphName="acute" x="296" y="165" flags="0x4"/>
    </TTGlyph>
    <TTGlyph name="Atilde" xMin="-2" yMin="-6" xMax="734" yMax="934">
      <component glyphName="A" x="0" y="0" flags="0x204"/>
      <component glyphName="tilde" x="188" y="15" flags="0x4"/>
    </TTGlyph>
    <TTGlyph name="B" xMin="28" yMin="-6" xMax="616" yMax="690">
      <contour>
        <pt x="616" y="197" on="1"/>
        <pt x="616" y="151" on="0"/>
        <pt x="583" y="76" on="0"/>
        <pt x="524" y="23" on="0"/>
        <pt x="440" y="-6" on="0"/>
        <pt x="389" y="-6" on="1"/>
        <pt x="339" y="-6" on="0"/>
        <pt x="252" y="0" on="0"/>
        <pt x="205" y="0" on="1"/>
        <pt x="182" y="0" on="0"/>
        <pt x="142" y="-2" on="0"/>
        <pt x="102" y="-4" on="0"/>
        <pt x="61" y="-6" on="0"/>
        <pt x="36" y="-6" on="1"/>
        <pt x="28" y="-6" on="0"/>
        <pt x="28" y="8" on="1"/>
        <pt x="28" y="20" on="0"/>
        <pt x="36" y="22" on="1"/>
        <pt x="72" y="26" on="0"/>
        <pt x="114" y="39" on="0"/>
        <pt x="135" y="59" on="0"/>
        <pt x="140" y="87" on="0"/>
        <pt x="140" y="106" on="1"/>
        <pt x="140" y="577" on="1"/>
        <pt x="140" y="596" on="0"/>
        <pt x="135" y="624" on="0"/>
        <pt x="114" y="644" on="0"/>
        <pt x="72" y="657" on="0"/>
        <pt x="36" y="661" on="1"/>
        <pt x="28" y="663" on="0"/>
        <pt x="28" y="675" on="1"/>
        <pt x="28" y="681" on="0"/>
        <pt x="33" y="690" on="0"/>
        <pt x="36" y="690" on="1"/>
        <pt x="61" y="690" on="0"/>
        <pt x="99" y="688" on="0"/>
        <pt x="135" y="686" on="0"/>
        <pt x="172" y="684" on="0"/>
        <pt x="195" y="684" on="1"/>
        <pt x="218" y="684" on="0"/>
        <pt x="257" y="686" on="0"/>
        <pt x="296" y="688" on="0"/>
        <pt x="336" y="690" on="0"/>
        <pt x="361" y="690" on="1"/>
        <pt x="408" y="690" on="0"/>
        <pt x="485" y="666" on="0"/>
        <pt x="540" y="624" on="0"/>
        <pt x="570" y="564" on="0"/>
        <pt x="570" y="528" on="1"/>
        <pt x="570" y="502" on="0"/>
        <pt x="547" y="453" on="0"/>
        <pt x="507" y="412" on="0"/>
        <pt x="453" y="381" on="0"/>
        <pt x="422" y="374" on="1"/>
        <pt x="462" y="366" on="0"/>
        <pt x="533" y="335" on="0"/>
        <pt x="586" y="290" on="0"/>
        <pt x="616" y="232" on="0"/>
      </contour>
      <contour>
        <pt x="526" y="528" on="1"/>
        <pt x="526" y="594" on="0"/>
        <pt x="438" y="669" on="0"/>
        <pt x="357" y="671" on="1"/>
        <pt x="357" y="670" on="1"/>
        <pt x="425" y="667" on="0"/>
        <pt x="480" y="590" on="0"/>
        <pt x="480" y="528" on="1"/>
        <pt x="480" y="417" on="0"/>
        <pt x="411" y="387" on="1"/>
        <pt x="411" y="386" on="1"/>
        <pt x="461" y="406" on="0"/>
        <pt x="526" y="484" on="0"/>
      </contour>
      <contour>
        <pt x="459" y="528" on="1"/>
        <pt x="459" y="591" on="0"/>
        <pt x="397" y="656" on="0"/>
        <pt x="325" y="656" on="1"/>
        <pt x="305" y="656" on="1"/>
        <pt x="270" y="656" on="0"/>
        <pt x="242" y="627" on="0"/>
        <pt x="242" y="602" on="1"/>
        <pt x="242" y="384" on="1"/>
        <pt x="314" y="384" on="1"/>
        <pt x="394" y="384" on="0"/>
        <pt x="459" y="455" on="0"/>
      </contour>
      <contour>
        <pt x="252" y="17" on="1"/>
        <pt x="226" y="22" on="0"/>
        <pt x="198" y="67" on="0"/>
        <pt x="198" y="95" on="1"/>
        <pt x="198" y="592" on="1"/>
        <pt x="198" y="604" on="0"/>
        <pt x="199" y="629" on="0"/>
        <pt x="207" y="649" on="0"/>
        <pt x="223" y="663" on="0"/>
        <pt x="237" y="665" on="1"/>
        <pt x="237" y="666" on="1"/>
        <pt x="228" y="665" on="0"/>
        <pt x="216" y="664" on="0"/>
        <pt x="205" y="664" on="0"/>
        <pt x="191" y="664" on="0"/>
        <pt x="179" y="664" on="1"/>
        <pt x="156" y="664" on="0"/>
        <pt x="123" y="665" on="0"/>
        <pt x="106" y="667" on="1"/>
        <pt x="106" y="666" on="1"/>
        <pt x="135" y="659" on="0"/>
        <pt x="160" y="616" on="0"/>
        <pt x="160" y="592" on="1"/>
        <pt x="160" y="91" on="1"/>
        <pt x="160" y="66" on="0"/>
        <pt x="134" y="23" on="0"/>
        <pt x="106" y="17" on="1"/>
        <pt x="106" y="16" on="1"/>
        <pt x="124" y="18" on="0"/>
        <pt x="156" y="19" on="0"/>
        <pt x="179" y="19" on="1"/>
        <pt x="202" y="19" on="0"/>
        <pt x="235" y="18" on="0"/>
        <pt x="252" y="16" on="1"/>
      </contour>
      <contour>
        <pt x="506" y="197" on="1"/>
        <pt x="506" y="269" on="0"/>
        <pt x="426" y="352" on="0"/>
        <pt x="351" y="352" on="1"/>
        <pt x="242" y="352" on="1"/>
        <pt x="242" y="106" on="1"/>
        <pt x="242" y="87" on="0"/>
        <pt x="251" y="57" on="0"/>
        <pt x="276" y="37" on="0"/>
        <pt x="321" y="27" on="0"/>
        <pt x="357" y="27" on="1"/>
        <pt x="388" y="27" on="0"/>
        <pt x="443" y="51" on="0"/>
        <pt x="483" y="95" on="0"/>
        <pt x="506" y="158" on="0"/>
      </contour>
      <contour>
        <pt x="572" y="197" on="1"/>
        <pt x="572" y="227" on="0"/>
        <pt x="546" y="282" on="0"/>
        <pt x="500" y="327" on="0"/>
        <pt x="436" y="359" on="0"/>
        <pt x="399" y="365" on="1"/>
        <pt x="399" y="364" on="1"/>
        <pt x="432" y="358" on="0"/>
        <pt x="480" y="327" on="0"/>
        <pt x="511" y="282" on="0"/>
        <pt x="526" y="226" on="0"/>
        <pt x="526" y="197" on="1"/>
        <pt x="526" y="155" on="0"/>
        <pt x="502" y="87" on="0"/>
        <pt x="461" y="39" on="0"/>
        <pt x="406" y="12" on="0"/>
        <pt x="375" y="10" on="1"/>
        <pt x="375" y="9" on="1"/>
        <pt x="466" y="11" on="0"/>
        <pt x="572" y="107" on="0"/>
      </contour>
    </TTGlyph>
    <TTGlyph name="C" xMin="45" yMin="-22" xMax="708" yMax="705">
      <contour>
        <pt x="708" y="179" on="1"/>
        <pt x="700" y="143" on="0"/>
        <pt x="681" y="50" on="0"/>
        <pt x="673" y="9" on="1"/>
        <pt x="650" y="9" on="0"/>
        <pt x="591" y="-1" on="0"/>
        <pt x="527" y="-12" on="0"/>
        <pt x="459" y="-22" on="0"/>
        <pt x="427" y="-22" on="1"/>
        <pt x="331" y="-22" on="0"/>
        <pt x="188" y="38" on="0"/>
        <pt x="92" y="139" on="0"/>
        <pt x="45" y="269" on="0"/>
        <pt x="45" y="338" on="1"/>
        <pt x="45" y="411" on="0"/>
        <pt x="100" y="544" on="0"/>
        <pt x="201" y="645" on="0"/>
        <pt x="346" y="705" on="0"/>
        <pt x="436" y="705" on="1"/>
        <pt x="469" y="705" on="0"/>
        <pt x="527" y="699" on="0"/>
        <pt x="580" y="693" on="0"/>
        <pt x="629" y="687" on="0"/>
        <pt x="652" y="687" on="1"/>
        <pt x="656" y="645" on="0"/>
        <pt x="668" y="558" on="0"/>
        <pt x="675" y="517" on="1"/>
        <pt x="675" y="513" on="0"/>
        <pt x="665" y="509" on="0"/>
        <pt x="659" y="509" on="1"/>
        <pt x="648" y="509" on="0"/>
        <pt x="647" y="517" on="1"/>
        <pt x="639" y="548" on="0"/>
        <pt x="601" y="604" on="0"/>
        <pt x="546" y="647" on="0"/>
        <pt x="474" y="673" on="0"/>
        <pt x="432" y="673" on="1"/>
        <pt x="372" y="673" on="0"/>
        <pt x="271" y="620" on="0"/>
        <pt x="197" y="529" on="0"/>
        <pt x="155" y="407" on="0"/>
        <pt x="155" y="338" on="1"/>
        <pt x="155" y="270" on="0"/>
        <pt x="197" y="151" on="0"/>
        <pt x="270" y="62" on="0"/>
        <pt x="370" y="10" on="0"/>
        <pt x="427" y="10" on="1"/>
        <pt x="523" y="10" on="0"/>
        <pt x="646" y="102" on="0"/>
        <pt x="680" y="179" on="1"/>
        <pt x="685" y="187" on="0"/>
        <pt x="694" y="187" on="1"/>
        <pt x="708" y="187" on="0"/>
      </contour>
      <contour>
        <pt x="326" y="672" on="1"/>
        <pt x="266" y="657" on="0"/>
        <pt x="170" y="590" on="0"/>
        <pt x="103" y="501" on="0"/>
        <pt x="68" y="394" on="0"/>
        <pt x="68" y="338" on="1"/>
        <pt x="68" y="284" on="0"/>
        <pt x="99" y="180" on="0"/>
        <pt x="160" y="92" on="0"/>
        <pt x="252" y="27" on="0"/>
        <pt x="313" y="11" on="1"/>
        <pt x="313" y="12" on="1"/>
        <pt x="271" y="27" on="0"/>
        <pt x="198" y="88" on="0"/>
        <pt x="143" y="174" on="0"/>
        <pt x="111" y="281" on="0"/>
        <pt x="111" y="342" on="1"/>
        <pt x="111" y="402" on="0"/>
        <pt x="145" y="509" on="0"/>
        <pt x="203" y="595" on="0"/>
        <pt x="282" y="656" on="0"/>
        <pt x="326" y="671" on="1"/>
      </contour>
      <contour>
        <pt x="618" y="668" on="1"/>
        <pt x="592" y="670" on="0"/>
        <pt x="533" y="679" on="0"/>
        <pt x="504" y="682" on="1"/>
        <pt x="504" y="681" on="1"/>
        <pt x="522" y="677" on="0"/>
        <pt x="558" y="660" on="0"/>
        <pt x="591" y="637" on="0"/>
        <pt x="617" y="612" on="0"/>
        <pt x="625" y="600" on="1"/>
        <pt x="626" y="600" on="1"/>
      </contour>
      <contour>
        <pt x="653" y="94" on="1"/>
        <pt x="631" y="65" on="0"/>
        <pt x="566" y="18" on="0"/>
        <pt x="531" y="9" on="1"/>
        <pt x="531" y="8" on="1"/>
        <pt x="560" y="13" on="0"/>
        <pt x="616" y="24" on="0"/>
        <pt x="640" y="27" on="1"/>
        <pt x="654" y="94" on="1"/>
      </contour>
    </TTGlyph>
    <TTGlyph name="Cacute" xMin="45" yMin="-22" xMax="708" yMax="939">
      <component glyphName="C" x="0" y="0" flags="0x204"/>
      <component glyphName="acute" x="322" y="15" flags="0x4"/>
    </TTGlyph>
    <TTGlyph name="Ccaron" xMin="45" yMin="-22" xMax="708" yMax="933">
      <component glyphName="C" x="0" y="0" flags="0x204"/>
      <component glyphName="caron" x="250" y="15" flags="0x4"/>
    </TTGlyph>
    <TTGlyph name="Ccedilla" xMin="45" yMin="-225" xMax="708" yMax="705">
      <contour>
        <pt x="396" y="-21" on="1"/>
        <pt x="308" y="-16" on="0"/>
        <pt x="176" y="47" on="0"/>
        <pt x="89" y="146" on="0"/>
        <pt x="45" y="272" on="0"/>
        <pt x="45" y="338" on="1"/>
        <pt x="45" y="411" on="0"/>
        <pt x="100" y="544" on="0"/>
        <pt x="201" y="645" on="0"/>
        <pt x="346" y="705" on="0"/>
        <pt x="436" y="705" on="1"/>
        <pt x="469" y="705" on="0"/>
        <pt x="527" y="699" on="0"/>
        <pt x="580" y="693" on="0"/>
        <pt x="629" y="687" on="0"/>
        <pt x="652" y="687" on="1"/>
        <pt x="656" y="645" on="0"/>
        <pt x="668" y="558" on="0"/>
        <pt x="675" y="517" on="1"/>
        <pt x="675" y="513" on="0"/>
        <pt x="665" y="509" on="0"/>
        <pt x="659" y="509" on="1"/>
        <pt x="648" y="509" on="0"/>
        <pt x="647" y="517" on="1"/>
        <pt x="639" y="548" on="0"/>
        <pt x="601" y="604" on="0"/>
        <pt x="546" y="647" on="0"/>
        <pt x="474" y="673" on="0"/>
        <pt x="432" y="673" on="1"/>
        <pt x="372" y="673" on="0"/>
        <pt x="271" y="620" on="0"/>
        <pt x="197" y="529" on="0"/>
        <pt x="155" y="407" on="0"/>
        <pt x="155" y="338" on="1"/>
        <pt x="155" y="270" on="0"/>
        <pt x="197" y="151" on="0"/>
        <pt x="270" y="62" on="0"/>
        <pt x="370" y="10" on="0"/>
        <pt x="427" y="10" on="1"/>
        <pt x="523" y="10" on="0"/>
        <pt x="646" y="102" on="0"/>
        <pt x="680" y="179" on="1"/>
        <pt x="685" y="187" on="0"/>
        <pt x="694" y="187" on="1"/>
        <pt x="708" y="187" on="0"/>
        <pt x="708" y="179" on="1"/>
        <pt x="700" y="143" on="0"/>
        <pt x="681" y="50" on="0"/>
        <pt x="673" y="9" on="1"/>
        <pt x="650" y="9" on="0"/>
        <pt x="594" y="0" on="0"/>
        <pt x="531" y="-11" on="0"/>
        <pt x="465" y="-21" on="0"/>
        <pt x="434" y="-22" on="1"/>
        <pt x="426" y="-35" on="1"/>
        <pt x="423" y="-40" on="0"/>
        <pt x="423" y="-44" on="1"/>
        <pt x="423" y="-52" on="0"/>
        <pt x="433" y="-59" on="1"/>
        <pt x="455" y="-73" on="0"/>
        <pt x="485" y="-111" on="0"/>
        <pt x="485" y="-134" on="1"/>
        <pt x="485" y="-152" on="0"/>
        <pt x="469" y="-184" on="0"/>
        <pt x="440" y="-210" on="0"/>
        <pt x="398" y="-225" on="0"/>
        <pt x="373" y="-225" on="1"/>
        <pt x="344" y="-225" on="0"/>
        <pt x="313" y="-204" on="0"/>
        <pt x="313" y="-189" on="1"/>
        <pt x="313" y="-180" on="0"/>
        <pt x="326" y="-162" on="0"/>
        <pt x="339" y="-162" on="1"/>
        <pt x="349" y="-162" on="0"/>
        <pt x="365" y="-171" on="0"/>
        <pt x="379" y="-183" on="0"/>
        <pt x="393" y="-192" on="0"/>
        <pt x="402" y="-192" on="1"/>
        <pt x="413" y="-192" on="0"/>
        <pt x="429" y="-177" on="0"/>
        <pt x="429" y="-160" on="1"/>
        <pt x="429" y="-142" on="0"/>
        <pt x="392" y="-108" on="0"/>
        <pt x="370" y="-97" on="1"/>
        <pt x="360" y="-92" on="0"/>
        <pt x="360" y="-82" on="1"/>
        <pt x="360" y="-78" on="0"/>
        <pt x="363" y="-73" on="1"/>
      </contour>
      <contour>
        <pt x="326" y="672" on="1"/>
        <pt x="266" y="657" on="0"/>
        <pt x="170" y="590" on="0"/>
        <pt x="103" y="501" on="0"/>
        <pt x="68" y="394" on="0"/>
        <pt x="68" y="338" on="1"/>
        <pt x="68" y="284" on="0"/>
        <pt x="99" y="180" on="0"/>
        <pt x="160" y="92" on="0"/>
        <pt x="252" y="27" on="0"/>
        <pt x="313" y="11" on="1"/>
        <pt x="313" y="12" on="1"/>
        <pt x="271" y="27" on="0"/>
        <pt x="198" y="88" on="0"/>
        <pt x="143" y="174" on="0"/>
        <pt x="111" y="281" on="0"/>
        <pt x="111" y="342" on="1"/>
        <pt x="111" y="402" on="0"/>
        <pt x="145" y="509" on="0"/>
        <pt x="203" y="595" on="0"/>
        <pt x="282" y="656" on="0"/>
        <pt x="326" y="671" on="1"/>
      </contour>
      <contour>
        <pt x="618" y="668" on="1"/>
        <pt x="592" y="670" on="0"/>
        <pt x="533" y="679" on="0"/>
        <pt x="504" y="682" on="1"/>
        <pt x="504" y="681" on="1"/>
        <pt x="522" y="677" on="0"/>
        <pt x="558" y="660" on="0"/>
        <pt x="591" y="637" on="0"/>
        <pt x="617" y="612" on="0"/>
        <pt x="625" y="600" on="1"/>
        <pt x="626" y="600" on="1"/>
      </contour>
      <contour>
        <pt x="653" y="94" on="1"/>
        <pt x="631" y="65" on="0"/>
        <pt x="566" y="18" on="0"/>
        <pt x="531" y="9" on="1"/>
        <pt x="531" y="8" on="1"/>
        <pt x="560" y="13" on="0"/>
        <pt x="616" y="24" on="0"/>
        <pt x="640" y="27" on="1"/>
        <pt x="654" y="94" on="1"/>
      </contour>
      <contour>
        <pt x="456" y="-134" on="1"/>
        <pt x="456" y="-117" on="0"/>
        <pt x="433" y="-90" on="0"/>
        <pt x="409" y="-75" on="1"/>
        <pt x="398" y="-67" on="0"/>
        <pt x="401" y="-53" on="1"/>
        <pt x="400" y="-53" on="1"/>
        <pt x="390" y="-69" on="1"/>
        <pt x="385" y="-77" on="0"/>
        <pt x="385" y="-80" on="1"/>
        <pt x="385" y="-85" on="0"/>
        <pt x="392" y="-87" on="1"/>
        <pt x="415" y="-100" on="0"/>
        <pt x="450" y="-139" on="0"/>
        <pt x="449" y="-160" on="1"/>
        <pt x="450" y="-160" on="1"/>
        <pt x="453" y="-155" on="0"/>
        <pt x="456" y="-139" on="0"/>
      </contour>
      <contour>
        <pt x="373" y="-204" on="1"/>
        <pt x="360" y="-199" on="0"/>
        <pt x="345" y="-182" on="0"/>
        <pt x="340" y="-182" on="1"/>
        <pt x="332" y="-182" on="0"/>
        <pt x="332" y="-189" on="1"/>
        <pt x="332" y="-195" on="0"/>
        <pt x="354" y="-207" on="0"/>
        <pt x="373" y="-205" on="1"/>
      </contour>
    </TTGlyph>
    <TTGlyph name="Cdotaccent" xMin="45" yMin="-22" xMax="708" yMax="883">
      <component glyphName="C" x="0" y="0" flags="0x204"/>
      <component glyphName="dotaccent" x="250" y="15" flags="0x4"/>
    </TTGlyph>
    <TTGlyph name="D" xMin="29" yMin="-6" xMax="781" yMax="690">
      <contour>
        <pt x="781" y="338" on="1"/>
        <pt x="781" y="269" on="0"/>
        <pt x="734" y="144" on="0"/>
        <pt x="638" y="49" on="0"/>
        <pt x="495" y="-6" on="0"/>
        <pt x="399" y="-6" on="1"/>
        <pt x="382" y="-6" on="0"/>
        <pt x="335" y="-5" on="0"/>
        <pt x="284" y="-4" on="0"/>
        <pt x="235" y="-3" on="0"/>
        <pt x="218" y="-3" on="1"/>
        <pt x="200" y="-3" on="0"/>
        <pt x="152" y="-3" on="0"/>
        <pt x="101" y="-4" on="0"/>
        <pt x="53" y="-5" on="0"/>
        <pt x="37" y="-6" on="1"/>
        <pt x="29" y="-6" on="0"/>
        <pt x="29" y="8" on="1"/>
        <pt x="29" y="20" on="0"/>
        <pt x="37" y="22" on="1"/>
        <pt x="73" y="26" on="0"/>
        <pt x="115" y="39" on="0"/>
        <pt x="135" y="59" on="0"/>
        <pt x="140" y="87" on="0"/>
        <pt x="140" y="106" on="1"/>
        <pt x="140" y="577" on="1"/>
        <pt x="140" y="596" on="0"/>
        <pt x="135" y="624" on="0"/>
        <pt x="115" y="644" on="0"/>
        <pt x="73" y="657" on="0"/>
        <pt x="37" y="661" on="1"/>
        <pt x="29" y="663" on="0"/>
        <pt x="29" y="675" on="1"/>
        <pt x="29" y="681" on="0"/>
        <pt x="33" y="690" on="0"/>
        <pt x="37" y="690" on="1"/>
        <pt x="53" y="689" on="0"/>
        <pt x="101" y="687" on="0"/>
        <pt x="152" y="686" on="0"/>
        <pt x="200" y="686" on="0"/>
        <pt x="218" y="686" on="1"/>
        <pt x="235" y="686" on="0"/>
        <pt x="284" y="687" on="0"/>
        <pt x="335" y="688" on="0"/>
        <pt x="382" y="689" on="0"/>
        <pt x="399" y="689" on="1"/>
        <pt x="489" y="689" on="0"/>
        <pt x="631" y="634" on="0"/>
        <pt x="729" y="539" on="0"/>
        <pt x="781" y="411" on="0"/>
      </contour>
      <contour>
        <pt x="737" y="342" on="1"/>
        <pt x="737" y="399" on="0"/>
        <pt x="704" y="503" on="0"/>
        <pt x="638" y="587" on="0"/>
        <pt x="541" y="649" on="0"/>
        <pt x="477" y="664" on="1"/>
        <pt x="477" y="663" on="1"/>
        <pt x="523" y="649" on="0"/>
        <pt x="602" y="590" on="0"/>
        <pt x="661" y="507" on="0"/>
        <pt x="694" y="402" on="0"/>
        <pt x="694" y="342" on="1"/>
        <pt x="694" y="282" on="0"/>
        <pt x="660" y="177" on="0"/>
        <pt x="601" y="93" on="0"/>
        <pt x="519" y="33" on="0"/>
        <pt x="471" y="18" on="1"/>
        <pt x="471" y="17" on="1"/>
        <pt x="535" y="32" on="0"/>
        <pt x="634" y="94" on="0"/>
        <pt x="702" y="179" on="0"/>
        <pt x="737" y="284" on="0"/>
      </contour>
      <contour>
        <pt x="671" y="338" on="1"/>
        <pt x="671" y="407" on="0"/>
        <pt x="629" y="525" on="0"/>
        <pt x="554" y="610" on="0"/>
        <pt x="453" y="657" on="0"/>
        <pt x="395" y="656" on="1"/>
        <pt x="301" y="654" on="1"/>
        <pt x="290" y="654" on="0"/>
        <pt x="269" y="649" on="0"/>
        <pt x="253" y="637" on="0"/>
        <pt x="242" y="614" on="0"/>
        <pt x="242" y="596" on="1"/>
        <pt x="242" y="87" on="1"/>
        <pt x="242" y="69" on="0"/>
        <pt x="253" y="46" on="0"/>
        <pt x="269" y="34" on="0"/>
        <pt x="290" y="29" on="0"/>
        <pt x="301" y="29" on="1"/>
        <pt x="395" y="27" on="1"/>
        <pt x="452" y="27" on="0"/>
        <pt x="553" y="73" on="0"/>
        <pt x="628" y="156" on="0"/>
        <pt x="671" y="270" on="0"/>
      </contour>
      <contour>
        <pt x="237" y="18" on="1"/>
        <pt x="212" y="23" on="0"/>
        <pt x="198" y="57" on="0"/>
        <pt x="198" y="81" on="1"/>
        <pt x="198" y="592" on="1"/>
        <pt x="198" y="604" on="0"/>
        <pt x="199" y="629" on="0"/>
        <pt x="207" y="649" on="0"/>
        <pt x="223" y="663" on="0"/>
        <pt x="237" y="665" on="1"/>
        <pt x="237" y="666" on="1"/>
        <pt x="228" y="665" on="0"/>
        <pt x="216" y="664" on="0"/>
        <pt x="205" y="664" on="0"/>
        <pt x="191" y="664" on="0"/>
        <pt x="179" y="664" on="1"/>
        <pt x="156" y="664" on="0"/>
        <pt x="123" y="665" on="0"/>
        <pt x="106" y="667" on="1"/>
        <pt x="106" y="666" on="1"/>
        <pt x="135" y="659" on="0"/>
        <pt x="160" y="616" on="0"/>
        <pt x="160" y="592" on="1"/>
        <pt x="160" y="91" on="1"/>
        <pt x="160" y="66" on="0"/>
        <pt x="134" y="23" on="0"/>
        <pt x="106" y="17" on="1"/>
        <pt x="106" y="16" on="1"/>
        <pt x="124" y="18" on="0"/>
        <pt x="156" y="19" on="0"/>
        <pt x="179" y="19" on="1"/>
        <pt x="202" y="19" on="0"/>
        <pt x="220" y="19" on="0"/>
        <pt x="237" y="17" on="1"/>
      </contour>
    </TTGlyph>
    <TTGlyph name="Dcaron" xMin="29" yMin="-6" xMax="781" yMax="918">
      <component glyphName="D" x="0" y="0" flags="0x204"/>
      <component glyphName="caron" x="220" y="0" flags="0x4"/>
    </TTGlyph>
    <TTGlyph name="Dcroat" xMin="9" yMin="-9" xMax="782" yMax="687">
      <contour>
        <pt x="782" y="335" on="1"/>
        <pt x="782" y="266" on="0"/>
        <pt x="734" y="141" on="0"/>
        <pt x="639" y="47" on="0"/>
        <pt x="495" y="-9" on="0"/>
        <pt x="399" y="-9" on="1"/>
        <pt x="382" y="-9" on="0"/>
        <pt x="335" y="-8" on="0"/>
        <pt x="284" y="-6" on="0"/>
        <pt x="236" y="-5" on="0"/>
        <pt x="218" y="-5" on="1"/>
        <pt x="201" y="-5" on="0"/>
        <pt x="152" y="-5" on="0"/>
        <pt x="101" y="-6" on="0"/>
        <pt x="53" y="-8" on="0"/>
        <pt x="37" y="-9" on="1"/>
        <pt x="29" y="-9" on="0"/>
        <pt x="29" y="5" on="1"/>
        <pt x="29" y="19" on="0"/>
        <pt x="37" y="19" on="1"/>
        <pt x="73" y="23" on="0"/>
        <pt x="115" y="37" on="0"/>
        <pt x="136" y="56" on="0"/>
        <pt x="141" y="84" on="0"/>
        <pt x="141" y="104" on="1"/>
        <pt x="141" y="312" on="1"/>
        <pt x="21" y="308" on="1"/>
        <pt x="15" y="308" on="0"/>
        <pt x="9" y="323" on="0"/>
        <pt x="9" y="335" on="1"/>
        <pt x="9" y="346" on="0"/>
        <pt x="16" y="362" on="0"/>
        <pt x="21" y="362" on="1"/>
        <pt x="141" y="362" on="1"/>
        <pt x="141" y="574" on="1"/>
        <pt x="141" y="593" on="0"/>
        <pt x="136" y="622" on="0"/>
        <pt x="115" y="642" on="0"/>
        <pt x="73" y="655" on="0"/>
        <pt x="37" y="659" on="1"/>
        <pt x="29" y="661" on="0"/>
        <pt x="29" y="673" on="1"/>
        <pt x="29" y="687" on="0"/>
        <pt x="37" y="687" on="1"/>
        <pt x="53" y="686" on="0"/>
        <pt x="101" y="685" on="0"/>
        <pt x="152" y="684" on="0"/>
        <pt x="201" y="683" on="0"/>
        <pt x="218" y="683" on="1"/>
        <pt x="236" y="683" on="0"/>
        <pt x="284" y="684" on="0"/>
        <pt x="335" y="686" on="0"/>
        <pt x="382" y="687" on="0"/>
        <pt x="399" y="687" on="1"/>
        <pt x="489" y="687" on="0"/>
        <pt x="631" y="632" on="0"/>
        <pt x="730" y="536" on="0"/>
        <pt x="782" y="408" on="0"/>
      </contour>
      <contour>
        <pt x="672" y="335" on="1"/>
        <pt x="672" y="404" on="0"/>
        <pt x="630" y="522" on="0"/>
        <pt x="555" y="607" on="0"/>
        <pt x="454" y="654" on="0"/>
        <pt x="395" y="653" on="1"/>
        <pt x="301" y="651" on="1"/>
        <pt x="291" y="651" on="0"/>
        <pt x="270" y="647" on="0"/>
        <pt x="253" y="634" on="0"/>
        <pt x="242" y="612" on="0"/>
        <pt x="242" y="594" on="1"/>
        <pt x="242" y="362" on="1"/>
        <pt x="370" y="362" on="1"/>
        <pt x="376" y="362" on="0"/>
        <pt x="383" y="346" on="0"/>
        <pt x="383" y="335" on="1"/>
        <pt x="383" y="323" on="0"/>
        <pt x="376" y="308" on="0"/>
        <pt x="370" y="308" on="1"/>
        <pt x="243" y="312" on="1"/>
        <pt x="242" y="85" on="1"/>
        <pt x="242" y="67" on="0"/>
        <pt x="253" y="44" on="0"/>
        <pt x="270" y="32" on="0"/>
        <pt x="291" y="27" on="0"/>
        <pt x="301" y="27" on="1"/>
        <pt x="395" y="25" on="1"/>
        <pt x="452" y="25" on="0"/>
        <pt x="553" y="71" on="0"/>
        <pt x="628" y="153" on="0"/>
        <pt x="672" y="267" on="0"/>
      </contour>
      <contour>
        <pt x="349" y="335" on="1"/>
        <pt x="349" y="341" on="0"/>
        <pt x="345" y="345" on="1"/>
        <pt x="199" y="345" on="1"/>
        <pt x="199" y="598" on="1"/>
        <pt x="199" y="624" on="0"/>
        <pt x="214" y="658" on="0"/>
        <pt x="237" y="663" on="1"/>
        <pt x="237" y="664" on="1"/>
        <pt x="223" y="662" on="0"/>
        <pt x="199" y="661" on="0"/>
        <pt x="180" y="661" on="1"/>
        <pt x="157" y="661" on="0"/>
        <pt x="124" y="663" on="0"/>
        <pt x="107" y="665" on="1"/>
        <pt x="107" y="664" on="1"/>
        <pt x="136" y="657" on="0"/>
        <pt x="161" y="614" on="0"/>
        <pt x="161" y="590" on="1"/>
        <pt x="161" y="345" on="1"/>
        <pt x="32" y="345" on="1"/>
        <pt x="29" y="340" on="0"/>
        <pt x="29" y="335" on="1"/>
        <pt x="29" y="329" on="0"/>
        <pt x="32" y="326" on="1"/>
        <pt x="161" y="329" on="1"/>
        <pt x="161" y="89" on="1"/>
        <pt x="161" y="64" on="0"/>
        <pt x="135" y="20" on="0"/>
        <pt x="107" y="15" on="1"/>
        <pt x="107" y="14" on="1"/>
        <pt x="124" y="16" on="0"/>
        <pt x="157" y="17" on="0"/>
        <pt x="180" y="17" on="1"/>
        <pt x="199" y="17" on="0"/>
        <pt x="224" y="17" on="0"/>
        <pt x="238" y="15" on="1"/>
        <pt x="238" y="16" on="1"/>
        <pt x="214" y="19" on="0"/>
        <pt x="199" y="54" on="0"/>
        <pt x="199" y="81" on="1"/>
        <pt x="199" y="330" on="1"/>
        <pt x="346" y="326" on="1"/>
        <pt x="349" y="329" on="0"/>
      </contour>
      <contour>
        <pt x="738" y="339" on="1"/>
        <pt x="738" y="397" on="0"/>
        <pt x="702" y="504" on="0"/>
        <pt x="633" y="590" on="0"/>
        <pt x="532" y="651" on="0"/>
        <pt x="466" y="664" on="1"/>
        <pt x="466" y="663" on="1"/>
        <pt x="514" y="651" on="0"/>
        <pt x="598" y="593" on="0"/>
        <pt x="659" y="508" on="0"/>
        <pt x="695" y="400" on="0"/>
        <pt x="695" y="339" on="1"/>
        <pt x="695" y="278" on="0"/>
        <pt x="660" y="170" on="0"/>
        <pt x="597" y="84" on="0"/>
        <pt x="511" y="25" on="0"/>
        <pt x="461" y="13" on="1"/>
        <pt x="461" y="12" on="1"/>
        <pt x="527" y="25" on="0"/>
        <pt x="631" y="87" on="0"/>
        <pt x="701" y="174" on="0"/>
        <pt x="738" y="281" on="0"/>
      </contour>
    </TTGlyph>
    <TTGlyph name="E" xMin="29" yMin="-6" xMax="642" yMax="690">
      <contour>
        <pt x="640" y="159" on="1"/>
        <pt x="620" y="117" on="0"/>
        <pt x="589" y="41" on="0"/>
        <pt x="574" y="-6" on="1"/>
        <pt x="550" y="-5" on="0"/>
        <pt x="479" y="-3" on="0"/>
        <pt x="403" y="-1" on="0"/>
        <pt x="330" y="0" on="0"/>
        <pt x="305" y="0" on="1"/>
        <pt x="280" y="0" on="0"/>
        <pt x="208" y="-1" on="0"/>
        <pt x="132" y="-3" on="0"/>
        <pt x="61" y="-5" on="0"/>
        <pt x="37" y="-6" on="1"/>
        <pt x="29" y="-6" on="0"/>
        <pt x="29" y="8" on="1"/>
        <pt x="29" y="20" on="0"/>
        <pt x="37" y="22" on="1"/>
        <pt x="73" y="26" on="0"/>
        <pt x="115" y="39" on="0"/>
        <pt x="135" y="59" on="0"/>
        <pt x="140" y="87" on="0"/>
        <pt x="140" y="106" on="1"/>
        <pt x="140" y="577" on="1"/>
        <pt x="140" y="596" on="0"/>
        <pt x="135" y="624" on="0"/>
        <pt x="115" y="644" on="0"/>
        <pt x="73" y="657" on="0"/>
        <pt x="37" y="661" on="1"/>
        <pt x="29" y="663" on="0"/>
        <pt x="29" y="675" on="1"/>
        <pt x="29" y="681" on="0"/>
        <pt x="33" y="690" on="0"/>
        <pt x="37" y="690" on="1"/>
        <pt x="61" y="689" on="0"/>
        <pt x="129" y="687" on="0"/>
        <pt x="201" y="685" on="0"/>
        <pt x="270" y="684" on="0"/>
        <pt x="295" y="684" on="1"/>
        <pt x="320" y="684" on="0"/>
        <pt x="390" y="685" on="0"/>
        <pt x="462" y="687" on="0"/>
        <pt x="530" y="689" on="0"/>
        <pt x="554" y="690" on="1"/>
        <pt x="560" y="648" on="0"/>
        <pt x="575" y="580" on="0"/>
        <pt x="587" y="538" on="1"/>
        <pt x="589" y="533" on="0"/>
        <pt x="578" y="527" on="0"/>
        <pt x="570" y="527" on="1"/>
        <pt x="561" y="527" on="0"/>
        <pt x="559" y="534" on="1"/>
        <pt x="548" y="569" on="0"/>
        <pt x="514" y="614" on="0"/>
        <pt x="472" y="641" on="0"/>
        <pt x="425" y="652" on="0"/>
        <pt x="401" y="652" on="1"/>
        <pt x="300" y="652" on="1"/>
        <pt x="290" y="652" on="0"/>
        <pt x="270" y="647" on="0"/>
        <pt x="253" y="634" on="0"/>
        <pt x="242" y="610" on="0"/>
        <pt x="242" y="592" on="1"/>
        <pt x="242" y="369" on="1"/>
        <pt x="368" y="369" on="1"/>
        <pt x="387" y="369" on="0"/>
        <pt x="418" y="375" on="0"/>
        <pt x="441" y="396" on="0"/>
        <pt x="456" y="438" on="0"/>
        <pt x="461" y="474" on="1"/>
        <pt x="461" y="482" on="0"/>
        <pt x="475" y="482" on="1"/>
        <pt x="480" y="482" on="0"/>
        <pt x="489" y="478" on="0"/>
        <pt x="489" y="474" on="1"/>
        <pt x="489" y="455" on="0"/>
        <pt x="487" y="425" on="0"/>
        <pt x="485" y="397" on="0"/>
        <pt x="483" y="369" on="0"/>
        <pt x="483" y="351" on="1"/>
        <pt x="483" y="333" on="0"/>
        <pt x="485" y="304" on="0"/>
        <pt x="487" y="276" on="0"/>
        <pt x="489" y="246" on="0"/>
        <pt x="489" y="227" on="1"/>
        <pt x="489" y="223" on="0"/>
        <pt x="480" y="219" on="0"/>
        <pt x="475" y="219" on="1"/>
        <pt x="461" y="219" on="0"/>
        <pt x="461" y="227" on="1"/>
        <pt x="456" y="263" on="0"/>
        <pt x="441" y="307" on="0"/>
        <pt x="418" y="330" on="0"/>
        <pt x="387" y="337" on="0"/>
        <pt x="368" y="337" on="1"/>
        <pt x="242" y="337" on="1"/>
        <pt x="242" y="91" on="1"/>
        <pt x="242" y="73" on="0"/>
        <pt x="253" y="50" on="0"/>
        <pt x="270" y="37" on="0"/>
        <pt x="290" y="32" on="0"/>
        <pt x="300" y="32" on="1"/>
        <pt x="409" y="32" on="1"/>
        <pt x="439" y="32" on="0"/>
        <pt x="499" y="52" on="0"/>
        <pt x="554" y="88" on="0"/>
        <pt x="599" y="138" on="0"/>
        <pt x="613" y="168" on="1"/>
        <pt x="616" y="172" on="0"/>
        <pt x="622" y="172" on="1"/>
        <pt x="630" y="172" on="0"/>
        <pt x="642" y="163" on="0"/>
      </contour>
      <contour>
        <pt x="252" y="19" on="1"/>
        <pt x="223" y="24" on="0"/>
        <pt x="198" y="65" on="0"/>
        <pt x="198" y="89" on="1"/>
        <pt x="198" y="592" on="1"/>
        <pt x="198" y="617" on="0"/>
        <pt x="220" y="655" on="0"/>
        <pt x="245" y="663" on="1"/>
        <pt x="245" y="664" on="1"/>
        <pt x="214" y="664" on="0"/>
        <pt x="187" y="665" on="1"/>
        <pt x="164" y="666" on="0"/>
        <pt x="117" y="666" on="0"/>
        <pt x="106" y="667" on="1"/>
        <pt x="106" y="666" on="1"/>
        <pt x="135" y="659" on="0"/>
        <pt x="160" y="616" on="0"/>
        <pt x="160" y="592" on="1"/>
        <pt x="160" y="89" on="1"/>
        <pt x="160" y="64" on="0"/>
        <pt x="134" y="21" on="0"/>
        <pt x="106" y="15" on="1"/>
        <pt x="106" y="14" on="1"/>
        <pt x="124" y="16" on="0"/>
        <pt x="156" y="18" on="0"/>
        <pt x="179" y="18" on="1"/>
        <pt x="252" y="18" on="1"/>
      </contour>
      <contour>
        <pt x="565" y="74" on="1"/>
        <pt x="542" y="55" on="0"/>
        <pt x="479" y="22" on="0"/>
        <pt x="447" y="18" on="1"/>
        <pt x="447" y="17" on="1"/>
        <pt x="543" y="15" on="1"/>
      </contour>
      <contour>
        <pt x="521" y="668" on="1"/>
        <pt x="505" y="667" on="0"/>
        <pt x="457" y="666" on="0"/>
        <pt x="437" y="666" on="1"/>
        <pt x="437" y="665" on="1"/>
        <pt x="466" y="664" on="0"/>
        <pt x="511" y="640" on="0"/>
        <pt x="529" y="626" on="1"/>
      </contour>
      <contour>
        <pt x="452" y="322" on="1"/>
        <pt x="451" y="329" on="0"/>
        <pt x="451" y="343" on="0"/>
        <pt x="451" y="351" on="1"/>
        <pt x="451" y="359" on="0"/>
        <pt x="451" y="373" on="0"/>
        <pt x="452" y="380" on="1"/>
        <pt x="443" y="368" on="0"/>
        <pt x="418" y="354" on="0"/>
        <pt x="404" y="352" on="1"/>
        <pt x="404" y="351" on="1"/>
        <pt x="435" y="348" on="0"/>
      </contour>
    </TTGlyph>
    <TTGlyph name="Eacute" xMin="29" yMin="-6" xMax="642" yMax="924">
      <component glyphName="E" x="0" y="0" flags="0x204"/>
      <component glyphName="acute" x="221" y="0" flags="0x4"/>
    </TTGlyph>
    <TTGlyph name="Ebreve" xMin="29" yMin="-6" xMax="642" yMax="907">
      <component glyphName="E" x="0" y="0" flags="0x204"/>
      <component glyphName="breve" x="149" y="0" flags="0x4"/>
    </TTGlyph>
    <TTGlyph name="Ecaron" xMin="29" yMin="-6" xMax="642" yMax="918">
      <component glyphName="E" x="0" y="0" flags="0x204"/>
      <component glyphName="caron" x="149" y="0" flags="0x4"/>
    </TTGlyph>
    <TTGlyph name="Ecircumflex" xMin="29" yMin="-6" xMax="642" yMax="910">
      <component glyphName="E" x="0" y="0" flags="0x204"/>
      <component glyphName="circumflex" x="149" y="0" flags="0x4"/>
    </TTGlyph>
    <TTGlyph name="Edieresis" xMin="29" yMin="-6" xMax="642" yMax="868">
      <component glyphName="E" x="0" y="0" flags="0x204"/>
      <component glyphName="dieresis" x="149" y="0" flags="0x4"/>
    </TTGlyph>
    <TTGlyph name="Edotaccent" xMin="29" yMin="-6" xMax="642" yMax="868">
      <component glyphName="E" x="0" y="0" flags="0x204"/>
      <component glyphName="dotaccent" x="149" y="0" flags="0x4"/>
    </TTGlyph>
    <TTGlyph name="Egrave" xMin="29" yMin="-6" xMax="642" yMax="924">
      <component glyphName="E" x="0" y="0" flags="0x204"/>
      <component glyphName="grave" x="110" y="0" flags="0x4"/>
    </TTGlyph>
    <TTGlyph name="Emacron" xMin="29" yMin="-6" xMax="642" yMax="844">
      <component glyphName="E" x="0" y="0" flags="0x204"/>
      <component glyphName="macron" x="150" y="0" flags="0x4"/>
    </TTGlyph>
    <TTGlyph name="Eogonek" xMin="29" yMin="-225" xMax="642" yMax="690">
      <contour>
        <pt x="640" y="159" on="1"/>
        <pt x="620" y="117" on="0"/>
        <pt x="589" y="41" on="0"/>
        <pt x="574" y="-6" on="1"/>
        <pt x="561" y="-5" on="0"/>
        <pt x="529" y="-4" on="0"/>
        <pt x="510" y="-4" on="1"/>
        <pt x="453" y="-63" on="0"/>
        <pt x="453" y="-122" on="1"/>
        <pt x="453" y="-174" on="0"/>
        <pt x="510" y="-174" on="1"/>
        <pt x="524" y="-174" on="0"/>
        <pt x="547" y="-162" on="0"/>
        <pt x="558" y="-155" on="1"/>
        <pt x="561" y="-153" on="0"/>
        <pt x="569" y="-158" on="0"/>
        <pt x="572" y="-163" on="1"/>
        <pt x="577" y="-172" on="0"/>
        <pt x="573" y="-179" on="1"/>
        <pt x="557" y="-201" on="0"/>
        <pt x="508" y="-225" on="0"/>
        <pt x="472" y="-225" on="1"/>
        <pt x="449" y="-225" on="0"/>
        <pt x="417" y="-211" on="0"/>
        <pt x="396" y="-188" on="0"/>
        <pt x="386" y="-159" on="0"/>
        <pt x="386" y="-144" on="1"/>
        <pt x="386" y="-77" on="0"/>
        <pt x="467" y="-2" on="1"/>
        <pt x="422" y="-1" on="0"/>
        <pt x="334" y="0" on="0"/>
        <pt x="305" y="0" on="1"/>
        <pt x="280" y="0" on="0"/>
        <pt x="208" y="-1" on="0"/>
        <pt x="132" y="-3" on="0"/>
        <pt x="61" y="-5" on="0"/>
        <pt x="37" y="-6" on="1"/>
        <pt x="29" y="-6" on="0"/>
        <pt x="29" y="8" on="1"/>
        <pt x="29" y="20" on="0"/>
        <pt x="37" y="22" on="1"/>
        <pt x="73" y="26" on="0"/>
        <pt x="115" y="39" on="0"/>
        <pt x="135" y="59" on="0"/>
        <pt x="140" y="87" on="0"/>
        <pt x="140" y="106" on="1"/>
        <pt x="140" y="577" on="1"/>
        <pt x="140" y="596" on="0"/>
        <pt x="135" y="624" on="0"/>
        <pt x="115" y="644" on="0"/>
        <pt x="73" y="657" on="0"/>
        <pt x="37" y="661" on="1"/>
        <pt x="29" y="663" on="0"/>
        <pt x="29" y="675" on="1"/>
        <pt x="29" y="681" on="0"/>
        <pt x="33" y="690" on="0"/>
        <pt x="37" y="690" on="1"/>
        <pt x="61" y="689" on="0"/>
        <pt x="129" y="687" on="0"/>
        <pt x="201" y="685" on="0"/>
        <pt x="270" y="684" on="0"/>
        <pt x="295" y="684" on="1"/>
        <pt x="320" y="684" on="0"/>
        <pt x="390" y="685" on="0"/>
        <pt x="462" y="687" on="0"/>
        <pt x="530" y="689" on="0"/>
        <pt x="554" y="690" on="1"/>
        <pt x="560" y="648" on="0"/>
        <pt x="575" y="580" on="0"/>
        <pt x="587" y="538" on="1"/>
        <pt x="589" y="533" on="0"/>
        <pt x="578" y="527" on="0"/>
        <pt x="570" y="527" on="1"/>
        <pt x="561" y="527" on="0"/>
        <pt x="559" y="534" on="1"/>
        <pt x="548" y="569" on="0"/>
        <pt x="514" y="614" on="0"/>
        <pt x="472" y="641" on="0"/>
        <pt x="425" y="652" on="0"/>
        <pt x="401" y="652" on="1"/>
        <pt x="300" y="652" on="1"/>
        <pt x="290" y="652" on="0"/>
        <pt x="270" y="647" on="0"/>
        <pt x="253" y="634" on="0"/>
        <pt x="242" y="610" on="0"/>
        <pt x="242" y="592" on="1"/>
        <pt x="242" y="369" on="1"/>
        <pt x="368" y="369" on="1"/>
        <pt x="387" y="369" on="0"/>
        <pt x="418" y="375" on="0"/>
        <pt x="441" y="396" on="0"/>
        <pt x="456" y="438" on="0"/>
        <pt x="461" y="474" on="1"/>
        <pt x="461" y="482" on="0"/>
        <pt x="475" y="482" on="1"/>
        <pt x="480" y="482" on="0"/>
        <pt x="489" y="478" on="0"/>
        <pt x="489" y="474" on="1"/>
        <pt x="489" y="455" on="0"/>
        <pt x="487" y="425" on="0"/>
        <pt x="485" y="397" on="0"/>
        <pt x="483" y="369" on="0"/>
        <pt x="483" y="351" on="1"/>
        <pt x="483" y="333" on="0"/>
        <pt x="485" y="304" on="0"/>
        <pt x="487" y="276" on="0"/>
        <pt x="489" y="246" on="0"/>
        <pt x="489" y="227" on="1"/>
        <pt x="489" y="223" on="0"/>
        <pt x="480" y="219" on="0"/>
        <pt x="475" y="219" on="1"/>
        <pt x="461" y="219" on="0"/>
        <pt x="461" y="227" on="1"/>
        <pt x="456" y="263" on="0"/>
        <pt x="441" y="307" on="0"/>
        <pt x="418" y="330" on="0"/>
        <pt x="387" y="337" on="0"/>
        <pt x="368" y="337" on="1"/>
        <pt x="242" y="337" on="1"/>
        <pt x="242" y="91" on="1"/>
        <pt x="242" y="73" on="0"/>
        <pt x="253" y="50" on="0"/>
        <pt x="270" y="37" on="0"/>
        <pt x="290" y="32" on="0"/>
        <pt x="300" y="32" on="1"/>
        <pt x="409" y="32" on="1"/>
        <pt x="439" y="32" on="0"/>
        <pt x="499" y="52" on="0"/>
        <pt x="554" y="88" on="0"/>
        <pt x="599" y="138" on="0"/>
        <pt x="613" y="168" on="1"/>
        <pt x="616" y="172" on="0"/>
        <pt x="622" y="172" on="1"/>
        <pt x="630" y="172" on="0"/>
        <pt x="642" y="163" on="0"/>
      </contour>
      <contour>
        <pt x="252" y="19" on="1"/>
        <pt x="223" y="24" on="0"/>
        <pt x="198" y="65" on="0"/>
        <pt x="198" y="89" on="1"/>
        <pt x="198" y="592" on="1"/>
        <pt x="198" y="617" on="0"/>
        <pt x="220" y="655" on="0"/>
        <pt x="245" y="663" on="1"/>
        <pt x="245" y="664" on="1"/>
        <pt x="214" y="664" on="0"/>
        <pt x="187" y="665" on="1"/>
        <pt x="164" y="666" on="0"/>
        <pt x="117" y="666" on="0"/>
        <pt x="106" y="667" on="1"/>
        <pt x="106" y="666" on="1"/>
        <pt x="135" y="659" on="0"/>
        <pt x="160" y="616" on="0"/>
        <pt x="160" y="592" on="1"/>
        <pt x="160" y="89" on="1"/>
        <pt x="160" y="64" on="0"/>
        <pt x="134" y="21" on="0"/>
        <pt x="106" y="15" on="1"/>
        <pt x="106" y="14" on="1"/>
        <pt x="124" y="16" on="0"/>
        <pt x="156" y="18" on="0"/>
        <pt x="179" y="18" on="1"/>
        <pt x="252" y="18" on="1"/>
      </contour>
      <contour>
        <pt x="537" y="-187" on="1"/>
        <pt x="529" y="-192" on="0"/>
        <pt x="506" y="-196" on="0"/>
        <pt x="498" y="-196" on="1"/>
        <pt x="457" y="-196" on="0"/>
        <pt x="425" y="-154" on="0"/>
        <pt x="425" y="-126" on="1"/>
        <pt x="425" y="-101" on="0"/>
        <pt x="455" y="-38" on="0"/>
        <pt x="481" y="-9" on="1"/>
        <pt x="406" y="-81" on="0"/>
        <pt x="406" y="-144" on="1"/>
        <pt x="406" y="-169" on="0"/>
        <pt x="441" y="-205" on="0"/>
        <pt x="476" y="-205" on="1"/>
        <pt x="489" y="-205" on="0"/>
        <pt x="527" y="-196" on="0"/>
      </contour>
      <contour>
        <pt x="565" y="74" on="1"/>
        <pt x="542" y="55" on="0"/>
        <pt x="479" y="22" on="0"/>
        <pt x="447" y="18" on="1"/>
        <pt x="447" y="17" on="1"/>
        <pt x="543" y="15" on="1"/>
      </contour>
      <contour>
        <pt x="521" y="668" on="1"/>
        <pt x="505" y="667" on="0"/>
        <pt x="457" y="666" on="0"/>
        <pt x="437" y="666" on="1"/>
        <pt x="437" y="665" on="1"/>
        <pt x="466" y="664" on="0"/>
        <pt x="511" y="640" on="0"/>
        <pt x="529" y="626" on="1"/>
      </contour>
      <contour>
        <pt x="452" y="322" on="1"/>
        <pt x="451" y="329" on="0"/>
        <pt x="451" y="343" on="0"/>
        <pt x="451" y="351" on="1"/>
        <pt x="451" y="359" on="0"/>
        <pt x="451" y="373" on="0"/>
        <pt x="452" y="380" on="1"/>
        <pt x="443" y="368" on="0"/>
        <pt x="418" y="354" on="0"/>
        <pt x="404" y="352" on="1"/>
        <pt x="404" y="351" on="1"/>
        <pt x="435" y="348" on="0"/>
      </contour>
    </TTGlyph>
    <TTGlyph name="Eth" xMin="9" yMin="-9" xMax="782" yMax="687">
      <contour>
        <pt x="782" y="335" on="1"/>
        <pt x="782" y="266" on="0"/>
        <pt x="734" y="141" on="0"/>
        <pt x="639" y="47" on="0"/>
        <pt x="495" y="-9" on="0"/>
        <pt x="399" y="-9" on="1"/>
        <pt x="382" y="-9" on="0"/>
        <pt x="335" y="-8" on="0"/>
        <pt x="284" y="-6" on="0"/>
        <pt x="236" y="-5" on="0"/>
        <pt x="218" y="-5" on="1"/>
        <pt x="201" y="-5" on="0"/>
        <pt x="152" y="-5" on="0"/>
        <pt x="101" y="-6" on="0"/>
        <pt x="53" y="-8" on="0"/>
        <pt x="37" y="-9" on="1"/>
        <pt x="29" y="-9" on="0"/>
        <pt x="29" y="5" on="1"/>
        <pt x="29" y="19" on="0"/>
        <pt x="37" y="19" on="1"/>
        <pt x="73" y="23" on="0"/>
        <pt x="115" y="37" on="0"/>
        <pt x="136" y="56" on="0"/>
        <pt x="141" y="84" on="0"/>
        <pt x="141" y="104" on="1"/>
        <pt x="141" y="312" on="1"/>
        <pt x="21" y="308" on="1"/>
        <pt x="15" y="308" on="0"/>
        <pt x="9" y="323" on="0"/>
        <pt x="9" y="335" on="1"/>
        <pt x="9" y="346" on="0"/>
        <pt x="16" y="362" on="0"/>
        <pt x="21" y="362" on="1"/>
        <pt x="141" y="362" on="1"/>
        <pt x="141" y="574" on="1"/>
        <pt x="141" y="593" on="0"/>
        <pt x="136" y="622" on="0"/>
        <pt x="115" y="642" on="0"/>
        <pt x="73" y="655" on="0"/>
        <pt x="37" y="659" on="1"/>
        <pt x="29" y="661" on="0"/>
        <pt x="29" y="673" on="1"/>
        <pt x="29" y="687" on="0"/>
        <pt x="37" y="687" on="1"/>
        <pt x="53" y="686" on="0"/>
        <pt x="101" y="685" on="0"/>
        <pt x="152" y="684" on="0"/>
        <pt x="201" y="683" on="0"/>
        <pt x="218" y="683" on="1"/>
        <pt x="236" y="683" on="0"/>
        <pt x="284" y="684" on="0"/>
        <pt x="335" y="686" on="0"/>
        <pt x="382" y="687" on="0"/>
        <pt x="399" y="687" on="1"/>
        <pt x="489" y="687" on="0"/>
        <pt x="631" y="632" on="0"/>
        <pt x="730" y="536" on="0"/>
        <pt x="782" y="408" on="0"/>
      </contour>
      <contour>
        <pt x="672" y="335" on="1"/>
        <pt x="672" y="404" on="0"/>
        <pt x="630" y="522" on="0"/>
        <pt x="555" y="607" on="0"/>
        <pt x="454" y="654" on="0"/>
        <pt x="395" y="653" on="1"/>
        <pt x="301" y="651" on="1"/>
        <pt x="291" y="651" on="0"/>
        <pt x="270" y="647" on="0"/>
        <pt x="253" y="634" on="0"/>
        <pt x="242" y="612" on="0"/>
        <pt x="242" y="594" on="1"/>
        <pt x="242" y="362" on="1"/>
        <pt x="370" y="362" on="1"/>
        <pt x="376" y="362" on="0"/>
        <pt x="383" y="346" on="0"/>
        <pt x="383" y="335" on="1"/>
        <pt x="383" y="323" on="0"/>
        <pt x="376" y="308" on="0"/>
        <pt x="370" y="308" on="1"/>
        <pt x="243" y="312" on="1"/>
        <pt x="242" y="85" on="1"/>
        <pt x="242" y="67" on="0"/>
        <pt x="253" y="44" on="0"/>
        <pt x="270" y="32" on="0"/>
        <pt x="291" y="27" on="0"/>
        <pt x="301" y="27" on="1"/>
        <pt x="395" y="25" on="1"/>
        <pt x="452" y="25" on="0"/>
        <pt x="553" y="71" on="0"/>
        <pt x="628" y="153" on="0"/>
        <pt x="672" y="267" on="0"/>
      </contour>
      <contour>
        <pt x="349" y="335" on="1"/>
        <pt x="349" y="341" on="0"/>
        <pt x="345" y="345" on="1"/>
        <pt x="199" y="345" on="1"/>
        <pt x="199" y="598" on="1"/>
        <pt x="199" y="624" on="0"/>
        <pt x="214" y="658" on="0"/>
        <pt x="237" y="663" on="1"/>
        <pt x="237" y="664" on="1"/>
        <pt x="223" y="662" on="0"/>
        <pt x="199" y="661" on="0"/>
        <pt x="180" y="661" on="1"/>
        <pt x="157" y="661" on="0"/>
        <pt x="124" y="663" on="0"/>
        <pt x="107" y="665" on="1"/>
        <pt x="107" y="664" on="1"/>
        <pt x="136" y="657" on="0"/>
        <pt x="161" y="614" on="0"/>
        <pt x="161" y="590" on="1"/>
        <pt x="161" y="345" on="1"/>
        <pt x="32" y="345" on="1"/>
        <pt x="29" y="340" on="0"/>
        <pt x="29" y="335" on="1"/>
        <pt x="29" y="329" on="0"/>
        <pt x="32" y="326" on="1"/>
        <pt x="161" y="329" on="1"/>
        <pt x="161" y="89" on="1"/>
        <pt x="161" y="64" on="0"/>
        <pt x="135" y="20" on="0"/>
        <pt x="107" y="15" on="1"/>
        <pt x="107" y="14" on="1"/>
        <pt x="124" y="16" on="0"/>
        <pt x="157" y="17" on="0"/>
        <pt x="180" y="17" on="1"/>
        <pt x="199" y="17" on="0"/>
        <pt x="224" y="17" on="0"/>
        <pt x="238" y="15" on="1"/>
        <pt x="238" y="16" on="1"/>
        <pt x="214" y="19" on="0"/>
        <pt x="199" y="54" on="0"/>
        <pt x="199" y="81" on="1"/>
        <pt x="199" y="330" on="1"/>
        <pt x="346" y="326" on="1"/>
        <pt x="349" y="329" on="0"/>
      </contour>
      <contour>
        <pt x="738" y="339" on="1"/>
        <pt x="738" y="397" on="0"/>
        <pt x="702" y="504" on="0"/>
        <pt x="633" y="590" on="0"/>
        <pt x="532" y="651" on="0"/>
        <pt x="466" y="664" on="1"/>
        <pt x="466" y="663" on="1"/>
        <pt x="514" y="651" on="0"/>
        <pt x="598" y="593" on="0"/>
        <pt x="659" y="508" on="0"/>
        <pt x="695" y="400" on="0"/>
        <pt x="695" y="339" on="1"/>
        <pt x="695" y="278" on="0"/>
        <pt x="660" y="170" on="0"/>
        <pt x="597" y="84" on="0"/>
        <pt x="511" y="25" on="0"/>
        <pt x="461" y="13" on="1"/>
        <pt x="461" y="12" on="1"/>
        <pt x="527" y="25" on="0"/>
        <pt x="631" y="87" on="0"/>
        <pt x="701" y="174" on="0"/>
        <pt x="738" y="281" on="0"/>
      </contour>
    </TTGlyph>
    <TTGlyph name="Euro" xMin="51" yMin="-22" xMax="803" yMax="705">
      <contour>
        <pt x="803" y="179" on="1"/>
        <pt x="795" y="143" on="0"/>
        <pt x="776" y="50" on="0"/>
        <pt x="768" y="9" on="1"/>
        <pt x="745" y="9" on="0"/>
        <pt x="686" y="-1" on="0"/>
        <pt x="622" y="-12" on="0"/>
        <pt x="554" y="-22" on="0"/>
        <pt x="522" y="-22" on="1"/>
        <pt x="444" y="-22" on="0"/>
        <pt x="320" y="18" on="0"/>
        <pt x="228" y="88" on="0"/>
        <pt x="168" y="182" on="0"/>
        <pt x="153" y="236" on="1"/>
        <pt x="64" y="234" on="1"/>
        <pt x="57" y="234" on="0"/>
        <pt x="51" y="250" on="0"/>
        <pt x="51" y="260" on="1"/>
        <pt x="51" y="269" on="0"/>
        <pt x="56" y="286" on="0"/>
        <pt x="63" y="286" on="1"/>
        <pt x="143" y="284" on="1"/>
        <pt x="140" y="311" on="0"/>
        <pt x="140" y="338" on="1"/>
        <pt x="140" y="363" on="0"/>
        <pt x="143" y="387" on="1"/>
        <pt x="64" y="386" on="1"/>
        <pt x="57" y="385" on="0"/>
        <pt x="51" y="401" on="0"/>
        <pt x="51" y="411" on="1"/>
        <pt x="51" y="421" on="0"/>
        <pt x="57" y="437" on="0"/>
        <pt x="63" y="437" on="1"/>
        <pt x="153" y="435" on="1"/>
        <pt x="168" y="492" on="0"/>
        <pt x="234" y="591" on="0"/>
        <pt x="331" y="663" on="0"/>
        <pt x="456" y="705" on="0"/>
        <pt x="531" y="705" on="1"/>
        <pt x="564" y="705" on="0"/>
        <pt x="622" y="699" on="0"/>
        <pt x="675" y="693" on="0"/>
        <pt x="724" y="687" on="0"/>
        <pt x="747" y="687" on="1"/>
        <pt x="751" y="645" on="0"/>
        <pt x="763" y="558" on="0"/>
        <pt x="770" y="517" on="1"/>
        <pt x="770" y="513" on="0"/>
        <pt x="760" y="509" on="0"/>
        <pt x="754" y="509" on="1"/>
        <pt x="743" y="509" on="0"/>
        <pt x="742" y="517" on="1"/>
        <pt x="734" y="548" on="0"/>
        <pt x="696" y="604" on="0"/>
        <pt x="641" y="647" on="0"/>
        <pt x="569" y="673" on="0"/>
        <pt x="527" y="673" on="1"/>
        <pt x="478" y="673" on="0"/>
        <pt x="392" y="637" on="0"/>
        <pt x="323" y="574" on="0"/>
        <pt x="273" y="487" on="0"/>
        <pt x="261" y="435" on="1"/>
        <pt x="539" y="437" on="1"/>
        <pt x="544" y="437" on="0"/>
        <pt x="551" y="422" on="0"/>
        <pt x="551" y="411" on="1"/>
        <pt x="551" y="401" on="0"/>
        <pt x="546" y="385" on="0"/>
        <pt x="539" y="386" on="1"/>
        <pt x="253" y="387" on="1"/>
        <pt x="250" y="363" on="0"/>
        <pt x="250" y="338" on="1"/>
        <pt x="250" y="311" on="0"/>
        <pt x="253" y="284" on="1"/>
        <pt x="539" y="286" on="1"/>
        <pt x="544" y="286" on="0"/>
        <pt x="551" y="273" on="0"/>
        <pt x="551" y="260" on="1"/>
        <pt x="551" y="234" on="0"/>
        <pt x="539" y="234" on="1"/>
        <pt x="263" y="236" on="1"/>
        <pt x="276" y="187" on="0"/>
        <pt x="326" y="104" on="0"/>
        <pt x="393" y="44" on="0"/>
        <pt x="476" y="10" on="0"/>
        <pt x="522" y="10" on="1"/>
        <pt x="618" y="10" on="0"/>
        <pt x="741" y="102" on="0"/>
        <pt x="775" y="179" on="1"/>
        <pt x="780" y="187" on="0"/>
        <pt x="789" y="187" on="1"/>
        <pt x="803" y="187" on="0"/>
      </contour>
      <contour>
        <pt x="421" y="672" on="1"/>
        <pt x="361" y="657" on="0"/>
        <pt x="265" y="590" on="0"/>
        <pt x="198" y="501" on="0"/>
        <pt x="163" y="394" on="0"/>
        <pt x="163" y="338" on="1"/>
        <pt x="163" y="284" on="0"/>
        <pt x="194" y="180" on="0"/>
        <pt x="255" y="92" on="0"/>
        <pt x="347" y="27" on="0"/>
        <pt x="408" y="11" on="1"/>
        <pt x="408" y="12" on="1"/>
        <pt x="366" y="27" on="0"/>
        <pt x="293" y="88" on="0"/>
        <pt x="238" y="174" on="0"/>
        <pt x="206" y="281" on="0"/>
        <pt x="206" y="342" on="1"/>
        <pt x="206" y="402" on="0"/>
        <pt x="240" y="509" on="0"/>
        <pt x="298" y="595" on="0"/>
        <pt x="377" y="656" on="0"/>
        <pt x="421" y="671" on="1"/>
      </contour>
      <contour>
        <pt x="713" y="668" on="1"/>
        <pt x="687" y="670" on="0"/>
        <pt x="628" y="679" on="0"/>
        <pt x="599" y="682" on="1"/>
        <pt x="599" y="681" on="1"/>
        <pt x="617" y="677" on="0"/>
        <pt x="653" y="660" on="0"/>
        <pt x="686" y="637" on="0"/>
        <pt x="712" y="612" on="0"/>
        <pt x="720" y="600" on="1"/>
        <pt x="721" y="600" on="1"/>
      </contour>
      <contour>
        <pt x="748" y="94" on="1"/>
        <pt x="726" y="65" on="0"/>
        <pt x="661" y="18" on="0"/>
        <pt x="626" y="9" on="1"/>
        <pt x="626" y="8" on="1"/>
        <pt x="655" y="13" on="0"/>
        <pt x="711" y="24" on="0"/>
        <pt x="735" y="27" on="1"/>
        <pt x="749" y="94" on="1"/>
      </contour>
    </TTGlyph>
    <TTGlyph name="F" xMin="29" yMin="-6" xMax="585" yMax="690">
      <contour>
        <pt x="583" y="538" on="1"/>
        <pt x="585" y="533" on="0"/>
        <pt x="574" y="527" on="0"/>
        <pt x="566" y="527" on="1"/>
        <pt x="557" y="527" on="0"/>
        <pt x="555" y="534" on="1"/>
        <pt x="544" y="569" on="0"/>
        <pt x="508" y="614" on="0"/>
        <pt x="464" y="641" on="0"/>
        <pt x="415" y="652" on="0"/>
        <pt x="391" y="652" on="1"/>
        <pt x="301" y="652" on="1"/>
        <pt x="291" y="652" on="0"/>
        <pt x="270" y="647" on="0"/>
        <pt x="253" y="634" on="0"/>
        <pt x="242" y="610" on="0"/>
        <pt x="242" y="592" on="1"/>
        <pt x="242" y="369" on="1"/>
        <pt x="356" y="369" on="1"/>
        <pt x="375" y="369" on="0"/>
        <pt x="406" y="375" on="0"/>
        <pt x="429" y="396" on="0"/>
        <pt x="444" y="438" on="0"/>
        <pt x="449" y="474" on="1"/>
        <pt x="449" y="482" on="0"/>
        <pt x="463" y="482" on="1"/>
        <pt x="477" y="482" on="0"/>
        <pt x="477" y="474" on="1"/>
        <pt x="477" y="455" on="0"/>
        <pt x="475" y="425" on="0"/>
        <pt x="473" y="397" on="0"/>
        <pt x="471" y="369" on="0"/>
        <pt x="471" y="351" on="1"/>
        <pt x="471" y="333" on="0"/>
        <pt x="473" y="304" on="0"/>
        <pt x="475" y="276" on="0"/>
        <pt x="477" y="246" on="0"/>
        <pt x="477" y="227" on="1"/>
        <pt x="477" y="219" on="0"/>
        <pt x="463" y="219" on="1"/>
        <pt x="449" y="219" on="0"/>
        <pt x="449" y="227" on="1"/>
        <pt x="444" y="263" on="0"/>
        <pt x="429" y="307" on="0"/>
        <pt x="406" y="330" on="0"/>
        <pt x="375" y="337" on="0"/>
        <pt x="356" y="337" on="1"/>
        <pt x="242" y="337" on="1"/>
        <pt x="242" y="106" on="1"/>
        <pt x="242" y="87" on="0"/>
        <pt x="247" y="59" on="0"/>
        <pt x="268" y="39" on="0"/>
        <pt x="310" y="26" on="0"/>
        <pt x="346" y="22" on="1"/>
        <pt x="354" y="20" on="0"/>
        <pt x="354" y="8" on="1"/>
        <pt x="354" y="-6" on="0"/>
        <pt x="346" y="-6" on="1"/>
        <pt x="321" y="-6" on="0"/>
        <pt x="284" y="-4" on="0"/>
        <pt x="250" y="-2" on="0"/>
        <pt x="214" y="0" on="0"/>
        <pt x="191" y="0" on="1"/>
        <pt x="168" y="0" on="0"/>
        <pt x="132" y="-2" on="0"/>
        <pt x="99" y="-4" on="0"/>
        <pt x="62" y="-6" on="0"/>
        <pt x="37" y="-6" on="1"/>
        <pt x="29" y="-6" on="0"/>
        <pt x="29" y="8" on="1"/>
        <pt x="29" y="20" on="0"/>
        <pt x="37" y="22" on="1"/>
        <pt x="73" y="26" on="0"/>
        <pt x="115" y="39" on="0"/>
        <pt x="135" y="59" on="0"/>
        <pt x="140" y="87" on="0"/>
        <pt x="140" y="106" on="1"/>
        <pt x="140" y="577" on="1"/>
        <pt x="140" y="596" on="0"/>
        <pt x="135" y="624" on="0"/>
        <pt x="115" y="644" on="0"/>
        <pt x="73" y="657" on="0"/>
        <pt x="37" y="661" on="1"/>
        <pt x="29" y="663" on="0"/>
        <pt x="29" y="675" on="1"/>
        <pt x="29" y="681" on="0"/>
        <pt x="33" y="690" on="0"/>
        <pt x="37" y="690" on="1"/>
        <pt x="61" y="689" on="0"/>
        <pt x="129" y="687" on="0"/>
        <pt x="201" y="685" on="0"/>
        <pt x="270" y="684" on="0"/>
        <pt x="295" y="684" on="1"/>
        <pt x="320" y="684" on="0"/>
        <pt x="387" y="685" on="0"/>
        <pt x="457" y="687" on="0"/>
        <pt x="522" y="689" on="0"/>
        <pt x="546" y="690" on="1"/>
        <pt x="554" y="649" on="0"/>
        <pt x="569" y="581" on="0"/>
      </contour>
      <contour>
        <pt x="252" y="19" on="1"/>
        <pt x="223" y="24" on="0"/>
        <pt x="198" y="65" on="0"/>
        <pt x="198" y="89" on="1"/>
        <pt x="198" y="592" on="1"/>
        <pt x="198" y="617" on="0"/>
        <pt x="222" y="656" on="0"/>
        <pt x="245" y="663" on="1"/>
        <pt x="245" y="664" on="1"/>
        <pt x="214" y="664" on="0"/>
        <pt x="187" y="665" on="1"/>
        <pt x="164" y="666" on="0"/>
        <pt x="117" y="666" on="0"/>
        <pt x="106" y="667" on="1"/>
        <pt x="106" y="666" on="1"/>
        <pt x="135" y="660" on="0"/>
        <pt x="160" y="616" on="0"/>
        <pt x="160" y="592" on="1"/>
        <pt x="160" y="89" on="1"/>
        <pt x="160" y="64" on="0"/>
        <pt x="134" y="21" on="0"/>
        <pt x="106" y="15" on="1"/>
        <pt x="106" y="14" on="1"/>
        <pt x="124" y="16" on="0"/>
        <pt x="156" y="18" on="0"/>
        <pt x="179" y="18" on="1"/>
        <pt x="252" y="18" on="1"/>
      </contour>
      <contour>
        <pt x="513" y="668" on="1"/>
        <pt x="441" y="666" on="1"/>
        <pt x="441" y="665" on="1"/>
        <pt x="462" y="663" on="0"/>
        <pt x="505" y="643" on="0"/>
        <pt x="522" y="626" on="1"/>
      </contour>
      <contour>
        <pt x="440" y="322" on="1"/>
        <pt x="439" y="329" on="0"/>
        <pt x="439" y="343" on="0"/>
        <pt x="439" y="351" on="1"/>
        <pt x="439" y="359" on="0"/>
        <pt x="439" y="373" on="0"/>
        <pt x="440" y="380" on="1"/>
        <pt x="431" y="368" on="0"/>
        <pt x="406" y="354" on="0"/>
        <pt x="392" y="352" on="1"/>
        <pt x="392" y="351" on="1"/>
        <pt x="423" y="348" on="0"/>
      </contour>
    </TTGlyph>
    <TTGlyph name="G" xMin="45" yMin="-22" xMax="808" yMax="705">
      <contour>
        <pt x="808" y="301" on="1"/>
        <pt x="808" y="289" on="0"/>
        <pt x="800" y="287" on="1"/>
        <pt x="764" y="283" on="0"/>
        <pt x="722" y="270" on="0"/>
        <pt x="701" y="250" on="0"/>
        <pt x="696" y="222" on="0"/>
        <pt x="696" y="203" on="1"/>
        <pt x="696" y="144" on="1"/>
        <pt x="696" y="98" on="0"/>
        <pt x="701" y="54" on="0"/>
        <pt x="707" y="38" on="1"/>
        <pt x="677" y="26" on="0"/>
        <pt x="606" y="4" on="0"/>
        <pt x="532" y="-12" on="0"/>
        <pt x="459" y="-22" on="0"/>
        <pt x="427" y="-22" on="1"/>
        <pt x="331" y="-22" on="0"/>
        <pt x="188" y="38" on="0"/>
        <pt x="92" y="139" on="0"/>
        <pt x="45" y="269" on="0"/>
        <pt x="45" y="338" on="1"/>
        <pt x="45" y="411" on="0"/>
        <pt x="100" y="544" on="0"/>
        <pt x="204" y="645" on="0"/>
        <pt x="354" y="705" on="0"/>
        <pt x="448" y="705" on="1"/>
        <pt x="481" y="705" on="0"/>
        <pt x="538" y="696" on="0"/>
        <pt x="592" y="684" on="0"/>
        <pt x="644" y="675" on="0"/>
        <pt x="672" y="675" on="1"/>
        <pt x="676" y="633" on="0"/>
        <pt x="688" y="546" on="0"/>
        <pt x="695" y="505" on="1"/>
        <pt x="695" y="501" on="0"/>
        <pt x="685" y="497" on="0"/>
        <pt x="679" y="497" on="1"/>
        <pt x="668" y="497" on="0"/>
        <pt x="667" y="505" on="1"/>
        <pt x="645" y="586" on="0"/>
        <pt x="531" y="673" on="0"/>
        <pt x="432" y="673" on="1"/>
        <pt x="372" y="673" on="0"/>
        <pt x="271" y="620" on="0"/>
        <pt x="197" y="529" on="0"/>
        <pt x="155" y="407" on="0"/>
        <pt x="155" y="338" on="1"/>
        <pt x="155" y="270" on="0"/>
        <pt x="197" y="151" on="0"/>
        <pt x="270" y="62" on="0"/>
        <pt x="370" y="10" on="0"/>
        <pt x="427" y="10" on="1"/>
        <pt x="460" y="10" on="0"/>
        <pt x="521" y="17" on="0"/>
        <pt x="567" y="36" on="0"/>
        <pt x="595" y="68" on="0"/>
        <pt x="595" y="93" on="1"/>
        <pt x="595" y="225" on="1"/>
        <pt x="595" y="242" on="0"/>
        <pt x="576" y="263" on="0"/>
        <pt x="537" y="275" on="0"/>
        <pt x="480" y="282" on="0"/>
        <pt x="441" y="286" on="1"/>
        <pt x="433" y="286" on="0"/>
        <pt x="433" y="301" on="1"/>
        <pt x="433" y="315" on="0"/>
        <pt x="441" y="315" on="1"/>
        <pt x="491" y="315" on="0"/>
        <pt x="587" y="309" on="0"/>
        <pt x="634" y="309" on="1"/>
        <pt x="657" y="309" on="0"/>
        <pt x="696" y="311" on="0"/>
        <pt x="734" y="313" on="0"/>
        <pt x="775" y="315" on="0"/>
        <pt x="800" y="315" on="1"/>
        <pt x="808" y="315" on="0"/>
      </contour>
      <contour>
        <pt x="330" y="673" on="1"/>
        <pt x="268" y="656" on="0"/>
        <pt x="171" y="589" on="0"/>
        <pt x="104" y="500" on="0"/>
        <pt x="68" y="394" on="0"/>
        <pt x="68" y="338" on="1"/>
        <pt x="68" y="284" on="0"/>
        <pt x="99" y="180" on="0"/>
        <pt x="160" y="93" on="0"/>
        <pt x="252" y="27" on="0"/>
        <pt x="314" y="11" on="1"/>
        <pt x="314" y="12" on="1"/>
        <pt x="270" y="28" on="0"/>
        <pt x="196" y="90" on="0"/>
        <pt x="142" y="175" on="0"/>
        <pt x="111" y="281" on="0"/>
        <pt x="111" y="342" on="1"/>
        <pt x="111" y="403" on="0"/>
        <pt x="147" y="510" on="0"/>
        <pt x="207" y="595" on="0"/>
        <pt x="286" y="656" on="0"/>
        <pt x="330" y="672" on="1"/>
      </contour>
      <contour>
        <pt x="705" y="292" on="1"/>
        <pt x="691" y="291" on="0"/>
        <pt x="651" y="290" on="0"/>
        <pt x="634" y="290" on="1"/>
        <pt x="615" y="290" on="0"/>
        <pt x="567" y="291" on="0"/>
        <pt x="547" y="292" on="1"/>
        <pt x="547" y="291" on="1"/>
        <pt x="582" y="284" on="0"/>
        <pt x="615" y="252" on="0"/>
        <pt x="615" y="222" on="1"/>
        <pt x="615" y="91" on="1"/>
        <pt x="615" y="62" on="0"/>
        <pt x="585" y="24" on="0"/>
        <pt x="558" y="14" on="1"/>
        <pt x="558" y="13" on="1"/>
        <pt x="584" y="19" on="0"/>
        <pt x="640" y="35" on="0"/>
        <pt x="663" y="43" on="1"/>
        <pt x="657" y="59" on="0"/>
        <pt x="653" y="103" on="0"/>
        <pt x="653" y="149" on="1"/>
        <pt x="653" y="218" on="1"/>
        <pt x="653" y="244" on="0"/>
        <pt x="676" y="285" on="0"/>
        <pt x="705" y="291" on="1"/>
      </contour>
      <contour>
        <pt x="638" y="657" on="1"/>
        <pt x="616" y="659" on="0"/>
        <pt x="570" y="669" on="0"/>
        <pt x="547" y="674" on="1"/>
        <pt x="547" y="673" on="1"/>
        <pt x="576" y="664" on="0"/>
        <pt x="627" y="624" on="0"/>
        <pt x="644" y="598" on="1"/>
        <pt x="645" y="598" on="1"/>
      </contour>
    </TTGlyph>
    <TTGlyph name="Gbreve" xMin="45" yMin="-22" xMax="808" yMax="922">
      <component glyphName="G" x="0" y="0" flags="0x204"/>
      <component glyphName="breve" x="256" y="15" flags="0x4"/>
    </TTGlyph>
    <TTGlyph name="Gcommaaccent" xMin="45" yMin="-295" xMax="808" yMax="705">
      <component glyphName="G" x="0" y="0" flags="0x204"/>
      <component glyphName="commaaccent" x="306" y="-15" flags="0x4"/>
    </TTGlyph>
    <TTGlyph name="Gdotaccent" xMin="45" yMin="-22" xMax="808" yMax="883">
      <component glyphName="G" x="0" y="0" flags="0x204"/>
      <component glyphName="dotaccent" x="256" y="15" flags="0x4"/>
    </TTGlyph>
    <TTGlyph name="H" xMin="28" yMin="-6" xMax="838" yMax="690">
      <contour>
        <pt x="838" y="8" on="1"/>
        <pt x="838" y="-6" on="0"/>
        <pt x="830" y="-6" on="1"/>
        <pt x="805" y="-6" on="0"/>
        <pt x="768" y="-4" on="0"/>
        <pt x="734" y="-2" on="0"/>
        <pt x="698" y="0" on="0"/>
        <pt x="675" y="0" on="1"/>
        <pt x="652" y="0" on="0"/>
        <pt x="619" y="-2" on="0"/>
        <pt x="588" y="-4" on="0"/>
        <pt x="554" y="-6" on="0"/>
        <pt x="529" y="-6" on="1"/>
        <pt x="521" y="-6" on="0"/>
        <pt x="521" y="8" on="1"/>
        <pt x="521" y="20" on="0"/>
        <pt x="529" y="22" on="1"/>
        <pt x="565" y="26" on="0"/>
        <pt x="604" y="39" on="0"/>
        <pt x="622" y="59" on="0"/>
        <pt x="624" y="87" on="0"/>
        <pt x="624" y="106" on="1"/>
        <pt x="624" y="329" on="1"/>
        <pt x="242" y="329" on="1"/>
        <pt x="242" y="106" on="1"/>
        <pt x="242" y="87" on="0"/>
        <pt x="244" y="59" on="0"/>
        <pt x="262" y="39" on="0"/>
        <pt x="301" y="26" on="0"/>
        <pt x="337" y="22" on="1"/>
        <pt x="345" y="20" on="0"/>
        <pt x="345" y="8" on="1"/>
        <pt x="345" y="-6" on="0"/>
        <pt x="337" y="-6" on="1"/>
        <pt x="312" y="-6" on="0"/>
        <pt x="278" y="-4" on="0"/>
        <pt x="247" y="-2" on="0"/>
        <pt x="214" y="0" on="0"/>
        <pt x="191" y="0" on="1"/>
        <pt x="168" y="0" on="0"/>
        <pt x="132" y="-2" on="0"/>
        <pt x="98" y="-4" on="0"/>
        <pt x="61" y="-6" on="0"/>
        <pt x="36" y="-6" on="1"/>
        <pt x="28" y="-6" on="0"/>
        <pt x="28" y="8" on="1"/>
        <pt x="28" y="20" on="0"/>
        <pt x="36" y="22" on="1"/>
        <pt x="72" y="26" on="0"/>
        <pt x="114" y="39" on="0"/>
        <pt x="135" y="59" on="0"/>
        <pt x="140" y="87" on="0"/>
        <pt x="140" y="106" on="1"/>
        <pt x="140" y="577" on="1"/>
        <pt x="140" y="596" on="0"/>
        <pt x="135" y="625" on="0"/>
        <pt x="114" y="644" on="0"/>
        <pt x="72" y="657" on="0"/>
        <pt x="36" y="662" on="1"/>
        <pt x="28" y="662" on="0"/>
        <pt x="28" y="676" on="1"/>
        <pt x="28" y="681" on="0"/>
        <pt x="33" y="690" on="0"/>
        <pt x="36" y="690" on="1"/>
        <pt x="61" y="690" on="0"/>
        <pt x="98" y="688" on="0"/>
        <pt x="132" y="686" on="0"/>
        <pt x="168" y="684" on="0"/>
        <pt x="191" y="684" on="1"/>
        <pt x="214" y="684" on="0"/>
        <pt x="247" y="686" on="0"/>
        <pt x="278" y="688" on="0"/>
        <pt x="312" y="690" on="0"/>
        <pt x="337" y="690" on="1"/>
        <pt x="341" y="690" on="0"/>
        <pt x="345" y="681" on="0"/>
        <pt x="345" y="676" on="1"/>
        <pt x="345" y="662" on="0"/>
        <pt x="337" y="662" on="1"/>
        <pt x="301" y="657" on="0"/>
        <pt x="262" y="644" on="0"/>
        <pt x="244" y="625" on="0"/>
        <pt x="242" y="596" on="0"/>
        <pt x="242" y="577" on="1"/>
        <pt x="242" y="361" on="1"/>
        <pt x="624" y="361" on="1"/>
        <pt x="624" y="577" on="1"/>
        <pt x="624" y="596" on="0"/>
        <pt x="622" y="625" on="0"/>
        <pt x="604" y="644" on="0"/>
        <pt x="565" y="657" on="0"/>
        <pt x="529" y="662" on="1"/>
        <pt x="521" y="662" on="0"/>
        <pt x="521" y="676" on="1"/>
        <pt x="521" y="681" on="0"/>
        <pt x="525" y="690" on="0"/>
        <pt x="529" y="690" on="1"/>
        <pt x="554" y="690" on="0"/>
        <pt x="588" y="688" on="0"/>
        <pt x="619" y="686" on="0"/>
        <pt x="652" y="684" on="0"/>
        <pt x="675" y="684" on="1"/>
        <pt x="698" y="684" on="0"/>
        <pt x="734" y="686" on="0"/>
        <pt x="768" y="688" on="0"/>
        <pt x="805" y="690" on="0"/>
        <pt x="830" y="690" on="1"/>
        <pt x="833" y="690" on="0"/>
        <pt x="838" y="681" on="0"/>
        <pt x="838" y="676" on="1"/>
        <pt x="838" y="662" on="0"/>
        <pt x="830" y="662" on="1"/>
        <pt x="794" y="657" on="0"/>
        <pt x="752" y="644" on="0"/>
        <pt x="731" y="625" on="0"/>
        <pt x="726" y="596" on="0"/>
        <pt x="726" y="577" on="1"/>
        <pt x="726" y="106" on="1"/>
        <pt x="726" y="87" on="0"/>
        <pt x="731" y="59" on="0"/>
        <pt x="752" y="39" on="0"/>
        <pt x="794" y="26" on="0"/>
        <pt x="830" y="22" on="1"/>
        <pt x="838" y="20" on="0"/>
      </contour>
      <contour>
        <pt x="590" y="16" on="1"/>
        <pt x="607" y="18" on="0"/>
        <pt x="640" y="20" on="0"/>
        <pt x="663" y="20" on="1"/>
        <pt x="686" y="20" on="0"/>
        <pt x="718" y="18" on="0"/>
        <pt x="736" y="16" on="1"/>
        <pt x="736" y="17" on="1"/>
        <pt x="704" y="23" on="0"/>
        <pt x="682" y="66" on="0"/>
        <pt x="682" y="91" on="1"/>
        <pt x="682" y="592" on="1"/>
        <pt x="682" y="623" on="0"/>
        <pt x="707" y="659" on="0"/>
        <pt x="736" y="666" on="1"/>
        <pt x="736" y="667" on="1"/>
        <pt x="719" y="665" on="0"/>
        <pt x="686" y="664" on="0"/>
        <pt x="663" y="664" on="1"/>
        <pt x="640" y="664" on="0"/>
        <pt x="608" y="665" on="0"/>
        <pt x="590" y="667" on="1"/>
        <pt x="590" y="666" on="1"/>
        <pt x="619" y="661" on="0"/>
        <pt x="644" y="623" on="0"/>
        <pt x="644" y="592" on="1"/>
        <pt x="644" y="91" on="1"/>
        <pt x="644" y="60" on="0"/>
        <pt x="619" y="22" on="0"/>
        <pt x="590" y="17" on="1"/>
      </contour>
      <contour>
        <pt x="252" y="17" on="1"/>
        <pt x="223" y="22" on="0"/>
        <pt x="198" y="60" on="0"/>
        <pt x="198" y="91" on="1"/>
        <pt x="198" y="592" on="1"/>
        <pt x="198" y="623" on="0"/>
        <pt x="223" y="661" on="0"/>
        <pt x="252" y="666" on="1"/>
        <pt x="252" y="667" on="1"/>
        <pt x="234" y="665" on="0"/>
        <pt x="202" y="664" on="0"/>
        <pt x="179" y="664" on="1"/>
        <pt x="156" y="664" on="0"/>
        <pt x="123" y="665" on="0"/>
        <pt x="106" y="667" on="1"/>
        <pt x="106" y="666" on="1"/>
        <pt x="135" y="659" on="0"/>
        <pt x="160" y="616" on="0"/>
        <pt x="160" y="592" on="1"/>
        <pt x="160" y="91" on="1"/>
        <pt x="160" y="66" on="0"/>
        <pt x="134" y="23" on="0"/>
        <pt x="106" y="17" on="1"/>
        <pt x="106" y="16" on="1"/>
        <pt x="124" y="18" on="0"/>
        <pt x="156" y="20" on="0"/>
        <pt x="179" y="20" on="1"/>
        <pt x="202" y="20" on="0"/>
        <pt x="235" y="18" on="0"/>
        <pt x="252" y="16" on="1"/>
      </contour>
    </TTGlyph>
    <TTGlyph name="Hbar" xMin="24" yMin="-6" xMax="842" yMax="690">
      <contour>
        <pt x="252" y="17" on="1"/>
        <pt x="223" y="22" on="0"/>
        <pt x="198" y="60" on="0"/>
        <pt x="198" y="91" on="1"/>
        <pt x="198" y="516" on="1"/>
        <pt x="644" y="516" on="1"/>
        <pt x="644" y="91" on="1"/>
        <pt x="644" y="60" on="0"/>
        <pt x="619" y="22" on="0"/>
        <pt x="590" y="17" on="1"/>
        <pt x="590" y="16" on="1"/>
        <pt x="607" y="18" on="0"/>
        <pt x="640" y="20" on="0"/>
        <pt x="663" y="20" on="1"/>
        <pt x="686" y="20" on="0"/>
        <pt x="718" y="18" on="0"/>
        <pt x="736" y="16" on="1"/>
        <pt x="736" y="17" on="1"/>
        <pt x="704" y="23" on="0"/>
        <pt x="682" y="66" on="0"/>
        <pt x="682" y="91" on="1"/>
        <pt x="682" y="516" on="1"/>
        <pt x="799" y="516" on="1"/>
        <pt x="809" y="516" on="0"/>
        <pt x="809" y="522" on="1"/>
        <pt x="809" y="528" on="0"/>
        <pt x="799" y="528" on="1"/>
        <pt x="682" y="528" on="1"/>
        <pt x="682" y="592" on="1"/>
        <pt x="682" y="623" on="0"/>
        <pt x="707" y="659" on="0"/>
        <pt x="736" y="666" on="1"/>
        <pt x="736" y="667" on="1"/>
        <pt x="719" y="665" on="0"/>
        <pt x="686" y="664" on="0"/>
        <pt x="663" y="664" on="1"/>
        <pt x="640" y="664" on="0"/>
        <pt x="608" y="665" on="0"/>
        <pt x="590" y="667" on="1"/>
        <pt x="590" y="666" on="1"/>
        <pt x="619" y="661" on="0"/>
        <pt x="644" y="623" on="0"/>
        <pt x="644" y="592" on="1"/>
        <pt x="644" y="528" on="1"/>
        <pt x="198" y="528" on="1"/>
        <pt x="198" y="592" on="1"/>
        <pt x="198" y="623" on="0"/>
        <pt x="223" y="661" on="0"/>
        <pt x="252" y="666" on="1"/>
        <pt x="252" y="667" on="1"/>
        <pt x="234" y="665" on="0"/>
        <pt x="202" y="664" on="0"/>
        <pt x="179" y="664" on="1"/>
        <pt x="156" y="664" on="0"/>
        <pt x="123" y="665" on="0"/>
        <pt x="106" y="667" on="1"/>
        <pt x="106" y="666" on="1"/>
        <pt x="135" y="659" on="0"/>
        <pt x="160" y="616" on="0"/>
        <pt x="160" y="592" on="1"/>
        <pt x="160" y="528" on="1"/>
        <pt x="66" y="528" on="1"/>
        <pt x="56" y="528" on="0"/>
        <pt x="56" y="522" on="1"/>
        <pt x="56" y="516" on="0"/>
        <pt x="66" y="516" on="1"/>
        <pt x="160" y="516" on="1"/>
        <pt x="160" y="91" on="1"/>
        <pt x="160" y="66" on="0"/>
        <pt x="134" y="23" on="0"/>
        <pt x="106" y="17" on="1"/>
        <pt x="106" y="16" on="1"/>
        <pt x="124" y="18" on="0"/>
        <pt x="156" y="20" on="0"/>
        <pt x="179" y="20" on="1"/>
        <pt x="202" y="20" on="0"/>
        <pt x="235" y="18" on="0"/>
        <pt x="252" y="16" on="1"/>
      </contour>
      <contour>
        <pt x="838" y="8" on="1"/>
        <pt x="838" y="-6" on="0"/>
        <pt x="830" y="-6" on="1"/>
        <pt x="805" y="-6" on="0"/>
        <pt x="768" y="-4" on="0"/>
        <pt x="734" y="-2" on="0"/>
        <pt x="698" y="0" on="0"/>
        <pt x="675" y="0" on="1"/>
        <pt x="652" y="0" on="0"/>
        <pt x="619" y="-2" on="0"/>
        <pt x="588" y="-4" on="0"/>
        <pt x="554" y="-6" on="0"/>
        <pt x="529" y="-6" on="1"/>
        <pt x="521" y="-6" on="0"/>
        <pt x="521" y="8" on="1"/>
        <pt x="521" y="20" on="0"/>
        <pt x="529" y="22" on="1"/>
        <pt x="565" y="26" on="0"/>
        <pt x="604" y="39" on="0"/>
        <pt x="622" y="59" on="0"/>
        <pt x="624" y="87" on="0"/>
        <pt x="624" y="106" on="1"/>
        <pt x="624" y="329" on="1"/>
        <pt x="242" y="329" on="1"/>
        <pt x="242" y="106" on="1"/>
        <pt x="242" y="87" on="0"/>
        <pt x="244" y="59" on="0"/>
        <pt x="262" y="39" on="0"/>
        <pt x="301" y="26" on="0"/>
        <pt x="337" y="22" on="1"/>
        <pt x="345" y="20" on="0"/>
        <pt x="345" y="8" on="1"/>
        <pt x="345" y="-6" on="0"/>
        <pt x="337" y="-6" on="1"/>
        <pt x="312" y="-6" on="0"/>
        <pt x="278" y="-4" on="0"/>
        <pt x="247" y="-2" on="0"/>
        <pt x="214" y="0" on="0"/>
        <pt x="191" y="0" on="1"/>
        <pt x="168" y="0" on="0"/>
        <pt x="132" y="-2" on="0"/>
        <pt x="98" y="-4" on="0"/>
        <pt x="61" y="-6" on="0"/>
        <pt x="36" y="-6" on="1"/>
        <pt x="28" y="-6" on="0"/>
        <pt x="28" y="8" on="1"/>
        <pt x="28" y="20" on="0"/>
        <pt x="36" y="22" on="1"/>
        <pt x="72" y="26" on="0"/>
        <pt x="114" y="39" on="0"/>
        <pt x="135" y="59" on="0"/>
        <pt x="140" y="87" on="0"/>
        <pt x="140" y="106" on="1"/>
        <pt x="140" y="504" on="1"/>
        <pt x="36" y="504" on="1"/>
        <pt x="24" y="504" on="0"/>
        <pt x="24" y="522" on="1"/>
        <pt x="24" y="540" on="0"/>
        <pt x="36" y="540" on="1"/>
        <pt x="140" y="540" on="1"/>
        <pt x="140" y="577" on="1"/>
        <pt x="140" y="596" on="0"/>
        <pt x="135" y="625" on="0"/>
        <pt x="114" y="644" on="0"/>
        <pt x="72" y="657" on="0"/>
        <pt x="36" y="662" on="1"/>
        <pt x="28" y="662" on="0"/>
        <pt x="28" y="676" on="1"/>
        <pt x="28" y="681" on="0"/>
        <pt x="33" y="690" on="0"/>
        <pt x="36" y="690" on="1"/>
        <pt x="61" y="690" on="0"/>
        <pt x="98" y="688" on="0"/>
        <pt x="132" y="686" on="0"/>
        <pt x="168" y="684" on="0"/>
        <pt x="191" y="684" on="1"/>
        <pt x="214" y="684" on="0"/>
        <pt x="247" y="686" on="0"/>
        <pt x="278" y="688" on="0"/>
        <pt x="312" y="690" on="0"/>
        <pt x="337" y="690" on="1"/>
        <pt x="341" y="690" on="0"/>
        <pt x="345" y="681" on="0"/>
        <pt x="345" y="676" on="1"/>
        <pt x="345" y="662" on="0"/>
        <pt x="337" y="662" on="1"/>
        <pt x="301" y="657" on="0"/>
        <pt x="262" y="644" on="0"/>
        <pt x="244" y="625" on="0"/>
        <pt x="242" y="596" on="0"/>
        <pt x="242" y="577" on="1"/>
        <pt x="242" y="539" on="1"/>
        <pt x="624" y="539" on="1"/>
        <pt x="624" y="577" on="1"/>
        <pt x="624" y="596" on="0"/>
        <pt x="622" y="625" on="0"/>
        <pt x="604" y="644" on="0"/>
        <pt x="565" y="657" on="0"/>
        <pt x="529" y="662" on="1"/>
        <pt x="521" y="662" on="0"/>
        <pt x="521" y="676" on="1"/>
        <pt x="521" y="681" on="0"/>
        <pt x="525" y="690" on="0"/>
        <pt x="529" y="690" on="1"/>
        <pt x="554" y="690" on="0"/>
        <pt x="588" y="688" on="0"/>
        <pt x="619" y="686" on="0"/>
        <pt x="652" y="684" on="0"/>
        <pt x="675" y="684" on="1"/>
        <pt x="698" y="684" on="0"/>
        <pt x="734" y="686" on="0"/>
        <pt x="768" y="688" on="0"/>
        <pt x="805" y="690" on="0"/>
        <pt x="830" y="690" on="1"/>
        <pt x="833" y="690" on="0"/>
        <pt x="838" y="681" on="0"/>
        <pt x="838" y="676" on="1"/>
        <pt x="838" y="662" on="0"/>
        <pt x="830" y="662" on="1"/>
        <pt x="794" y="657" on="0"/>
        <pt x="752" y="644" on="0"/>
        <pt x="731" y="625" on="0"/>
        <pt x="726" y="596" on="0"/>
        <pt x="726" y="577" on="1"/>
        <pt x="726" y="540" on="1"/>
        <pt x="829" y="540" on="1"/>
        <pt x="842" y="540" on="0"/>
        <pt x="842" y="522" on="1"/>
        <pt x="842" y="504" on="0"/>
        <pt x="829" y="504" on="1"/>
        <pt x="726" y="504" on="1"/>
        <pt x="726" y="106" on="1"/>
        <pt x="726" y="87" on="0"/>
        <pt x="731" y="59" on="0"/>
        <pt x="752" y="39" on="0"/>
        <pt x="794" y="26" on="0"/>
        <pt x="830" y="22" on="1"/>
        <pt x="838" y="20" on="0"/>
      </contour>
      <contour>
        <pt x="624" y="361" on="1"/>
        <pt x="624" y="505" on="1"/>
        <pt x="242" y="505" on="1"/>
        <pt x="242" y="361" on="1"/>
      </contour>
    </TTGlyph>
    <TTGlyph name="I" xMin="58" yMin="-6" xMax="383" yMax="690">
      <contour>
        <pt x="383" y="8" on="1"/>
        <pt x="383" y="-6" on="0"/>
        <pt x="375" y="-6" on="1"/>
        <pt x="350" y="-6" on="0"/>
        <pt x="313" y="-4" on="0"/>
        <pt x="279" y="-2" on="0"/>
        <pt x="244" y="0" on="0"/>
        <pt x="221" y="0" on="1"/>
        <pt x="198" y="0" on="0"/>
        <pt x="162" y="-2" on="0"/>
        <pt x="128" y="-4" on="0"/>
        <pt x="91" y="-6" on="0"/>
        <pt x="66" y="-6" on="1"/>
        <pt x="58" y="-6" on="0"/>
        <pt x="58" y="8" on="1"/>
        <pt x="58" y="20" on="0"/>
        <pt x="66" y="22" on="1"/>
        <pt x="102" y="26" on="0"/>
        <pt x="144" y="39" on="0"/>
        <pt x="165" y="59" on="0"/>
        <pt x="170" y="87" on="0"/>
        <pt x="170" y="106" on="1"/>
        <pt x="170" y="577" on="1"/>
        <pt x="170" y="596" on="0"/>
        <pt x="165" y="625" on="0"/>
        <pt x="144" y="644" on="0"/>
        <pt x="102" y="657" on="0"/>
        <pt x="66" y="662" on="1"/>
        <pt x="58" y="662" on="0"/>
        <pt x="58" y="676" on="1"/>
        <pt x="58" y="681" on="0"/>
        <pt x="63" y="690" on="0"/>
        <pt x="66" y="690" on="1"/>
        <pt x="91" y="690" on="0"/>
        <pt x="128" y="688" on="0"/>
        <pt x="162" y="686" on="0"/>
        <pt x="198" y="684" on="0"/>
        <pt x="221" y="684" on="1"/>
        <pt x="244" y="684" on="0"/>
        <pt x="279" y="686" on="0"/>
        <pt x="313" y="688" on="0"/>
        <pt x="350" y="690" on="0"/>
        <pt x="375" y="690" on="1"/>
        <pt x="379" y="690" on="0"/>
        <pt x="383" y="681" on="0"/>
        <pt x="383" y="676" on="1"/>
        <pt x="383" y="662" on="0"/>
        <pt x="375" y="662" on="1"/>
        <pt x="339" y="657" on="0"/>
        <pt x="297" y="644" on="0"/>
        <pt x="277" y="625" on="0"/>
        <pt x="272" y="596" on="0"/>
        <pt x="272" y="577" on="1"/>
        <pt x="272" y="106" on="1"/>
        <pt x="272" y="87" on="0"/>
        <pt x="277" y="59" on="0"/>
        <pt x="297" y="39" on="0"/>
        <pt x="339" y="26" on="0"/>
        <pt x="375" y="22" on="1"/>
        <pt x="383" y="20" on="0"/>
      </contour>
      <contour>
        <pt x="282" y="17" on="1"/>
        <pt x="253" y="22" on="0"/>
        <pt x="228" y="67" on="0"/>
        <pt x="228" y="91" on="1"/>
        <pt x="228" y="592" on="1"/>
        <pt x="228" y="617" on="0"/>
        <pt x="253" y="661" on="0"/>
        <pt x="282" y="666" on="1"/>
        <pt x="282" y="667" on="1"/>
        <pt x="264" y="665" on="0"/>
        <pt x="232" y="664" on="0"/>
        <pt x="209" y="664" on="1"/>
        <pt x="186" y="664" on="0"/>
        <pt x="153" y="665" on="0"/>
        <pt x="136" y="667" on="1"/>
        <pt x="136" y="666" on="1"/>
        <pt x="165" y="659" on="0"/>
        <pt x="190" y="616" on="0"/>
        <pt x="190" y="592" on="1"/>
        <pt x="190" y="91" on="1"/>
        <pt x="190" y="66" on="0"/>
        <pt x="164" y="23" on="0"/>
        <pt x="136" y="17" on="1"/>
        <pt x="136" y="16" on="1"/>
        <pt x="154" y="18" on="0"/>
        <pt x="186" y="18" on="0"/>
        <pt x="209" y="18" on="1"/>
        <pt x="232" y="18" on="0"/>
        <pt x="265" y="18" on="0"/>
        <pt x="282" y="16" on="1"/>
      </contour>
    </TTGlyph>
    <TTGlyph name="Iacute" xMin="58" yMin="-6" xMax="400" yMax="924">
      <component glyphName="I" x="0" y="0" flags="0x204"/>
      <component glyphName="acute" x="118" y="0" flags="0x4"/>
    </TTGlyph>
    <TTGlyph name="Ibreve" xMin="58" yMin="-6" xMax="383" yMax="907">
      <component glyphName="I" x="0" y="0" flags="0x204"/>
      <component glyphName="breve" x="46" y="0" flags="0x4"/>
    </TTGlyph>
    <TTGlyph name="Icircumflex" xMin="58" yMin="-6" xMax="383" yMax="910">
      <component glyphName="I" x="0" y="0" flags="0x204"/>
      <component glyphName="circumflex" x="46" y="0" flags="0x4"/>
    </TTGlyph>
    <TTGlyph name="Idieresis" xMin="58" yMin="-6" xMax="383" yMax="868">
      <component glyphName="I" x="0" y="0" flags="0x204"/>
      <component glyphName="dieresis" x="46" y="0" flags="0x4"/>
    </TTGlyph>
    <TTGlyph name="Idotaccent" xMin="58" yMin="-6" xMax="383" yMax="868">
      <component glyphName="I" x="0" y="0" flags="0x204"/>
      <component glyphName="dotaccent" x="46" y="0" flags="0x4"/>
    </TTGlyph>
    <TTGlyph name="Igrave" xMin="58" yMin="-6" xMax="383" yMax="924">
      <component glyphName="I" x="0" y="0" flags="0x204"/>
      <component glyphName="grave" x="7" y="0" flags="0x4"/>
    </TTGlyph>
    <TTGlyph name="Imacron" xMin="46" yMin="-6" xMax="399" yMax="844">
      <component glyphName="I" x="0" y="0" flags="0x204"/>
      <component glyphName="macron" x="47" y="0" flags="0x4"/>
    </TTGlyph>
    <TTGlyph name="Iogonek" xMin="58" yMin="-225" xMax="383" yMax="690">
      <contour>
        <pt x="383" y="8" on="1"/>
        <pt x="383" y="-6" on="0"/>
        <pt x="375" y="-6" on="1"/>
        <pt x="333" y="-6" on="0"/>
        <pt x="280" y="-2" on="0"/>
        <pt x="247" y="0" on="1"/>
        <pt x="187" y="-62" on="0"/>
        <pt x="187" y="-122" on="1"/>
        <pt x="187" y="-174" on="0"/>
        <pt x="244" y="-174" on="1"/>
        <pt x="258" y="-174" on="0"/>
        <pt x="281" y="-162" on="0"/>
        <pt x="292" y="-155" on="1"/>
        <pt x="295" y="-153" on="0"/>
        <pt x="303" y="-158" on="0"/>
        <pt x="306" y="-163" on="1"/>
        <pt x="311" y="-172" on="0"/>
        <pt x="307" y="-179" on="1"/>
        <pt x="291" y="-201" on="0"/>
        <pt x="242" y="-225" on="0"/>
        <pt x="206" y="-225" on="1"/>
        <pt x="183" y="-225" on="0"/>
        <pt x="151" y="-211" on="0"/>
        <pt x="130" y="-188" on="0"/>
        <pt x="120" y="-159" on="0"/>
        <pt x="120" y="-144" on="1"/>
        <pt x="120" y="-77" on="0"/>
        <pt x="204" y="0" on="1"/>
        <pt x="185" y="0" on="0"/>
        <pt x="154" y="-2" on="0"/>
        <pt x="122" y="-4" on="0"/>
        <pt x="88" y="-6" on="0"/>
        <pt x="66" y="-6" on="1"/>
        <pt x="58" y="-6" on="0"/>
        <pt x="58" y="8" on="1"/>
        <pt x="58" y="20" on="0"/>
        <pt x="66" y="22" on="1"/>
        <pt x="102" y="26" on="0"/>
        <pt x="144" y="39" on="0"/>
        <pt x="165" y="59" on="0"/>
        <pt x="170" y="87" on="0"/>
        <pt x="170" y="106" on="1"/>
        <pt x="170" y="577" on="1"/>
        <pt x="170" y="596" on="0"/>
        <pt x="165" y="625" on="0"/>
        <pt x="144" y="644" on="0"/>
        <pt x="102" y="657" on="0"/>
        <pt x="66" y="662" on="1"/>
        <pt x="58" y="662" on="0"/>
        <pt x="58" y="676" on="1"/>
        <pt x="58" y="681" on="0"/>
        <pt x="63" y="690" on="0"/>
        <pt x="66" y="690" on="1"/>
        <pt x="91" y="690" on="0"/>
        <pt x="128" y="688" on="0"/>
        <pt x="162" y="686" on="0"/>
        <pt x="198" y="684" on="0"/>
        <pt x="221" y="684" on="1"/>
        <pt x="244" y="684" on="0"/>
        <pt x="279" y="686" on="0"/>
        <pt x="313" y="688" on="0"/>
        <pt x="350" y="690" on="0"/>
        <pt x="375" y="690" on="1"/>
        <pt x="379" y="690" on="0"/>
        <pt x="383" y="681" on="0"/>
        <pt x="383" y="676" on="1"/>
        <pt x="383" y="662" on="0"/>
        <pt x="375" y="662" on="1"/>
        <pt x="339" y="657" on="0"/>
        <pt x="297" y="644" on="0"/>
        <pt x="277" y="625" on="0"/>
        <pt x="272" y="596" on="0"/>
        <pt x="272" y="577" on="1"/>
        <pt x="272" y="106" on="1"/>
        <pt x="272" y="87" on="0"/>
        <pt x="277" y="59" on="0"/>
        <pt x="297" y="39" on="0"/>
        <pt x="339" y="26" on="0"/>
        <pt x="375" y="22" on="1"/>
        <pt x="383" y="20" on="0"/>
      </contour>
      <contour>
        <pt x="282" y="17" on="1"/>
        <pt x="253" y="22" on="0"/>
        <pt x="228" y="67" on="0"/>
        <pt x="228" y="91" on="1"/>
        <pt x="228" y="592" on="1"/>
        <pt x="228" y="617" on="0"/>
        <pt x="253" y="661" on="0"/>
        <pt x="282" y="666" on="1"/>
        <pt x="282" y="667" on="1"/>
        <pt x="264" y="665" on="0"/>
        <pt x="232" y="664" on="0"/>
        <pt x="209" y="664" on="1"/>
        <pt x="186" y="664" on="0"/>
        <pt x="153" y="665" on="0"/>
        <pt x="136" y="667" on="1"/>
        <pt x="136" y="666" on="1"/>
        <pt x="165" y="659" on="0"/>
        <pt x="190" y="616" on="0"/>
        <pt x="190" y="592" on="1"/>
        <pt x="190" y="91" on="1"/>
        <pt x="190" y="66" on="0"/>
        <pt x="164" y="23" on="0"/>
        <pt x="136" y="17" on="1"/>
        <pt x="136" y="16" on="1"/>
        <pt x="154" y="18" on="0"/>
        <pt x="186" y="18" on="0"/>
        <pt x="209" y="18" on="1"/>
        <pt x="232" y="18" on="0"/>
        <pt x="265" y="18" on="0"/>
        <pt x="282" y="16" on="1"/>
      </contour>
      <contour>
        <pt x="271" y="-187" on="1"/>
        <pt x="263" y="-192" on="0"/>
        <pt x="240" y="-196" on="0"/>
        <pt x="232" y="-196" on="1"/>
        <pt x="191" y="-196" on="0"/>
        <pt x="159" y="-154" on="0"/>
        <pt x="159" y="-126" on="1"/>
        <pt x="159" y="-101" on="0"/>
        <pt x="189" y="-38" on="0"/>
        <pt x="215" y="-9" on="1"/>
        <pt x="140" y="-81" on="0"/>
        <pt x="140" y="-144" on="1"/>
        <pt x="140" y="-169" on="0"/>
        <pt x="175" y="-205" on="0"/>
        <pt x="210" y="-205" on="1"/>
        <pt x="223" y="-205" on="0"/>
        <pt x="261" y="-196" on="0"/>
      </contour>
    </TTGlyph>
    <TTGlyph name="J" xMin="-132" yMin="-239" xMax="359" yMax="690">
      <contour>
        <pt x="359" y="676" on="1"/>
        <pt x="359" y="662" on="0"/>
        <pt x="351" y="662" on="1"/>
        <pt x="315" y="657" on="0"/>
        <pt x="273" y="644" on="0"/>
        <pt x="252" y="625" on="0"/>
        <pt x="247" y="596" on="0"/>
        <pt x="247" y="577" on="1"/>
        <pt x="247" y="134" on="1"/>
        <pt x="247" y="62" on="0"/>
        <pt x="199" y="-72" on="0"/>
        <pt x="119" y="-176" on="0"/>
        <pt x="15" y="-239" on="0"/>
        <pt x="-41" y="-239" on="1"/>
        <pt x="-85" y="-239" on="0"/>
        <pt x="-132" y="-203" on="0"/>
        <pt x="-132" y="-174" on="1"/>
        <pt x="-132" y="-148" on="0"/>
        <pt x="-93" y="-109" on="0"/>
        <pt x="-59" y="-109" on="1"/>
        <pt x="-38" y="-109" on="0"/>
        <pt x="-13" y="-128" on="0"/>
        <pt x="7" y="-152" on="0"/>
        <pt x="27" y="-171" on="0"/>
        <pt x="44" y="-171" on="1"/>
        <pt x="60" y="-171" on="0"/>
        <pt x="96" y="-146" on="0"/>
        <pt x="126" y="-83" on="0"/>
        <pt x="145" y="24" on="0"/>
        <pt x="145" y="106" on="1"/>
        <pt x="145" y="577" on="1"/>
        <pt x="145" y="596" on="0"/>
        <pt x="140" y="625" on="0"/>
        <pt x="120" y="644" on="0"/>
        <pt x="78" y="657" on="0"/>
        <pt x="42" y="662" on="1"/>
        <pt x="34" y="662" on="0"/>
        <pt x="34" y="676" on="1"/>
        <pt x="34" y="681" on="0"/>
        <pt x="38" y="690" on="0"/>
        <pt x="42" y="690" on="1"/>
        <pt x="67" y="690" on="0"/>
        <pt x="104" y="688" on="0"/>
        <pt x="137" y="686" on="0"/>
        <pt x="173" y="684" on="0"/>
        <pt x="196" y="684" on="1"/>
        <pt x="219" y="684" on="0"/>
        <pt x="255" y="686" on="0"/>
        <pt x="289" y="688" on="0"/>
        <pt x="326" y="690" on="0"/>
        <pt x="351" y="690" on="1"/>
        <pt x="354" y="690" on="0"/>
        <pt x="359" y="681" on="0"/>
      </contour>
      <contour>
        <pt x="257" y="667" on="1"/>
        <pt x="240" y="665" on="0"/>
        <pt x="207" y="664" on="0"/>
        <pt x="184" y="664" on="1"/>
        <pt x="161" y="664" on="0"/>
        <pt x="129" y="665" on="0"/>
        <pt x="112" y="667" on="1"/>
        <pt x="112" y="666" on="1"/>
        <pt x="140" y="660" on="0"/>
        <pt x="165" y="617" on="0"/>
        <pt x="165" y="592" on="1"/>
        <pt x="165" y="106" on="1"/>
        <pt x="165" y="2" on="0"/>
        <pt x="132" y="-124" on="0"/>
        <pt x="110" y="-154" on="1"/>
        <pt x="111" y="-154" on="1"/>
        <pt x="139" y="-127" on="0"/>
        <pt x="175" y="-58" on="0"/>
        <pt x="195" y="17" on="0"/>
        <pt x="203" y="96" on="0"/>
        <pt x="203" y="134" on="1"/>
        <pt x="203" y="592" on="1"/>
        <pt x="203" y="616" on="0"/>
        <pt x="228" y="661" on="0"/>
        <pt x="257" y="666" on="1"/>
      </contour>
      <contour>
        <pt x="15" y="-210" on="1"/>
        <pt x="-6" y="-205" on="0"/>
        <pt x="-33" y="-176" on="0"/>
        <pt x="-41" y="-163" on="1"/>
        <pt x="-49" y="-151" on="0"/>
        <pt x="-65" y="-133" on="0"/>
        <pt x="-79" y="-133" on="1"/>
        <pt x="-94" y="-133" on="0"/>
        <pt x="-113" y="-157" on="0"/>
        <pt x="-113" y="-172" on="1"/>
        <pt x="-113" y="-194" on="0"/>
        <pt x="-75" y="-219" on="0"/>
        <pt x="-41" y="-219" on="1"/>
        <pt x="-14" y="-219" on="0"/>
        <pt x="15" y="-211" on="1"/>
      </contour>
    </TTGlyph>
    <TTGlyph name="K" xMin="28" yMin="-6" xMax="788" yMax="690">
      <contour>
        <pt x="788" y="8" on="1"/>
        <pt x="788" y="-6" on="0"/>
        <pt x="780" y="-6" on="1"/>
        <pt x="755" y="-6" on="0"/>
        <pt x="718" y="-4" on="0"/>
        <pt x="684" y="-2" on="0"/>
        <pt x="648" y="0" on="0"/>
        <pt x="625" y="0" on="1"/>
        <pt x="602" y="0" on="0"/>
        <pt x="562" y="-2" on="0"/>
        <pt x="522" y="-4" on="0"/>
        <pt x="480" y="-6" on="0"/>
        <pt x="455" y="-6" on="1"/>
        <pt x="447" y="-6" on="0"/>
        <pt x="447" y="8" on="1"/>
        <pt x="447" y="20" on="0"/>
        <pt x="454" y="22" on="1"/>
        <pt x="522" y="29" on="0"/>
        <pt x="522" y="54" on="1"/>
        <pt x="522" y="68" on="0"/>
        <pt x="500" y="90" on="1"/>
        <pt x="301" y="292" on="1"/>
        <pt x="285" y="308" on="0"/>
        <pt x="262" y="318" on="0"/>
        <pt x="241" y="318" on="1"/>
        <pt x="241" y="106" on="1"/>
        <pt x="241" y="87" on="0"/>
        <pt x="246" y="59" on="0"/>
        <pt x="267" y="39" on="0"/>
        <pt x="309" y="26" on="0"/>
        <pt x="345" y="22" on="1"/>
        <pt x="353" y="20" on="0"/>
        <pt x="353" y="8" on="1"/>
        <pt x="353" y="-6" on="0"/>
        <pt x="345" y="-6" on="1"/>
        <pt x="320" y="-6" on="0"/>
        <pt x="283" y="-4" on="0"/>
        <pt x="249" y="-2" on="0"/>
        <pt x="213" y="0" on="0"/>
        <pt x="190" y="0" on="1"/>
        <pt x="167" y="0" on="0"/>
        <pt x="132" y="-2" on="0"/>
        <pt x="98" y="-4" on="0"/>
        <pt x="61" y="-6" on="0"/>
        <pt x="36" y="-6" on="1"/>
        <pt x="28" y="-6" on="0"/>
        <pt x="28" y="8" on="1"/>
        <pt x="28" y="20" on="0"/>
        <pt x="36" y="22" on="1"/>
        <pt x="72" y="26" on="0"/>
        <pt x="114" y="39" on="0"/>
        <pt x="135" y="59" on="0"/>
        <pt x="140" y="87" on="0"/>
        <pt x="140" y="106" on="1"/>
        <pt x="140" y="577" on="1"/>
        <pt x="140" y="596" on="0"/>
        <pt x="135" y="625" on="0"/>
        <pt x="114" y="644" on="0"/>
        <pt x="72" y="657" on="0"/>
        <pt x="36" y="662" on="1"/>
        <pt x="28" y="662" on="0"/>
        <pt x="28" y="676" on="1"/>
        <pt x="28" y="681" on="0"/>
        <pt x="33" y="690" on="0"/>
        <pt x="36" y="690" on="1"/>
        <pt x="61" y="690" on="0"/>
        <pt x="98" y="688" on="0"/>
        <pt x="132" y="686" on="0"/>
        <pt x="167" y="684" on="0"/>
        <pt x="190" y="684" on="1"/>
        <pt x="213" y="684" on="0"/>
        <pt x="249" y="686" on="0"/>
        <pt x="283" y="688" on="0"/>
        <pt x="320" y="690" on="0"/>
        <pt x="345" y="690" on="1"/>
        <pt x="348" y="690" on="0"/>
        <pt x="353" y="681" on="0"/>
        <pt x="353" y="676" on="1"/>
        <pt x="353" y="662" on="0"/>
        <pt x="345" y="662" on="1"/>
        <pt x="309" y="657" on="0"/>
        <pt x="267" y="644" on="0"/>
        <pt x="246" y="625" on="0"/>
        <pt x="241" y="596" on="0"/>
        <pt x="241" y="577" on="1"/>
        <pt x="241" y="350" on="1"/>
        <pt x="261" y="350" on="0"/>
        <pt x="284" y="360" on="0"/>
        <pt x="301" y="376" on="1"/>
        <pt x="521" y="593" on="1"/>
        <pt x="533" y="604" on="0"/>
        <pt x="548" y="622" on="0"/>
        <pt x="548" y="630" on="1"/>
        <pt x="548" y="645" on="0"/>
        <pt x="519" y="657" on="0"/>
        <pt x="484" y="662" on="1"/>
        <pt x="476" y="662" on="0"/>
        <pt x="476" y="676" on="1"/>
        <pt x="476" y="681" on="0"/>
        <pt x="481" y="690" on="0"/>
        <pt x="485" y="690" on="1"/>
        <pt x="503" y="690" on="0"/>
        <pt x="533" y="688" on="0"/>
        <pt x="563" y="686" on="0"/>
        <pt x="595" y="684" on="0"/>
        <pt x="615" y="684" on="1"/>
        <pt x="634" y="684" on="0"/>
        <pt x="661" y="686" on="0"/>
        <pt x="684" y="688" on="0"/>
        <pt x="707" y="690" on="0"/>
        <pt x="722" y="690" on="1"/>
        <pt x="725" y="690" on="0"/>
        <pt x="729" y="681" on="0"/>
        <pt x="729" y="676" on="1"/>
        <pt x="729" y="662" on="0"/>
        <pt x="721" y="662" on="1"/>
        <pt x="697" y="659" on="0"/>
        <pt x="662" y="650" on="0"/>
        <pt x="630" y="635" on="0"/>
        <pt x="599" y="611" on="0"/>
        <pt x="579" y="593" on="1"/>
        <pt x="351" y="375" on="1"/>
        <pt x="635" y="87" on="1"/>
        <pt x="653" y="69" on="0"/>
        <pt x="685" y="46" on="0"/>
        <pt x="718" y="32" on="0"/>
        <pt x="756" y="25" on="0"/>
        <pt x="779" y="22" on="1"/>
        <pt x="788" y="20" on="0"/>
      </contour>
      <contour>
        <pt x="621" y="664" on="1"/>
        <pt x="601" y="664" on="0"/>
        <pt x="557" y="666" on="0"/>
        <pt x="541" y="667" on="1"/>
        <pt x="541" y="666" on="1"/>
        <pt x="568" y="658" on="0"/>
        <pt x="568" y="630" on="1"/>
        <pt x="568" y="628" on="0"/>
        <pt x="567" y="621" on="0"/>
        <pt x="565" y="620" on="1"/>
        <pt x="566" y="619" on="1"/>
        <pt x="580" y="633" on="0"/>
        <pt x="615" y="658" on="0"/>
        <pt x="629" y="663" on="1"/>
        <pt x="629" y="664" on="1"/>
      </contour>
      <contour>
        <pt x="251" y="17" on="1"/>
        <pt x="223" y="22" on="0"/>
        <pt x="197" y="67" on="0"/>
        <pt x="197" y="91" on="1"/>
        <pt x="197" y="592" on="1"/>
        <pt x="197" y="617" on="0"/>
        <pt x="223" y="661" on="0"/>
        <pt x="251" y="666" on="1"/>
        <pt x="251" y="667" on="1"/>
        <pt x="233" y="665" on="0"/>
        <pt x="201" y="664" on="0"/>
        <pt x="178" y="664" on="1"/>
        <pt x="155" y="664" on="0"/>
        <pt x="122" y="665" on="0"/>
        <pt x="105" y="667" on="1"/>
        <pt x="105" y="666" on="1"/>
        <pt x="135" y="660" on="0"/>
        <pt x="159" y="616" on="0"/>
        <pt x="159" y="592" on="1"/>
        <pt x="159" y="91" on="1"/>
        <pt x="159" y="66" on="0"/>
        <pt x="134" y="23" on="0"/>
        <pt x="105" y="17" on="1"/>
        <pt x="105" y="16" on="1"/>
        <pt x="123" y="18" on="0"/>
        <pt x="155" y="20" on="0"/>
        <pt x="178" y="20" on="1"/>
        <pt x="201" y="20" on="0"/>
        <pt x="234" y="18" on="0"/>
        <pt x="251" y="16" on="1"/>
      </contour>
      <contour>
        <pt x="683" y="19" on="1"/>
        <pt x="658" y="23" on="0"/>
        <pt x="615" y="51" on="0"/>
        <pt x="592" y="74" on="1"/>
        <pt x="311" y="358" on="1"/>
        <pt x="300" y="347" on="0"/>
        <pt x="282" y="337" on="0"/>
        <pt x="271" y="335" on="1"/>
        <pt x="271" y="334" on="1"/>
        <pt x="283" y="332" on="0"/>
        <pt x="303" y="318" on="0"/>
        <pt x="314" y="307" on="1"/>
        <pt x="521" y="97" on="1"/>
        <pt x="543" y="75" on="0"/>
        <pt x="543" y="59" on="1"/>
        <pt x="543" y="47" on="0"/>
        <pt x="528" y="21" on="0"/>
        <pt x="509" y="16" on="1"/>
        <pt x="509" y="15" on="1"/>
        <pt x="529" y="17" on="0"/>
        <pt x="594" y="20" on="0"/>
        <pt x="625" y="20" on="1"/>
        <pt x="641" y="20" on="0"/>
        <pt x="672" y="19" on="0"/>
        <pt x="683" y="18" on="1"/>
      </contour>
    </TTGlyph>
    <TTGlyph name="Kcommaaccent" xMin="28" yMin="-285" xMax="788" yMax="690">
      <component glyphName="K" x="0" y="0" flags="0x204"/>
      <component glyphName="commaaccent" x="275" y="-5" flags="0x4"/>
    </TTGlyph>
    <TTGlyph name="L" xMin="28" yMin="-6" xMax="616" yMax="690">
      <contour>
        <pt x="615" y="178" on="1"/>
        <pt x="608" y="153" on="0"/>
        <pt x="598" y="110" on="0"/>
        <pt x="589" y="67" on="0"/>
        <pt x="582" y="21" on="0"/>
        <pt x="578" y="-6" on="1"/>
        <pt x="554" y="-5" on="0"/>
        <pt x="481" y="-3" on="0"/>
        <pt x="403" y="-1" on="0"/>
        <pt x="330" y="0" on="0"/>
        <pt x="305" y="0" on="1"/>
        <pt x="280" y="0" on="0"/>
        <pt x="208" y="-1" on="0"/>
        <pt x="131" y="-3" on="0"/>
        <pt x="60" y="-5" on="0"/>
        <pt x="36" y="-6" on="1"/>
        <pt x="28" y="-6" on="0"/>
        <pt x="28" y="8" on="1"/>
        <pt x="28" y="20" on="0"/>
        <pt x="36" y="22" on="1"/>
        <pt x="72" y="26" on="0"/>
        <pt x="114" y="39" on="0"/>
        <pt x="135" y="59" on="0"/>
        <pt x="140" y="87" on="0"/>
        <pt x="140" y="106" on="1"/>
        <pt x="140" y="577" on="1"/>
        <pt x="140" y="596" on="0"/>
        <pt x="135" y="625" on="0"/>
        <pt x="114" y="644" on="0"/>
        <pt x="72" y="657" on="0"/>
        <pt x="36" y="662" on="1"/>
        <pt x="28" y="662" on="0"/>
        <pt x="28" y="676" on="1"/>
        <pt x="28" y="681" on="0"/>
        <pt x="33" y="690" on="0"/>
        <pt x="36" y="690" on="1"/>
        <pt x="61" y="690" on="0"/>
        <pt x="98" y="688" on="0"/>
        <pt x="132" y="686" on="0"/>
        <pt x="168" y="684" on="0"/>
        <pt x="191" y="684" on="1"/>
        <pt x="214" y="684" on="0"/>
        <pt x="250" y="686" on="0"/>
        <pt x="283" y="688" on="0"/>
        <pt x="320" y="690" on="0"/>
        <pt x="345" y="690" on="1"/>
        <pt x="349" y="690" on="0"/>
        <pt x="353" y="681" on="0"/>
        <pt x="353" y="676" on="1"/>
        <pt x="353" y="662" on="0"/>
        <pt x="345" y="662" on="1"/>
        <pt x="309" y="657" on="0"/>
        <pt x="267" y="644" on="0"/>
        <pt x="247" y="625" on="0"/>
        <pt x="242" y="596" on="0"/>
        <pt x="242" y="577" on="1"/>
        <pt x="242" y="91" on="1"/>
        <pt x="242" y="73" on="0"/>
        <pt x="253" y="50" on="0"/>
        <pt x="270" y="37" on="0"/>
        <pt x="290" y="32" on="0"/>
        <pt x="300" y="32" on="1"/>
        <pt x="399" y="32" on="1"/>
        <pt x="438" y="32" on="0"/>
        <pt x="496" y="56" on="0"/>
        <pt x="539" y="98" on="0"/>
        <pt x="573" y="154" on="0"/>
        <pt x="588" y="187" on="1"/>
        <pt x="589" y="191" on="0"/>
        <pt x="597" y="191" on="1"/>
        <pt x="605" y="191" on="0"/>
        <pt x="616" y="182" on="0"/>
      </contour>
      <contour>
        <pt x="252" y="19" on="1"/>
        <pt x="223" y="24" on="0"/>
        <pt x="198" y="65" on="0"/>
        <pt x="198" y="89" on="1"/>
        <pt x="198" y="592" on="1"/>
        <pt x="198" y="617" on="0"/>
        <pt x="223" y="661" on="0"/>
        <pt x="252" y="666" on="1"/>
        <pt x="252" y="667" on="1"/>
        <pt x="234" y="665" on="0"/>
        <pt x="202" y="663" on="0"/>
        <pt x="179" y="663" on="1"/>
        <pt x="156" y="663" on="0"/>
        <pt x="123" y="665" on="0"/>
        <pt x="106" y="667" on="1"/>
        <pt x="106" y="666" on="1"/>
        <pt x="135" y="659" on="0"/>
        <pt x="160" y="616" on="0"/>
        <pt x="160" y="592" on="1"/>
        <pt x="160" y="89" on="1"/>
        <pt x="160" y="64" on="0"/>
        <pt x="134" y="21" on="0"/>
        <pt x="106" y="15" on="1"/>
        <pt x="106" y="14" on="1"/>
        <pt x="124" y="16" on="0"/>
        <pt x="156" y="18" on="0"/>
        <pt x="179" y="18" on="1"/>
        <pt x="252" y="18" on="1"/>
      </contour>
      <contour>
        <pt x="547" y="79" on="1"/>
        <pt x="527" y="53" on="0"/>
        <pt x="470" y="19" on="0"/>
        <pt x="435" y="19" on="1"/>
        <pt x="435" y="18" on="1"/>
        <pt x="537" y="15" on="1"/>
        <pt x="539" y="32" on="0"/>
        <pt x="545" y="65" on="0"/>
        <pt x="548" y="79" on="1"/>
      </contour>
    </TTGlyph>
    <TTGlyph name="Lacute" xMin="28" yMin="-6" xMax="616" yMax="924">
      <component glyphName="L" x="0" y="0" flags="0x204"/>
      <component glyphName="acute" x="88" y="0" flags="0x4"/>
    </TTGlyph>
    <TTGlyph name="Lcaron" xMin="28" yMin="-6" xMax="616" yMax="699">
      <component glyphName="L" x="0" y="0" flags="0x204"/>
      <component glyphName="caron.alt" x="394" y="0" flags="0x4"/>
    </TTGlyph>
    <TTGlyph name="Lcommaaccent" xMin="28" yMin="-290" xMax="616" yMax="690">
      <component glyphName="L" x="0" y="0" flags="0x204"/>
      <component glyphName="commaaccent" x="209" y="-10" flags="0x4"/>
    </TTGlyph>
    <TTGlyph name="Ldot" xMin="28" yMin="-6" xMax="616" yMax="690">
      <component glyphName="L" x="0" y="0" flags="0x204"/>
      <component glyphName="periodcentered" x="400" y="22" flags="0x4"/>
    </TTGlyph>
    <TTGlyph name="Lslash" xMin="5" yMin="-6" xMax="616" yMax="690">
      <contour>
        <pt x="614" y="178" on="1"/>
        <pt x="608" y="153" on="0"/>
        <pt x="597" y="110" on="0"/>
        <pt x="588" y="67" on="0"/>
        <pt x="581" y="21" on="0"/>
        <pt x="577" y="-6" on="1"/>
        <pt x="553" y="-5" on="0"/>
        <pt x="481" y="-3" on="0"/>
        <pt x="403" y="-1" on="0"/>
        <pt x="330" y="0" on="0"/>
        <pt x="305" y="0" on="1"/>
        <pt x="280" y="0" on="0"/>
        <pt x="207" y="-1" on="0"/>
        <pt x="131" y="-3" on="0"/>
        <pt x="60" y="-5" on="0"/>
        <pt x="36" y="-6" on="1"/>
        <pt x="28" y="-6" on="0"/>
        <pt x="28" y="8" on="1"/>
        <pt x="28" y="22" on="0"/>
        <pt x="36" y="22" on="1"/>
        <pt x="72" y="26" on="0"/>
        <pt x="114" y="40" on="0"/>
        <pt x="135" y="59" on="0"/>
        <pt x="140" y="87" on="0"/>
        <pt x="140" y="107" on="1"/>
        <pt x="140" y="281" on="1"/>
        <pt x="37" y="222" on="1"/>
        <pt x="33" y="220" on="0"/>
        <pt x="31" y="220" on="1"/>
        <pt x="26" y="220" on="0"/>
        <pt x="17" y="230" on="0"/>
        <pt x="12" y="237" on="1"/>
        <pt x="5" y="249" on="0"/>
        <pt x="5" y="256" on="1"/>
        <pt x="5" y="263" on="0"/>
        <pt x="11" y="266" on="1"/>
        <pt x="140" y="341" on="1"/>
        <pt x="140" y="577" on="1"/>
        <pt x="140" y="596" on="0"/>
        <pt x="135" y="625" on="0"/>
        <pt x="114" y="645" on="0"/>
        <pt x="72" y="658" on="0"/>
        <pt x="36" y="662" on="1"/>
        <pt x="28" y="664" on="0"/>
        <pt x="28" y="676" on="1"/>
        <pt x="28" y="690" on="0"/>
        <pt x="36" y="690" on="1"/>
        <pt x="61" y="690" on="0"/>
        <pt x="98" y="688" on="0"/>
        <pt x="132" y="686" on="0"/>
        <pt x="168" y="684" on="0"/>
        <pt x="191" y="684" on="1"/>
        <pt x="214" y="684" on="0"/>
        <pt x="249" y="686" on="0"/>
        <pt x="283" y="688" on="0"/>
        <pt x="320" y="690" on="0"/>
        <pt x="345" y="690" on="1"/>
        <pt x="353" y="690" on="0"/>
        <pt x="353" y="676" on="1"/>
        <pt x="353" y="664" on="0"/>
        <pt x="345" y="662" on="1"/>
        <pt x="309" y="658" on="0"/>
        <pt x="267" y="645" on="0"/>
        <pt x="246" y="625" on="0"/>
        <pt x="241" y="596" on="0"/>
        <pt x="241" y="577" on="1"/>
        <pt x="241" y="400" on="1"/>
        <pt x="398" y="490" on="1"/>
        <pt x="402" y="492" on="0"/>
        <pt x="404" y="492" on="1"/>
        <pt x="409" y="492" on="0"/>
        <pt x="419" y="482" on="0"/>
        <pt x="423" y="475" on="1"/>
        <pt x="430" y="463" on="0"/>
        <pt x="430" y="456" on="1"/>
        <pt x="430" y="449" on="0"/>
        <pt x="424" y="446" on="1"/>
        <pt x="241" y="340" on="1"/>
        <pt x="241" y="92" on="1"/>
        <pt x="241" y="74" on="0"/>
        <pt x="252" y="50" on="0"/>
        <pt x="269" y="37" on="0"/>
        <pt x="290" y="32" on="0"/>
        <pt x="300" y="32" on="1"/>
        <pt x="399" y="32" on="1"/>
        <pt x="438" y="32" on="0"/>
        <pt x="495" y="56" on="0"/>
        <pt x="539" y="98" on="0"/>
        <pt x="572" y="155" on="0"/>
        <pt x="588" y="188" on="1"/>
        <pt x="590" y="192" on="0"/>
        <pt x="597" y="192" on="1"/>
        <pt x="605" y="192" on="0"/>
        <pt x="616" y="183" on="0"/>
      </contour>
      <contour>
        <pt x="397" y="449" on="1"/>
        <pt x="397" y="454" on="0"/>
        <pt x="395" y="459" on="1"/>
        <pt x="392" y="463" on="0"/>
        <pt x="387" y="465" on="1"/>
        <pt x="197" y="356" on="1"/>
        <pt x="197" y="592" on="1"/>
        <pt x="197" y="617" on="0"/>
        <pt x="222" y="661" on="0"/>
        <pt x="251" y="666" on="1"/>
        <pt x="251" y="667" on="1"/>
        <pt x="233" y="665" on="0"/>
        <pt x="201" y="664" on="0"/>
        <pt x="178" y="664" on="1"/>
        <pt x="155" y="664" on="0"/>
        <pt x="123" y="665" on="0"/>
        <pt x="106" y="667" on="1"/>
        <pt x="106" y="666" on="1"/>
        <pt x="135" y="659" on="0"/>
        <pt x="160" y="616" on="0"/>
        <pt x="160" y="592" on="1"/>
        <pt x="160" y="334" on="1"/>
        <pt x="29" y="258" on="1"/>
        <pt x="29" y="253" on="0"/>
        <pt x="31" y="248" on="1"/>
        <pt x="34" y="244" on="0"/>
        <pt x="39" y="242" on="1"/>
        <pt x="160" y="311" on="1"/>
        <pt x="160" y="89" on="1"/>
        <pt x="160" y="64" on="0"/>
        <pt x="134" y="22" on="0"/>
        <pt x="106" y="16" on="1"/>
        <pt x="106" y="15" on="1"/>
        <pt x="124" y="17" on="0"/>
        <pt x="155" y="18" on="0"/>
        <pt x="178" y="18" on="1"/>
        <pt x="251" y="18" on="1"/>
        <pt x="251" y="19" on="1"/>
        <pt x="224" y="24" on="0"/>
        <pt x="197" y="65" on="0"/>
        <pt x="197" y="89" on="1"/>
        <pt x="197" y="333" on="1"/>
      </contour>
      <contour>
        <pt x="547" y="80" on="1"/>
        <pt x="527" y="56" on="0"/>
        <pt x="471" y="19" on="0"/>
        <pt x="435" y="19" on="1"/>
        <pt x="435" y="18" on="1"/>
        <pt x="460" y="18" on="0"/>
        <pt x="516" y="16" on="0"/>
        <pt x="537" y="15" on="1"/>
        <pt x="539" y="33" on="0"/>
        <pt x="544" y="65" on="0"/>
      </contour>
    </TTGlyph>
    <TTGlyph name="M" xMin="6" yMin="-22" xMax="952" yMax="690">
      <contour>
        <pt x="952" y="8" on="1"/>
        <pt x="952" y="-6" on="0"/>
        <pt x="944" y="-6" on="1"/>
        <pt x="919" y="-6" on="0"/>
        <pt x="881" y="-4" on="0"/>
        <pt x="846" y="-2" on="0"/>
        <pt x="809" y="0" on="0"/>
        <pt x="786" y="0" on="1"/>
        <pt x="763" y="0" on="0"/>
        <pt x="727" y="-2" on="0"/>
        <pt x="694" y="-4" on="0"/>
        <pt x="657" y="-6" on="0"/>
        <pt x="632" y="-6" on="1"/>
        <pt x="623" y="-6" on="0"/>
        <pt x="623" y="8" on="1"/>
        <pt x="623" y="20" on="0"/>
        <pt x="631" y="22" on="1"/>
        <pt x="667" y="26" on="0"/>
        <pt x="708" y="39" on="0"/>
        <pt x="728" y="59" on="0"/>
        <pt x="732" y="87" on="0"/>
        <pt x="732" y="106" on="1"/>
        <pt x="711" y="591" on="1"/>
        <pt x="470" y="-14" on="1"/>
        <pt x="467" y="-22" on="0"/>
        <pt x="456" y="-22" on="1"/>
        <pt x="444" y="-22" on="0"/>
        <pt x="442" y="-14" on="1"/>
        <pt x="215" y="567" on="1"/>
        <pt x="179" y="106" on="1"/>
        <pt x="177" y="87" on="0"/>
        <pt x="183" y="59" on="0"/>
        <pt x="204" y="39" on="0"/>
        <pt x="247" y="26" on="0"/>
        <pt x="283" y="22" on="1"/>
        <pt x="290" y="21" on="0"/>
        <pt x="290" y="8" on="1"/>
        <pt x="290" y="2" on="0"/>
        <pt x="284" y="-6" on="0"/>
        <pt x="281" y="-6" on="1"/>
        <pt x="243" y="-6" on="0"/>
        <pt x="180" y="0" on="0"/>
        <pt x="145" y="0" on="1"/>
        <pt x="108" y="0" on="0"/>
        <pt x="48" y="-6" on="0"/>
        <pt x="13" y="-6" on="1"/>
        <pt x="6" y="-6" on="0"/>
        <pt x="6" y="8" on="1"/>
        <pt x="6" y="14" on="0"/>
        <pt x="12" y="21" on="0"/>
        <pt x="15" y="22" on="1"/>
        <pt x="52" y="26" on="0"/>
        <pt x="96" y="39" on="0"/>
        <pt x="120" y="59" on="0"/>
        <pt x="128" y="87" on="0"/>
        <pt x="130" y="106" on="1"/>
        <pt x="182" y="577" on="1"/>
        <pt x="184" y="596" on="0"/>
        <pt x="178" y="625" on="0"/>
        <pt x="156" y="644" on="0"/>
        <pt x="112" y="657" on="0"/>
        <pt x="76" y="662" on="1"/>
        <pt x="69" y="662" on="0"/>
        <pt x="69" y="676" on="1"/>
        <pt x="69" y="681" on="0"/>
        <pt x="75" y="690" on="0"/>
        <pt x="78" y="690" on="1"/>
        <pt x="104" y="690" on="0"/>
        <pt x="152" y="684" on="0"/>
        <pt x="173" y="684" on="1"/>
        <pt x="199" y="684" on="0"/>
        <pt x="248" y="690" on="0"/>
        <pt x="275" y="690" on="1"/>
        <pt x="490" y="133" on="1"/>
        <pt x="712" y="690" on="1"/>
        <pt x="741" y="690" on="0"/>
        <pt x="785" y="684" on="0"/>
        <pt x="811" y="684" on="1"/>
        <pt x="827" y="684" on="0"/>
        <pt x="850" y="686" on="0"/>
        <pt x="873" y="688" on="0"/>
        <pt x="897" y="690" on="0"/>
        <pt x="914" y="690" on="1"/>
        <pt x="918" y="690" on="0"/>
        <pt x="923" y="681" on="0"/>
        <pt x="923" y="676" on="1"/>
        <pt x="923" y="662" on="0"/>
        <pt x="915" y="662" on="1"/>
        <pt x="879" y="657" on="0"/>
        <pt x="838" y="644" on="0"/>
        <pt x="818" y="625" on="0"/>
        <pt x="814" y="596" on="0"/>
        <pt x="814" y="577" on="1"/>
        <pt x="837" y="106" on="1"/>
        <pt x="838" y="87" on="0"/>
        <pt x="844" y="59" on="0"/>
        <pt x="865" y="39" on="0"/>
        <pt x="907" y="26" on="0"/>
        <pt x="944" y="22" on="1"/>
        <pt x="952" y="20" on="0"/>
      </contour>
      <contour>
        <pt x="240" y="668" on="1"/>
        <pt x="225" y="666" on="0"/>
        <pt x="190" y="664" on="0"/>
        <pt x="173" y="664" on="1"/>
        <pt x="169" y="664" on="0"/>
        <pt x="156" y="664" on="0"/>
        <pt x="151" y="665" on="1"/>
        <pt x="151" y="664" on="1"/>
        <pt x="187" y="654" on="0"/>
        <pt x="218" y="612" on="0"/>
        <pt x="230" y="582" on="1"/>
        <pt x="449" y="23" on="1"/>
        <pt x="469" y="75" on="1"/>
      </contour>
      <contour>
        <pt x="851" y="17" on="1"/>
        <pt x="825" y="22" on="0"/>
        <pt x="796" y="64" on="0"/>
        <pt x="794" y="91" on="1"/>
        <pt x="770" y="594" on="1"/>
        <pt x="770" y="598" on="1"/>
        <pt x="770" y="618" on="0"/>
        <pt x="789" y="655" on="0"/>
        <pt x="810" y="663" on="1"/>
        <pt x="810" y="664" on="1"/>
        <pt x="793" y="664" on="0"/>
        <pt x="754" y="666" on="0"/>
        <pt x="737" y="668" on="1"/>
        <pt x="728" y="647" on="1"/>
        <pt x="752" y="91" on="1"/>
        <pt x="752" y="86" on="1"/>
        <pt x="752" y="63" on="0"/>
        <pt x="728" y="22" on="0"/>
        <pt x="702" y="17" on="1"/>
        <pt x="702" y="16" on="1"/>
        <pt x="715" y="18" on="0"/>
        <pt x="754" y="20" on="0"/>
        <pt x="776" y="20" on="1"/>
        <pt x="799" y="20" on="0"/>
        <pt x="843" y="18" on="0"/>
        <pt x="851" y="16" on="1"/>
      </contour>
      <contour>
        <pt x="176" y="20" on="1"/>
        <pt x="165" y="25" on="0"/>
        <pt x="147" y="50" on="0"/>
        <pt x="144" y="70" on="1"/>
        <pt x="143" y="70" on="1"/>
        <pt x="139" y="50" on="0"/>
        <pt x="107" y="23" on="0"/>
        <pt x="89" y="18" on="1"/>
        <pt x="89" y="17" on="1"/>
        <pt x="101" y="18" on="0"/>
        <pt x="131" y="20" on="0"/>
        <pt x="145" y="20" on="1"/>
        <pt x="152" y="20" on="0"/>
        <pt x="169" y="19" on="0"/>
        <pt x="176" y="19" on="1"/>
      </contour>
    </TTGlyph>
    <TTGlyph name="N" xMin="12" yMin="-22" xMax="858" yMax="690">
      <contour>
        <pt x="858" y="675" on="1"/>
        <pt x="858" y="663" on="0"/>
        <pt x="850" y="661" on="1"/>
        <pt x="813" y="657" on="0"/>
        <pt x="770" y="644" on="0"/>
        <pt x="747" y="624" on="0"/>
        <pt x="740" y="596" on="0"/>
        <pt x="740" y="577" on="1"/>
        <pt x="729" y="-12" on="1"/>
        <pt x="729" y="-22" on="0"/>
        <pt x="717" y="-22" on="1"/>
        <pt x="712" y="-22" on="0"/>
        <pt x="705" y="-17" on="0"/>
        <pt x="701" y="-14" on="1"/>
        <pt x="185" y="569" on="1"/>
        <pt x="178" y="106" on="1"/>
        <pt x="177" y="87" on="0"/>
        <pt x="184" y="59" on="0"/>
        <pt x="208" y="39" on="0"/>
        <pt x="252" y="26" on="0"/>
        <pt x="288" y="22" on="1"/>
        <pt x="296" y="20" on="0"/>
        <pt x="296" y="8" on="1"/>
        <pt x="296" y="-6" on="0"/>
        <pt x="288" y="-6" on="1"/>
        <pt x="250" y="-6" on="0"/>
        <pt x="186" y="0" on="0"/>
        <pt x="151" y="0" on="1"/>
        <pt x="114" y="0" on="0"/>
        <pt x="55" y="-6" on="0"/>
        <pt x="20" y="-6" on="1"/>
        <pt x="12" y="-6" on="0"/>
        <pt x="12" y="8" on="1"/>
        <pt x="12" y="20" on="0"/>
        <pt x="21" y="22" on="1"/>
        <pt x="57" y="26" on="0"/>
        <pt x="100" y="39" on="0"/>
        <pt x="123" y="59" on="0"/>
        <pt x="130" y="87" on="0"/>
        <pt x="130" y="106" on="1"/>
        <pt x="148" y="577" on="1"/>
        <pt x="148" y="596" on="0"/>
        <pt x="141" y="625" on="0"/>
        <pt x="117" y="644" on="0"/>
        <pt x="73" y="657" on="0"/>
        <pt x="37" y="662" on="1"/>
        <pt x="30" y="662" on="0"/>
        <pt x="30" y="676" on="1"/>
        <pt x="30" y="681" on="0"/>
        <pt x="34" y="690" on="0"/>
        <pt x="38" y="690" on="1"/>
        <pt x="64" y="690" on="0"/>
        <pt x="107" y="684" on="0"/>
        <pt x="129" y="684" on="1"/>
        <pt x="142" y="684" on="0"/>
        <pt x="162" y="686" on="0"/>
        <pt x="180" y="688" on="0"/>
        <pt x="200" y="690" on="0"/>
        <pt x="214" y="690" on="1"/>
        <pt x="696" y="151" on="1"/>
        <pt x="696" y="577" on="1"/>
        <pt x="696" y="596" on="0"/>
        <pt x="687" y="624" on="0"/>
        <pt x="663" y="644" on="0"/>
        <pt x="618" y="657" on="0"/>
        <pt x="582" y="661" on="1"/>
        <pt x="574" y="663" on="0"/>
        <pt x="574" y="675" on="1"/>
        <pt x="574" y="689" on="0"/>
        <pt x="582" y="689" on="1"/>
        <pt x="621" y="689" on="0"/>
        <pt x="684" y="684" on="0"/>
        <pt x="719" y="684" on="1"/>
        <pt x="756" y="684" on="0"/>
        <pt x="815" y="689" on="0"/>
        <pt x="850" y="689" on="1"/>
        <pt x="858" y="689" on="0"/>
      </contour>
      <contour>
        <pt x="176" y="667" on="1"/>
        <pt x="156" y="664" on="0"/>
        <pt x="129" y="664" on="1"/>
        <pt x="125" y="664" on="0"/>
        <pt x="114" y="664" on="0"/>
        <pt x="109" y="665" on="1"/>
        <pt x="109" y="664" on="1"/>
        <pt x="123" y="661" on="0"/>
        <pt x="142" y="647" on="0"/>
        <pt x="151" y="637" on="1"/>
        <pt x="697" y="22" on="1"/>
        <pt x="698" y="85" on="1"/>
      </contour>
      <contour>
        <pt x="719" y="664" on="1"/>
        <pt x="703" y="664" on="0"/>
        <pt x="669" y="665" on="0"/>
        <pt x="654" y="667" on="1"/>
        <pt x="654" y="666" on="1"/>
        <pt x="676" y="661" on="0"/>
        <pt x="708" y="631" on="0"/>
        <pt x="711" y="615" on="1"/>
        <pt x="712" y="615" on="1"/>
        <pt x="716" y="633" on="0"/>
        <pt x="736" y="659" on="0"/>
        <pt x="750" y="663" on="1"/>
        <pt x="750" y="664" on="1"/>
      </contour>
      <contour>
        <pt x="180" y="20" on="1"/>
        <pt x="165" y="26" on="0"/>
        <pt x="147" y="53" on="0"/>
        <pt x="145" y="67" on="1"/>
        <pt x="144" y="67" on="1"/>
        <pt x="140" y="50" on="0"/>
        <pt x="116" y="23" on="0"/>
        <pt x="90" y="18" on="1"/>
        <pt x="90" y="17" on="1"/>
        <pt x="104" y="18" on="0"/>
        <pt x="136" y="20" on="0"/>
        <pt x="151" y="20" on="1"/>
        <pt x="158" y="20" on="0"/>
        <pt x="175" y="19" on="0"/>
        <pt x="180" y="19" on="1"/>
      </contour>
    </TTGlyph>
    <TTGlyph name="Nacute" xMin="12" yMin="-22" xMax="858" yMax="924">
      <component glyphName="N" x="0" y="0" flags="0x204"/>
      <component glyphName="acute" x="338" y="0" flags="0x4"/>
    </TTGlyph>
    <TTGlyph name="Ncaron" xMin="12" yMin="-22" xMax="858" yMax="918">
      <component glyphName="N" x="0" y="0" flags="0x204"/>
      <component glyphName="caron" x="266" y="0" flags="0x4"/>
    </TTGlyph>
    <TTGlyph name="Ncommaaccent" xMin="12" yMin="-285" xMax="858" yMax="690">
      <component glyphName="N" x="0" y="0" flags="0x204"/>
      <component glyphName="commaaccent" x="316" y="-5" flags="0x4"/>
    </TTGlyph>
    <TTGlyph name="Ntilde" xMin="12" yMin="-22" xMax="858" yMax="919">
      <component glyphName="N" x="0" y="0" flags="0x204"/>
      <component glyphName="tilde" x="254" y="0" flags="0x4"/>
    </TTGlyph>
    <TTGlyph name="O" xMin="45" yMin="-22" xMax="782" yMax="705">
      <contour>
        <pt x="782" y="338" on="1"/>
        <pt x="782" y="263" on="0"/>
        <pt x="731" y="131" on="0"/>
        <pt x="636" y="34" on="0"/>
        <pt x="499" y="-22" on="0"/>
        <pt x="413" y="-22" on="1"/>
        <pt x="327" y="-22" on="0"/>
        <pt x="191" y="34" on="0"/>
        <pt x="96" y="131" on="0"/>
        <pt x="45" y="263" on="0"/>
        <pt x="45" y="338" on="1"/>
        <pt x="45" y="413" on="0"/>
        <pt x="96" y="546" on="0"/>
        <pt x="191" y="647" on="0"/>
        <pt x="327" y="705" on="0"/>
        <pt x="413" y="705" on="1"/>
        <pt x="499" y="705" on="0"/>
        <pt x="636" y="647" on="0"/>
        <pt x="731" y="546" on="0"/>
        <pt x="782" y="413" on="0"/>
      </contour>
      <contour>
        <pt x="672" y="338" on="1"/>
        <pt x="672" y="407" on="0"/>
        <pt x="637" y="529" on="0"/>
        <pt x="571" y="620" on="0"/>
        <pt x="474" y="673" on="0"/>
        <pt x="413" y="673" on="1"/>
        <pt x="351" y="673" on="0"/>
        <pt x="255" y="620" on="0"/>
        <pt x="189" y="529" on="0"/>
        <pt x="155" y="407" on="0"/>
        <pt x="155" y="338" on="1"/>
        <pt x="155" y="269" on="0"/>
        <pt x="189" y="149" on="0"/>
        <pt x="255" y="61" on="0"/>
        <pt x="351" y="11" on="0"/>
        <pt x="413" y="11" on="1"/>
        <pt x="474" y="11" on="0"/>
        <pt x="571" y="61" on="0"/>
        <pt x="637" y="149" on="0"/>
        <pt x="672" y="269" on="0"/>
      </contour>
      <contour>
        <pt x="738" y="342" on="1"/>
        <pt x="738" y="399" on="0"/>
        <pt x="709" y="509" on="0"/>
        <pt x="648" y="600" on="0"/>
        <pt x="554" y="666" on="0"/>
        <pt x="490" y="680" on="1"/>
        <pt x="490" y="679" on="1"/>
        <pt x="539" y="663" on="0"/>
        <pt x="615" y="600" on="0"/>
        <pt x="668" y="512" on="0"/>
        <pt x="695" y="403" on="0"/>
        <pt x="695" y="342" on="1"/>
        <pt x="695" y="280" on="0"/>
        <pt x="668" y="170" on="0"/>
        <pt x="616" y="82" on="0"/>
        <pt x="540" y="18" on="0"/>
        <pt x="491" y="2" on="1"/>
        <pt x="491" y="1" on="1"/>
        <pt x="555" y="16" on="0"/>
        <pt x="648" y="83" on="0"/>
        <pt x="709" y="174" on="0"/>
        <pt x="738" y="284" on="0"/>
      </contour>
      <contour>
        <pt x="335" y="2" on="1"/>
        <pt x="287" y="14" on="0"/>
        <pt x="205" y="72" on="0"/>
        <pt x="145" y="161" on="0"/>
        <pt x="111" y="275" on="0"/>
        <pt x="111" y="342" on="1"/>
        <pt x="111" y="409" on="0"/>
        <pt x="145" y="522" on="0"/>
        <pt x="205" y="609" on="0"/>
        <pt x="287" y="667" on="0"/>
        <pt x="335" y="679" on="1"/>
        <pt x="335" y="680" on="1"/>
        <pt x="272" y="668" on="0"/>
        <pt x="172" y="606" on="0"/>
        <pt x="104" y="516" on="0"/>
        <pt x="68" y="404" on="0"/>
        <pt x="68" y="342" on="1"/>
        <pt x="68" y="279" on="0"/>
        <pt x="104" y="166" on="0"/>
        <pt x="172" y="76" on="0"/>
        <pt x="272" y="13" on="0"/>
        <pt x="335" y="1" on="1"/>
      </contour>
    </TTGlyph>
    <TTGlyph name="OE" xMin="45" yMin="-6" xMax="1018" yMax="693">
      <contour>
        <pt x="1016" y="159" on="1"/>
        <pt x="997" y="118" on="0"/>
        <pt x="966" y="41" on="0"/>
        <pt x="950" y="-6" on="1"/>
        <pt x="926" y="-5" on="0"/>
        <pt x="855" y="-3" on="0"/>
        <pt x="779" y="-1" on="0"/>
        <pt x="707" y="0" on="0"/>
        <pt x="682" y="0" on="1"/>
        <pt x="657" y="0" on="0"/>
        <pt x="584" y="-2" on="0"/>
        <pt x="508" y="-4" on="0"/>
        <pt x="437" y="-6" on="0"/>
        <pt x="413" y="-6" on="1"/>
        <pt x="327" y="-6" on="0"/>
        <pt x="191" y="47" on="0"/>
        <pt x="96" y="140" on="0"/>
        <pt x="45" y="266" on="0"/>
        <pt x="45" y="338" on="1"/>
        <pt x="45" y="410" on="0"/>
        <pt x="96" y="541" on="0"/>
        <pt x="191" y="638" on="0"/>
        <pt x="327" y="693" on="0"/>
        <pt x="413" y="690" on="1"/>
        <pt x="437" y="689" on="0"/>
        <pt x="505" y="687" on="0"/>
        <pt x="577" y="685" on="0"/>
        <pt x="647" y="684" on="0"/>
        <pt x="672" y="684" on="1"/>
        <pt x="697" y="684" on="0"/>
        <pt x="766" y="685" on="0"/>
        <pt x="838" y="687" on="0"/>
        <pt x="906" y="689" on="0"/>
        <pt x="930" y="690" on="1"/>
        <pt x="936" y="649" on="0"/>
        <pt x="951" y="581" on="0"/>
        <pt x="963" y="539" on="1"/>
        <pt x="965" y="534" on="0"/>
        <pt x="954" y="527" on="0"/>
        <pt x="946" y="527" on="1"/>
        <pt x="938" y="527" on="0"/>
        <pt x="936" y="534" on="1"/>
        <pt x="925" y="569" on="0"/>
        <pt x="891" y="615" on="0"/>
        <pt x="849" y="642" on="0"/>
        <pt x="801" y="652" on="0"/>
        <pt x="777" y="652" on="1"/>
        <pt x="677" y="652" on="1"/>
        <pt x="667" y="652" on="0"/>
        <pt x="646" y="647" on="0"/>
        <pt x="629" y="634" on="0"/>
        <pt x="618" y="611" on="0"/>
        <pt x="618" y="593" on="1"/>
        <pt x="618" y="369" on="1"/>
        <pt x="745" y="369" on="1"/>
        <pt x="764" y="369" on="0"/>
        <pt x="795" y="375" on="0"/>
        <pt x="817" y="396" on="0"/>
        <pt x="833" y="439" on="0"/>
        <pt x="837" y="475" on="1"/>
        <pt x="839" y="483" on="0"/>
        <pt x="851" y="483" on="1"/>
        <pt x="865" y="483" on="0"/>
        <pt x="865" y="475" on="1"/>
        <pt x="865" y="456" on="0"/>
        <pt x="863" y="426" on="0"/>
        <pt x="861" y="398" on="0"/>
        <pt x="859" y="369" on="0"/>
        <pt x="859" y="351" on="1"/>
        <pt x="859" y="316" on="0"/>
        <pt x="865" y="265" on="0"/>
        <pt x="865" y="228" on="1"/>
        <pt x="865" y="220" on="0"/>
        <pt x="851" y="220" on="1"/>
        <pt x="839" y="220" on="0"/>
        <pt x="837" y="228" on="1"/>
        <pt x="833" y="264" on="0"/>
        <pt x="817" y="308" on="0"/>
        <pt x="795" y="330" on="0"/>
        <pt x="764" y="337" on="0"/>
        <pt x="745" y="337" on="1"/>
        <pt x="618" y="337" on="1"/>
        <pt x="618" y="92" on="1"/>
        <pt x="618" y="74" on="0"/>
        <pt x="629" y="50" on="0"/>
        <pt x="646" y="37" on="0"/>
        <pt x="667" y="32" on="0"/>
        <pt x="677" y="32" on="1"/>
        <pt x="785" y="32" on="1"/>
        <pt x="815" y="32" on="0"/>
        <pt x="876" y="52" on="0"/>
        <pt x="931" y="89" on="0"/>
        <pt x="976" y="139" on="0"/>
        <pt x="990" y="169" on="1"/>
        <pt x="991" y="173" on="0"/>
        <pt x="999" y="173" on="1"/>
        <pt x="1007" y="173" on="0"/>
        <pt x="1018" y="164" on="0"/>
      </contour>
      <contour>
        <pt x="517" y="578" on="1"/>
        <pt x="517" y="597" on="0"/>
        <pt x="512" y="627" on="0"/>
        <pt x="491" y="647" on="0"/>
        <pt x="450" y="658" on="0"/>
        <pt x="413" y="658" on="1"/>
        <pt x="351" y="658" on="0"/>
        <pt x="255" y="608" on="0"/>
        <pt x="189" y="521" on="0"/>
        <pt x="155" y="404" on="0"/>
        <pt x="155" y="338" on="1"/>
        <pt x="155" y="272" on="0"/>
        <pt x="189" y="158" on="0"/>
        <pt x="255" y="74" on="0"/>
        <pt x="351" y="26" on="0"/>
        <pt x="413" y="26" on="1"/>
        <pt x="450" y="26" on="0"/>
        <pt x="491" y="37" on="0"/>
        <pt x="512" y="57" on="0"/>
        <pt x="517" y="87" on="0"/>
        <pt x="517" y="107" on="1"/>
      </contour>
      <contour>
        <pt x="628" y="19" on="1"/>
        <pt x="599" y="24" on="0"/>
        <pt x="574" y="65" on="0"/>
        <pt x="574" y="89" on="1"/>
        <pt x="574" y="592" on="1"/>
        <pt x="574" y="617" on="0"/>
        <pt x="596" y="656" on="0"/>
        <pt x="621" y="664" on="1"/>
        <pt x="621" y="665" on="1"/>
        <pt x="590" y="665" on="0"/>
        <pt x="563" y="666" on="1"/>
        <pt x="540" y="667" on="0"/>
        <pt x="494" y="667" on="0"/>
        <pt x="483" y="668" on="1"/>
        <pt x="483" y="667" on="1"/>
        <pt x="512" y="660" on="0"/>
        <pt x="537" y="616" on="0"/>
        <pt x="537" y="592" on="1"/>
        <pt x="537" y="89" on="1"/>
        <pt x="537" y="64" on="0"/>
        <pt x="511" y="21" on="0"/>
        <pt x="483" y="15" on="1"/>
        <pt x="483" y="14" on="1"/>
        <pt x="501" y="16" on="0"/>
        <pt x="532" y="18" on="0"/>
        <pt x="555" y="18" on="1"/>
        <pt x="628" y="18" on="1"/>
      </contour>
      <contour>
        <pt x="345" y="15" on="1"/>
        <pt x="289" y="26" on="0"/>
        <pt x="202" y="87" on="0"/>
        <pt x="142" y="174" on="0"/>
        <pt x="111" y="283" on="0"/>
        <pt x="111" y="342" on="1"/>
        <pt x="111" y="404" on="0"/>
        <pt x="143" y="513" on="0"/>
        <pt x="204" y="600" on="0"/>
        <pt x="291" y="658" on="0"/>
        <pt x="345" y="669" on="1"/>
        <pt x="345" y="670" on="1"/>
        <pt x="278" y="661" on="0"/>
        <pt x="174" y="600" on="0"/>
        <pt x="104" y="511" on="0"/>
        <pt x="67" y="400" on="0"/>
        <pt x="67" y="342" on="1"/>
        <pt x="67" y="286" on="0"/>
        <pt x="102" y="177" on="0"/>
        <pt x="171" y="88" on="0"/>
        <pt x="275" y="25" on="0"/>
        <pt x="345" y="14" on="1"/>
      </contour>
      <contour>
        <pt x="941" y="75" on="1"/>
        <pt x="918" y="56" on="0"/>
        <pt x="855" y="22" on="0"/>
        <pt x="823" y="19" on="1"/>
        <pt x="823" y="18" on="1"/>
        <pt x="920" y="16" on="1"/>
      </contour>
      <contour>
        <pt x="898" y="669" on="1"/>
        <pt x="882" y="668" on="0"/>
        <pt x="833" y="667" on="0"/>
        <pt x="813" y="667" on="1"/>
        <pt x="813" y="666" on="1"/>
        <pt x="842" y="665" on="0"/>
        <pt x="887" y="641" on="0"/>
        <pt x="905" y="627" on="1"/>
      </contour>
      <contour>
        <pt x="828" y="322" on="1"/>
        <pt x="827" y="329" on="0"/>
        <pt x="827" y="344" on="0"/>
        <pt x="827" y="352" on="1"/>
        <pt x="827" y="360" on="0"/>
        <pt x="827" y="374" on="0"/>
        <pt x="828" y="381" on="1"/>
        <pt x="820" y="368" on="0"/>
        <pt x="794" y="355" on="0"/>
        <pt x="780" y="353" on="1"/>
        <pt x="780" y="352" on="1"/>
        <pt x="810" y="349" on="0"/>
      </contour>
    </TTGlyph>
    <TTGlyph name="Oacute" xMin="45" yMin="-22" xMax="782" yMax="939">
      <component glyphName="O" x="0" y="0" flags="0x204"/>
      <component glyphName="acute" x="315" y="15" flags="0x4"/>
    </TTGlyph>
    <TTGlyph name="Obreve" xMin="45" yMin="-22" xMax="782" yMax="922">
      <component glyphName="O" x="0" y="0" flags="0x204"/>
      <component glyphName="breve" x="243" y="15" flags="0x4"/>
    </TTGlyph>
    <TTGlyph name="Ocircumflex" xMin="45" yMin="-22" xMax="782" yMax="925">
      <component glyphName="O" x="0" y="0" flags="0x204"/>
      <component glyphName="circumflex" x="243" y="15" flags="0x4"/>
    </TTGlyph>
    <TTGlyph name="Odieresis" xMin="45" yMin="-22" xMax="782" yMax="883">
      <component glyphName="O" x="0" y="0" flags="0x204"/>
      <component glyphName="dieresis" x="244" y="15" flags="0x4"/>
    </TTGlyph>
    <TTGlyph name="Ograve" xMin="45" yMin="-22" xMax="782" yMax="939">
      <component glyphName="O" x="0" y="0" flags="0x204"/>
      <component glyphName="grave" x="204" y="15" flags="0x4"/>
    </TTGlyph>
    <TTGlyph name="Ohungarumlaut" xMin="45" yMin="-22" xMax="782" yMax="940">
      <component glyphName="O" x="0" y="0" flags="0x204"/>
      <component glyphName="hungarumlaut" x="217" y="15" flags="0x4"/>
    </TTGlyph>
    <TTGlyph name="Omacron" xMin="45" yMin="-22" xMax="782" yMax="859">
      <component glyphName="O" x="0" y="0" flags="0x204"/>
      <component glyphName="macron" x="244" y="15" flags="0x4"/>
    </TTGlyph>
    <TTGlyph name="Oslash" xMin="45" yMin="-48" xMax="782" yMax="732">
      <contour>
        <pt x="782" y="338" on="1"/>
        <pt x="782" y="263" on="0"/>
        <pt x="731" y="131" on="0"/>
        <pt x="636" y="34" on="0"/>
        <pt x="499" y="-22" on="0"/>
        <pt x="413" y="-22" on="1"/>
        <pt x="353" y="-22" on="0"/>
        <pt x="252" y="5" on="0"/>
        <pt x="210" y="30" on="1"/>
        <pt x="158" y="-42" on="1"/>
        <pt x="152" y="-48" on="0"/>
        <pt x="140" y="-39" on="1"/>
        <pt x="135" y="-35" on="0"/>
        <pt x="129" y="-25" on="0"/>
        <pt x="131" y="-23" on="1"/>
        <pt x="182" y="48" on="1"/>
        <pt x="116" y="98" on="0"/>
        <pt x="45" y="247" on="0"/>
        <pt x="45" y="338" on="1"/>
        <pt x="45" y="413" on="0"/>
        <pt x="96" y="546" on="0"/>
        <pt x="191" y="647" on="0"/>
        <pt x="327" y="705" on="0"/>
        <pt x="413" y="705" on="1"/>
        <pt x="473" y="705" on="0"/>
        <pt x="573" y="677" on="0"/>
        <pt x="615" y="652" on="1"/>
        <pt x="620" y="657" on="0"/>
        <pt x="624" y="663" on="1"/>
        <pt x="628" y="668" on="0"/>
        <pt x="637" y="681" on="0"/>
        <pt x="642" y="689" on="1"/>
        <pt x="653" y="705" on="0"/>
        <pt x="669" y="726" on="1"/>
        <pt x="675" y="732" on="0"/>
        <pt x="687" y="723" on="1"/>
        <pt x="692" y="719" on="0"/>
        <pt x="697" y="710" on="0"/>
        <pt x="695" y="707" on="1"/>
        <pt x="642" y="633" on="1"/>
        <pt x="710" y="582" on="0"/>
        <pt x="782" y="429" on="0"/>
      </contour>
      <contour>
        <pt x="580" y="602" on="1"/>
        <pt x="548" y="635" on="0"/>
        <pt x="465" y="673" on="0"/>
        <pt x="413" y="673" on="1"/>
        <pt x="351" y="673" on="0"/>
        <pt x="255" y="620" on="0"/>
        <pt x="189" y="529" on="0"/>
        <pt x="155" y="407" on="0"/>
        <pt x="155" y="338" on="1"/>
        <pt x="155" y="268" on="0"/>
        <pt x="190" y="150" on="0"/>
        <pt x="223" y="105" on="1"/>
        <pt x="324" y="245" on="0"/>
        <pt x="402" y="354" on="1"/>
      </contour>
      <contour>
        <pt x="738" y="342" on="1"/>
        <pt x="738" y="399" on="0"/>
        <pt x="709" y="509" on="0"/>
        <pt x="648" y="600" on="0"/>
        <pt x="554" y="666" on="0"/>
        <pt x="490" y="680" on="1"/>
        <pt x="490" y="679" on="1"/>
        <pt x="539" y="663" on="0"/>
        <pt x="615" y="600" on="0"/>
        <pt x="668" y="512" on="0"/>
        <pt x="695" y="403" on="0"/>
        <pt x="695" y="342" on="1"/>
        <pt x="695" y="280" on="0"/>
        <pt x="668" y="170" on="0"/>
        <pt x="616" y="82" on="0"/>
        <pt x="540" y="18" on="0"/>
        <pt x="491" y="2" on="1"/>
        <pt x="491" y="1" on="1"/>
        <pt x="555" y="16" on="0"/>
        <pt x="648" y="83" on="0"/>
        <pt x="709" y="174" on="0"/>
        <pt x="738" y="284" on="0"/>
      </contour>
      <contour>
        <pt x="335" y="2" on="1"/>
        <pt x="287" y="14" on="0"/>
        <pt x="205" y="72" on="0"/>
        <pt x="145" y="161" on="0"/>
        <pt x="111" y="275" on="0"/>
        <pt x="111" y="342" on="1"/>
        <pt x="111" y="409" on="0"/>
        <pt x="145" y="522" on="0"/>
        <pt x="205" y="609" on="0"/>
        <pt x="287" y="667" on="0"/>
        <pt x="335" y="679" on="1"/>
        <pt x="335" y="680" on="1"/>
        <pt x="272" y="668" on="0"/>
        <pt x="172" y="606" on="0"/>
        <pt x="104" y="516" on="0"/>
        <pt x="68" y="404" on="0"/>
        <pt x="68" y="342" on="1"/>
        <pt x="68" y="279" on="0"/>
        <pt x="104" y="166" on="0"/>
        <pt x="172" y="76" on="0"/>
        <pt x="272" y="13" on="0"/>
        <pt x="335" y="1" on="1"/>
      </contour>
      <contour>
        <pt x="672" y="338" on="1"/>
        <pt x="672" y="409" on="0"/>
        <pt x="637" y="531" on="0"/>
        <pt x="602" y="577" on="1"/>
        <pt x="245" y="79" on="1"/>
        <pt x="277" y="47" on="0"/>
        <pt x="361" y="11" on="0"/>
        <pt x="413" y="11" on="1"/>
        <pt x="474" y="11" on="0"/>
        <pt x="571" y="61" on="0"/>
        <pt x="637" y="149" on="0"/>
        <pt x="672" y="269" on="0"/>
      </contour>
    </TTGlyph>
    <TTGlyph name="Oslashacute" xMin="45" yMin="-48" xMax="782" yMax="939">
      <component glyphName="Oslash" x="0" y="0" flags="0x204"/>
      <component glyphName="acute" x="310" y="15" flags="0x4"/>
    </TTGlyph>
    <TTGlyph name="Otilde" xMin="45" yMin="-22" xMax="782" yMax="934">
      <component glyphName="O" x="0" y="0" flags="0x204"/>
      <component glyphName="tilde" x="231" y="15" flags="0x4"/>
    </TTGlyph>
    <TTGlyph name="P" xMin="28" yMin="-6" xMax="596" yMax="690">
      <contour>
        <pt x="596" y="486" on="1"/>
        <pt x="596" y="442" on="0"/>
        <pt x="560" y="366" on="0"/>
        <pt x="496" y="310" on="0"/>
        <pt x="410" y="278" on="0"/>
        <pt x="360" y="278" on="1"/>
        <pt x="322" y="278" on="0"/>
        <pt x="268" y="281" on="0"/>
        <pt x="242" y="283" on="1"/>
        <pt x="242" y="106" on="1"/>
        <pt x="242" y="87" on="0"/>
        <pt x="247" y="59" on="0"/>
        <pt x="267" y="39" on="0"/>
        <pt x="309" y="26" on="0"/>
        <pt x="345" y="22" on="1"/>
        <pt x="353" y="20" on="0"/>
        <pt x="353" y="8" on="1"/>
        <pt x="353" y="-6" on="0"/>
        <pt x="345" y="-6" on="1"/>
        <pt x="320" y="-6" on="0"/>
        <pt x="283" y="-4" on="0"/>
        <pt x="250" y="-2" on="0"/>
        <pt x="214" y="0" on="0"/>
        <pt x="191" y="0" on="1"/>
        <pt x="168" y="0" on="0"/>
        <pt x="132" y="-2" on="0"/>
        <pt x="98" y="-4" on="0"/>
        <pt x="61" y="-6" on="0"/>
        <pt x="36" y="-6" on="1"/>
        <pt x="28" y="-6" on="0"/>
        <pt x="28" y="8" on="1"/>
        <pt x="28" y="20" on="0"/>
        <pt x="36" y="22" on="1"/>
        <pt x="72" y="26" on="0"/>
        <pt x="114" y="39" on="0"/>
        <pt x="135" y="59" on="0"/>
        <pt x="140" y="87" on="0"/>
        <pt x="140" y="106" on="1"/>
        <pt x="140" y="577" on="1"/>
        <pt x="140" y="596" on="0"/>
        <pt x="135" y="625" on="0"/>
        <pt x="114" y="644" on="0"/>
        <pt x="72" y="657" on="0"/>
        <pt x="36" y="662" on="1"/>
        <pt x="28" y="662" on="0"/>
        <pt x="28" y="676" on="1"/>
        <pt x="28" y="681" on="0"/>
        <pt x="33" y="690" on="0"/>
        <pt x="36" y="690" on="1"/>
        <pt x="61" y="690" on="0"/>
        <pt x="98" y="688" on="0"/>
        <pt x="132" y="686" on="0"/>
        <pt x="168" y="684" on="0"/>
        <pt x="191" y="684" on="1"/>
        <pt x="214" y="684" on="0"/>
        <pt x="250" y="686" on="0"/>
        <pt x="283" y="688" on="0"/>
        <pt x="320" y="690" on="0"/>
        <pt x="345" y="690" on="1"/>
        <pt x="411" y="690" on="0"/>
        <pt x="506" y="661" on="0"/>
        <pt x="567" y="607" on="0"/>
        <pt x="596" y="532" on="0"/>
      </contour>
      <contour>
        <pt x="485" y="486" on="1"/>
        <pt x="485" y="531" on="0"/>
        <pt x="461" y="596" on="0"/>
        <pt x="420" y="637" on="0"/>
        <pt x="368" y="656" on="0"/>
        <pt x="341" y="656" on="1"/>
        <pt x="305" y="656" on="0"/>
        <pt x="265" y="646" on="0"/>
        <pt x="246" y="626" on="0"/>
        <pt x="242" y="596" on="0"/>
        <pt x="242" y="577" on="1"/>
        <pt x="242" y="347" on="1"/>
        <pt x="242" y="324" on="0"/>
        <pt x="273" y="311" on="0"/>
        <pt x="314" y="311" on="1"/>
        <pt x="360" y="311" on="0"/>
        <pt x="425" y="339" on="0"/>
        <pt x="466" y="387" on="0"/>
        <pt x="485" y="450" on="0"/>
      </contour>
      <contour>
        <pt x="552" y="486" on="1"/>
        <pt x="552" y="524" on="0"/>
        <pt x="529" y="590" on="0"/>
        <pt x="482" y="640" on="0"/>
        <pt x="411" y="670" on="0"/>
        <pt x="363" y="671" on="1"/>
        <pt x="363" y="670" on="1"/>
        <pt x="399" y="667" on="0"/>
        <pt x="453" y="634" on="0"/>
        <pt x="488" y="584" on="0"/>
        <pt x="505" y="520" on="0"/>
        <pt x="505" y="486" on="1"/>
        <pt x="505" y="450" on="0"/>
        <pt x="484" y="381" on="0"/>
        <pt x="441" y="327" on="0"/>
        <pt x="375" y="295" on="0"/>
        <pt x="330" y="296" on="1"/>
        <pt x="330" y="295" on="1"/>
        <pt x="375" y="290" on="0"/>
        <pt x="455" y="316" on="0"/>
        <pt x="516" y="368" on="0"/>
        <pt x="552" y="442" on="0"/>
      </contour>
      <contour>
        <pt x="252" y="17" on="1"/>
        <pt x="223" y="22" on="0"/>
        <pt x="198" y="67" on="0"/>
        <pt x="198" y="91" on="1"/>
        <pt x="198" y="592" on="1"/>
        <pt x="198" y="621" on="0"/>
        <pt x="217" y="661" on="0"/>
        <pt x="248" y="666" on="1"/>
        <pt x="248" y="667" on="1"/>
        <pt x="230" y="665" on="0"/>
        <pt x="202" y="664" on="0"/>
        <pt x="179" y="664" on="1"/>
        <pt x="156" y="664" on="0"/>
        <pt x="123" y="665" on="0"/>
        <pt x="106" y="667" on="1"/>
        <pt x="106" y="666" on="1"/>
        <pt x="135" y="659" on="0"/>
        <pt x="160" y="616" on="0"/>
        <pt x="160" y="592" on="1"/>
        <pt x="160" y="91" on="1"/>
        <pt x="160" y="66" on="0"/>
        <pt x="134" y="23" on="0"/>
        <pt x="106" y="17" on="1"/>
        <pt x="106" y="16" on="1"/>
        <pt x="124" y="18" on="0"/>
        <pt x="156" y="20" on="0"/>
        <pt x="179" y="20" on="1"/>
        <pt x="202" y="20" on="0"/>
        <pt x="235" y="18" on="0"/>
        <pt x="252" y="16" on="1"/>
      </contour>
    </TTGlyph>
    <TTGlyph name="Q" xMin="45" yMin="-210" xMax="795" yMax="705">
      <contour>
        <pt x="795" y="-179" on="1"/>
        <pt x="795" y="-192" on="0"/>
        <pt x="787" y="-193" on="1"/>
        <pt x="764" y="-200" on="0"/>
        <pt x="694" y="-210" on="0"/>
        <pt x="656" y="-210" on="1"/>
        <pt x="607" y="-210" on="0"/>
        <pt x="512" y="-184" on="0"/>
        <pt x="430" y="-134" on="0"/>
        <pt x="366" y="-62" on="0"/>
        <pt x="348" y="-17" on="1"/>
        <pt x="277" y="-7" on="0"/>
        <pt x="164" y="56" on="0"/>
        <pt x="86" y="150" on="0"/>
        <pt x="45" y="270" on="0"/>
        <pt x="45" y="338" on="1"/>
        <pt x="45" y="413" on="0"/>
        <pt x="96" y="547" on="0"/>
        <pt x="191" y="647" on="0"/>
        <pt x="328" y="705" on="0"/>
        <pt x="414" y="705" on="1"/>
        <pt x="500" y="705" on="0"/>
        <pt x="636" y="647" on="0"/>
        <pt x="731" y="547" on="0"/>
        <pt x="782" y="413" on="0"/>
        <pt x="782" y="338" on="1"/>
        <pt x="782" y="270" on="0"/>
        <pt x="741" y="150" on="0"/>
        <pt x="663" y="56" on="0"/>
        <pt x="551" y="-7" on="0"/>
        <pt x="480" y="-17" on="1"/>
        <pt x="504" y="-61" on="0"/>
        <pt x="562" y="-119" on="0"/>
        <pt x="626" y="-154" on="0"/>
        <pt x="695" y="-169" on="0"/>
        <pt x="731" y="-169" on="1"/>
        <pt x="745" y="-169" on="0"/>
        <pt x="773" y="-167" on="0"/>
        <pt x="787" y="-165" on="1"/>
        <pt x="791" y="-165" on="0"/>
        <pt x="795" y="-174" on="0"/>
      </contour>
      <contour>
        <pt x="738" y="342" on="1"/>
        <pt x="738" y="399" on="0"/>
        <pt x="709" y="509" on="0"/>
        <pt x="648" y="600" on="0"/>
        <pt x="554" y="666" on="0"/>
        <pt x="490" y="680" on="1"/>
        <pt x="490" y="679" on="1"/>
        <pt x="539" y="663" on="0"/>
        <pt x="615" y="600" on="0"/>
        <pt x="668" y="512" on="0"/>
        <pt x="695" y="403" on="0"/>
        <pt x="695" y="342" on="1"/>
        <pt x="695" y="280" on="0"/>
        <pt x="668" y="170" on="0"/>
        <pt x="616" y="82" on="0"/>
        <pt x="540" y="18" on="0"/>
        <pt x="491" y="2" on="1"/>
        <pt x="491" y="1" on="1"/>
        <pt x="555" y="16" on="0"/>
        <pt x="648" y="83" on="0"/>
        <pt x="709" y="174" on="0"/>
        <pt x="738" y="284" on="0"/>
      </contour>
      <contour>
        <pt x="672" y="338" on="1"/>
        <pt x="672" y="407" on="0"/>
        <pt x="637" y="529" on="0"/>
        <pt x="571" y="620" on="0"/>
        <pt x="475" y="673" on="0"/>
        <pt x="414" y="673" on="1"/>
        <pt x="352" y="673" on="0"/>
        <pt x="256" y="620" on="0"/>
        <pt x="190" y="529" on="0"/>
        <pt x="156" y="407" on="0"/>
        <pt x="156" y="338" on="1"/>
        <pt x="156" y="269" on="0"/>
        <pt x="190" y="148" on="0"/>
        <pt x="256" y="60" on="0"/>
        <pt x="352" y="9" on="0"/>
        <pt x="414" y="9" on="1"/>
        <pt x="475" y="9" on="0"/>
        <pt x="571" y="60" on="0"/>
        <pt x="637" y="148" on="0"/>
        <pt x="672" y="269" on="0"/>
      </contour>
      <contour>
        <pt x="335" y="2" on="1"/>
        <pt x="287" y="14" on="0"/>
        <pt x="205" y="72" on="0"/>
        <pt x="145" y="161" on="0"/>
        <pt x="111" y="275" on="0"/>
        <pt x="111" y="342" on="1"/>
        <pt x="111" y="409" on="0"/>
        <pt x="145" y="522" on="0"/>
        <pt x="205" y="609" on="0"/>
        <pt x="287" y="667" on="0"/>
        <pt x="335" y="679" on="1"/>
        <pt x="335" y="680" on="1"/>
        <pt x="272" y="668" on="0"/>
        <pt x="172" y="606" on="0"/>
        <pt x="104" y="516" on="0"/>
        <pt x="68" y="404" on="0"/>
        <pt x="68" y="342" on="1"/>
        <pt x="68" y="279" on="0"/>
        <pt x="104" y="166" on="0"/>
        <pt x="172" y="76" on="0"/>
        <pt x="272" y="13" on="0"/>
        <pt x="335" y="1" on="1"/>
      </contour>
      <contour>
        <pt x="689" y="-189" on="1"/>
        <pt x="639" y="-188" on="0"/>
        <pt x="556" y="-160" on="0"/>
        <pt x="492" y="-113" on="0"/>
        <pt x="448" y="-54" on="0"/>
        <pt x="436" y="-21" on="1"/>
        <pt x="414" y="-21" on="1"/>
        <pt x="403" y="-21" on="0"/>
        <pt x="382" y="-21" on="0"/>
        <pt x="371" y="-20" on="1"/>
        <pt x="389" y="-59" on="0"/>
        <pt x="447" y="-123" on="0"/>
        <pt x="520" y="-168" on="0"/>
        <pt x="608" y="-192" on="0"/>
        <pt x="656" y="-192" on="1"/>
        <pt x="663" y="-192" on="0"/>
        <pt x="682" y="-191" on="0"/>
        <pt x="689" y="-190" on="1"/>
      </contour>
    </TTGlyph>
    <TTGlyph name="Q.alt" xMin="45" yMin="-279" xMax="1298" yMax="705">
      <contour>
        <pt x="1292" y="-219" on="1"/>
        <pt x="1275" y="-234" on="0"/>
        <pt x="1222" y="-257" on="0"/>
        <pt x="1162" y="-272" on="0"/>
        <pt x="1104" y="-279" on="0"/>
        <pt x="1082" y="-279" on="1"/>
        <pt x="978" y="-279" on="0"/>
        <pt x="778" y="-237" on="0"/>
        <pt x="588" y="-164" on="0"/>
        <pt x="408" y="-67" on="0"/>
        <pt x="326" y="-13" on="1"/>
        <pt x="260" y="0" on="0"/>
        <pt x="156" y="64" on="0"/>
        <pt x="83" y="157" on="0"/>
        <pt x="45" y="273" on="0"/>
        <pt x="45" y="338" on="1"/>
        <pt x="45" y="413" on="0"/>
        <pt x="96" y="546" on="0"/>
        <pt x="191" y="647" on="0"/>
        <pt x="328" y="705" on="0"/>
        <pt x="414" y="705" on="1"/>
        <pt x="500" y="705" on="0"/>
        <pt x="636" y="647" on="0"/>
        <pt x="731" y="546" on="0"/>
        <pt x="782" y="413" on="0"/>
        <pt x="782" y="338" on="1"/>
        <pt x="782" y="273" on="0"/>
        <pt x="745" y="158" on="0"/>
        <pt x="674" y="66" on="0"/>
        <pt x="572" y="2" on="0"/>
        <pt x="507" y="-12" on="1"/>
        <pt x="562" y="-49" on="0"/>
        <pt x="711" y="-126" on="0"/>
        <pt x="874" y="-188" on="0"/>
        <pt x="1041" y="-228" on="0"/>
        <pt x="1113" y="-228" on="1"/>
        <pt x="1179" y="-228" on="0"/>
        <pt x="1255" y="-212" on="0"/>
        <pt x="1278" y="-195" on="1"/>
        <pt x="1280" y="-193" on="0"/>
        <pt x="1289" y="-198" on="0"/>
        <pt x="1292" y="-203" on="1"/>
        <pt x="1298" y="-213" on="0"/>
      </contour>
      <contour>
        <pt x="672" y="338" on="1"/>
        <pt x="672" y="407" on="0"/>
        <pt x="637" y="529" on="0"/>
        <pt x="571" y="620" on="0"/>
        <pt x="475" y="673" on="0"/>
        <pt x="414" y="673" on="1"/>
        <pt x="352" y="673" on="0"/>
        <pt x="256" y="620" on="0"/>
        <pt x="190" y="529" on="0"/>
        <pt x="156" y="407" on="0"/>
        <pt x="156" y="338" on="1"/>
        <pt x="156" y="269" on="0"/>
        <pt x="190" y="148" on="0"/>
        <pt x="256" y="60" on="0"/>
        <pt x="352" y="9" on="0"/>
        <pt x="414" y="9" on="1"/>
        <pt x="475" y="9" on="0"/>
        <pt x="571" y="60" on="0"/>
        <pt x="637" y="148" on="0"/>
        <pt x="672" y="269" on="0"/>
      </contour>
      <contour>
        <pt x="347" y="-1" on="1"/>
        <pt x="296" y="8" on="0"/>
        <pt x="210" y="66" on="0"/>
        <pt x="147" y="156" on="0"/>
        <pt x="112" y="274" on="0"/>
        <pt x="112" y="342" on="1"/>
        <pt x="112" y="410" on="0"/>
        <pt x="146" y="525" on="0"/>
        <pt x="208" y="614" on="0"/>
        <pt x="295" y="671" on="0"/>
        <pt x="347" y="682" on="1"/>
        <pt x="347" y="683" on="1"/>
        <pt x="281" y="672" on="0"/>
        <pt x="177" y="610" on="0"/>
        <pt x="105" y="519" on="0"/>
        <pt x="68" y="405" on="0"/>
        <pt x="68" y="342" on="1"/>
        <pt x="68" y="278" on="0"/>
        <pt x="105" y="163" on="0"/>
        <pt x="177" y="71" on="0"/>
        <pt x="281" y="8" on="0"/>
        <pt x="347" y="-2" on="1"/>
      </contour>
      <contour>
        <pt x="739" y="342" on="1"/>
        <pt x="739" y="400" on="0"/>
        <pt x="708" y="511" on="0"/>
        <pt x="645" y="603" on="0"/>
        <pt x="548" y="669" on="0"/>
        <pt x="482" y="682" on="1"/>
        <pt x="482" y="681" on="1"/>
        <pt x="533" y="668" on="0"/>
        <pt x="612" y="606" on="0"/>
        <pt x="666" y="516" on="0"/>
        <pt x="695" y="404" on="0"/>
        <pt x="695" y="342" on="1"/>
        <pt x="695" y="279" on="0"/>
        <pt x="666" y="165" on="0"/>
        <pt x="611" y="74" on="0"/>
        <pt x="531" y="11" on="0"/>
        <pt x="481" y="-1" on="1"/>
        <pt x="481" y="-2" on="1"/>
        <pt x="547" y="11" on="0"/>
        <pt x="644" y="78" on="0"/>
        <pt x="708" y="171" on="0"/>
        <pt x="739" y="283" on="0"/>
      </contour>
      <contour>
        <pt x="1081" y="-263" on="1"/>
        <pt x="1038" y="-262" on="0"/>
        <pt x="933" y="-242" on="0"/>
        <pt x="819" y="-208" on="0"/>
        <pt x="701" y="-162" on="0"/>
        <pt x="589" y="-109" on="0"/>
        <pt x="489" y="-50" on="0"/>
        <pt x="450" y="-20" on="1"/>
        <pt x="442" y="-21" on="0"/>
        <pt x="421" y="-22" on="0"/>
        <pt x="414" y="-22" on="1"/>
        <pt x="403" y="-22" on="0"/>
        <pt x="383" y="-21" on="0"/>
        <pt x="372" y="-20" on="1"/>
        <pt x="449" y="-69" on="0"/>
        <pt x="618" y="-157" on="0"/>
        <pt x="796" y="-224" on="0"/>
        <pt x="984" y="-264" on="0"/>
        <pt x="1081" y="-264" on="1"/>
      </contour>
    </TTGlyph>
    <TTGlyph name="R" xMin="29" yMin="-6" xMax="725" yMax="690">
      <contour>
        <pt x="725" y="8" on="1"/>
        <pt x="725" y="-6" on="0"/>
        <pt x="717" y="-6" on="1"/>
        <pt x="691" y="-6" on="0"/>
        <pt x="633" y="0" on="0"/>
        <pt x="616" y="0" on="1"/>
        <pt x="594" y="0" on="0"/>
        <pt x="547" y="-6" on="0"/>
        <pt x="525" y="-6" on="1"/>
        <pt x="373" y="241" on="1"/>
        <pt x="356" y="268" on="0"/>
        <pt x="332" y="300" on="0"/>
        <pt x="306" y="316" on="0"/>
        <pt x="270" y="321" on="0"/>
        <pt x="242" y="321" on="1"/>
        <pt x="242" y="106" on="1"/>
        <pt x="242" y="87" on="0"/>
        <pt x="247" y="59" on="0"/>
        <pt x="268" y="39" on="0"/>
        <pt x="310" y="26" on="0"/>
        <pt x="346" y="22" on="1"/>
        <pt x="354" y="20" on="0"/>
        <pt x="354" y="8" on="1"/>
        <pt x="354" y="-6" on="0"/>
        <pt x="346" y="-6" on="1"/>
        <pt x="321" y="-6" on="0"/>
        <pt x="284" y="-4" on="0"/>
        <pt x="250" y="-2" on="0"/>
        <pt x="214" y="0" on="0"/>
        <pt x="191" y="0" on="1"/>
        <pt x="168" y="0" on="0"/>
        <pt x="132" y="-2" on="0"/>
        <pt x="99" y="-4" on="0"/>
        <pt x="62" y="-6" on="0"/>
        <pt x="37" y="-6" on="1"/>
        <pt x="29" y="-6" on="0"/>
        <pt x="29" y="8" on="1"/>
        <pt x="29" y="20" on="0"/>
        <pt x="37" y="22" on="1"/>
        <pt x="73" y="26" on="0"/>
        <pt x="115" y="39" on="0"/>
        <pt x="135" y="59" on="0"/>
        <pt x="140" y="87" on="0"/>
        <pt x="140" y="106" on="1"/>
        <pt x="140" y="577" on="1"/>
        <pt x="140" y="596" on="0"/>
        <pt x="135" y="625" on="0"/>
        <pt x="115" y="644" on="0"/>
        <pt x="73" y="657" on="0"/>
        <pt x="37" y="662" on="1"/>
        <pt x="29" y="662" on="0"/>
        <pt x="29" y="676" on="1"/>
        <pt x="29" y="681" on="0"/>
        <pt x="33" y="690" on="0"/>
        <pt x="37" y="690" on="1"/>
        <pt x="62" y="690" on="0"/>
        <pt x="99" y="688" on="0"/>
        <pt x="132" y="686" on="0"/>
        <pt x="168" y="684" on="0"/>
        <pt x="191" y="684" on="1"/>
        <pt x="214" y="684" on="0"/>
        <pt x="250" y="686" on="0"/>
        <pt x="284" y="688" on="0"/>
        <pt x="321" y="690" on="0"/>
        <pt x="346" y="690" on="1"/>
        <pt x="462" y="690" on="0"/>
        <pt x="580" y="593" on="0"/>
        <pt x="580" y="510" on="1"/>
        <pt x="580" y="481" on="0"/>
        <pt x="557" y="430" on="0"/>
        <pt x="515" y="386" on="0"/>
        <pt x="457" y="350" on="0"/>
        <pt x="423" y="338" on="1"/>
        <pt x="585" y="92" on="1"/>
        <pt x="591" y="81" on="0"/>
        <pt x="609" y="60" on="0"/>
        <pt x="639" y="41" on="0"/>
        <pt x="684" y="26" on="0"/>
        <pt x="718" y="22" on="1"/>
        <pt x="725" y="20" on="0"/>
      </contour>
      <contour>
        <pt x="536" y="510" on="1"/>
        <pt x="536" y="545" on="0"/>
        <pt x="518" y="603" on="0"/>
        <pt x="477" y="646" on="0"/>
        <pt x="413" y="670" on="0"/>
        <pt x="367" y="671" on="1"/>
        <pt x="367" y="670" on="1"/>
        <pt x="401" y="668" on="0"/>
        <pt x="448" y="641" on="0"/>
        <pt x="478" y="597" on="0"/>
        <pt x="491" y="541" on="0"/>
        <pt x="491" y="510" on="1"/>
        <pt x="491" y="447" on="0"/>
        <pt x="451" y="371" on="0"/>
        <pt x="416" y="354" on="1"/>
        <pt x="416" y="353" on="1"/>
        <pt x="467" y="376" on="0"/>
        <pt x="536" y="453" on="0"/>
      </contour>
      <contour>
        <pt x="470" y="510" on="1"/>
        <pt x="470" y="541" on="0"/>
        <pt x="457" y="595" on="0"/>
        <pt x="427" y="634" on="0"/>
        <pt x="378" y="656" on="0"/>
        <pt x="342" y="656" on="1"/>
        <pt x="305" y="656" on="0"/>
        <pt x="265" y="646" on="0"/>
        <pt x="246" y="626" on="0"/>
        <pt x="242" y="596" on="0"/>
        <pt x="242" y="577" on="1"/>
        <pt x="242" y="354" on="1"/>
        <pt x="259" y="352" on="0"/>
        <pt x="293" y="350" on="0"/>
        <pt x="315" y="350" on="1"/>
        <pt x="401" y="350" on="0"/>
        <pt x="470" y="431" on="0"/>
      </contour>
      <contour>
        <pt x="252" y="17" on="1"/>
        <pt x="224" y="22" on="0"/>
        <pt x="198" y="67" on="0"/>
        <pt x="198" y="91" on="1"/>
        <pt x="198" y="592" on="1"/>
        <pt x="198" y="617" on="0"/>
        <pt x="216" y="662" on="0"/>
        <pt x="247" y="666" on="1"/>
        <pt x="247" y="667" on="1"/>
        <pt x="229" y="665" on="0"/>
        <pt x="202" y="664" on="0"/>
        <pt x="179" y="664" on="1"/>
        <pt x="156" y="664" on="0"/>
        <pt x="123" y="665" on="0"/>
        <pt x="106" y="667" on="1"/>
        <pt x="106" y="666" on="1"/>
        <pt x="136" y="660" on="0"/>
        <pt x="160" y="616" on="0"/>
        <pt x="160" y="592" on="1"/>
        <pt x="160" y="91" on="1"/>
        <pt x="160" y="66" on="0"/>
        <pt x="134" y="23" on="0"/>
        <pt x="106" y="17" on="1"/>
        <pt x="106" y="16" on="1"/>
        <pt x="124" y="18" on="0"/>
        <pt x="156" y="20" on="0"/>
        <pt x="179" y="20" on="1"/>
        <pt x="202" y="20" on="0"/>
        <pt x="235" y="18" on="0"/>
        <pt x="252" y="16" on="1"/>
      </contour>
      <contour>
        <pt x="607" y="19" on="1"/>
        <pt x="590" y="27" on="0"/>
        <pt x="571" y="47" on="0"/>
        <pt x="560" y="63" on="1"/>
        <pt x="380" y="335" on="1"/>
        <pt x="370" y="333" on="0"/>
        <pt x="338" y="330" on="0"/>
        <pt x="325" y="330" on="1"/>
        <pt x="317" y="330" on="1"/>
        <pt x="317" y="329" on="1"/>
        <pt x="339" y="323" on="0"/>
        <pt x="368" y="288" on="0"/>
        <pt x="388" y="256" on="1"/>
        <pt x="537" y="14" on="1"/>
        <pt x="552" y="15" on="0"/>
        <pt x="592" y="17" on="0"/>
      </contour>
    </TTGlyph>
    <TTGlyph name="R_p" xMin="29" yMin="-264" xMax="1124" yMax="690">
      <contour>
        <pt x="1124" y="208" on="1"/>
        <pt x="1124" y="160" on="0"/>
        <pt x="1090" y="77" on="0"/>
        <pt x="1028" y="15" on="0"/>
        <pt x="940" y="-20" on="0"/>
        <pt x="887" y="-20" on="1"/>
        <pt x="853" y="-20" on="0"/>
        <pt x="805" y="-9" on="0"/>
        <pt x="785" y="2" on="1"/>
        <pt x="785" y="-152" on="1"/>
        <pt x="785" y="-176" on="0"/>
        <pt x="790" y="-206" on="0"/>
        <pt x="804" y="-224" on="0"/>
        <pt x="830" y="-233" on="0"/>
        <pt x="852" y="-236" on="1"/>
        <pt x="860" y="-238" on="0"/>
        <pt x="860" y="-250" on="1"/>
        <pt x="860" y="-264" on="0"/>
        <pt x="852" y="-264" on="1"/>
        <pt x="836" y="-264" on="0"/>
        <pt x="811" y="-262" on="0"/>
        <pt x="786" y="-260" on="0"/>
        <pt x="758" y="-258" on="0"/>
        <pt x="740" y="-258" on="1"/>
        <pt x="722" y="-258" on="0"/>
        <pt x="694" y="-260" on="0"/>
        <pt x="669" y="-262" on="0"/>
        <pt x="644" y="-264" on="0"/>
        <pt x="628" y="-264" on="1"/>
        <pt x="620" y="-264" on="0"/>
        <pt x="620" y="-250" on="1"/>
        <pt x="620" y="-238" on="0"/>
        <pt x="628" y="-236" on="1"/>
        <pt x="650" y="-233" on="0"/>
        <pt x="676" y="-224" on="0"/>
        <pt x="690" y="-206" on="0"/>
        <pt x="695" y="-176" on="0"/>
        <pt x="695" y="-152" on="1"/>
        <pt x="695" y="-5" on="1"/>
        <pt x="673" y="-4" on="0"/>
        <pt x="630" y="0" on="0"/>
        <pt x="616" y="0" on="1"/>
        <pt x="594" y="0" on="0"/>
        <pt x="547" y="-6" on="0"/>
        <pt x="524" y="-6" on="1"/>
        <pt x="373" y="241" on="1"/>
        <pt x="356" y="268" on="0"/>
        <pt x="332" y="300" on="0"/>
        <pt x="306" y="317" on="0"/>
        <pt x="270" y="321" on="0"/>
        <pt x="242" y="321" on="1"/>
        <pt x="242" y="107" on="1"/>
        <pt x="242" y="87" on="0"/>
        <pt x="247" y="59" on="0"/>
        <pt x="268" y="39" on="0"/>
        <pt x="310" y="26" on="0"/>
        <pt x="346" y="22" on="1"/>
        <pt x="354" y="22" on="0"/>
        <pt x="354" y="8" on="1"/>
        <pt x="354" y="-6" on="0"/>
        <pt x="346" y="-6" on="1"/>
        <pt x="321" y="-6" on="0"/>
        <pt x="284" y="-4" on="0"/>
        <pt x="250" y="-2" on="0"/>
        <pt x="214" y="0" on="0"/>
        <pt x="191" y="0" on="1"/>
        <pt x="168" y="0" on="0"/>
        <pt x="132" y="-2" on="0"/>
        <pt x="99" y="-4" on="0"/>
        <pt x="62" y="-6" on="0"/>
        <pt x="37" y="-6" on="1"/>
        <pt x="29" y="-6" on="0"/>
        <pt x="29" y="8" on="1"/>
        <pt x="29" y="22" on="0"/>
        <pt x="37" y="22" on="1"/>
        <pt x="73" y="26" on="0"/>
        <pt x="115" y="39" on="0"/>
        <pt x="135" y="59" on="0"/>
        <pt x="140" y="87" on="0"/>
        <pt x="140" y="107" on="1"/>
        <pt x="140" y="577" on="1"/>
        <pt x="140" y="596" on="0"/>
        <pt x="135" y="625" on="0"/>
        <pt x="115" y="645" on="0"/>
        <pt x="73" y="658" on="0"/>
        <pt x="37" y="662" on="1"/>
        <pt x="29" y="662" on="0"/>
        <pt x="29" y="676" on="1"/>
        <pt x="29" y="690" on="0"/>
        <pt x="37" y="690" on="1"/>
        <pt x="62" y="690" on="0"/>
        <pt x="99" y="688" on="0"/>
        <pt x="132" y="686" on="0"/>
        <pt x="168" y="684" on="0"/>
        <pt x="191" y="684" on="1"/>
        <pt x="214" y="684" on="0"/>
        <pt x="250" y="686" on="0"/>
        <pt x="284" y="688" on="0"/>
        <pt x="321" y="690" on="0"/>
        <pt x="346" y="690" on="1"/>
        <pt x="462" y="690" on="0"/>
        <pt x="580" y="593" on="0"/>
        <pt x="580" y="510" on="1"/>
        <pt x="580" y="453" on="0"/>
        <pt x="491" y="363" on="0"/>
        <pt x="422" y="338" on="1"/>
        <pt x="585" y="92" on="1"/>
        <pt x="591" y="83" on="0"/>
        <pt x="607" y="63" on="0"/>
        <pt x="632" y="45" on="0"/>
        <pt x="668" y="30" on="0"/>
        <pt x="695" y="25" on="1"/>
        <pt x="695" y="291" on="1"/>
        <pt x="695" y="311" on="0"/>
        <pt x="691" y="336" on="0"/>
        <pt x="679" y="351" on="0"/>
        <pt x="658" y="358" on="0"/>
        <pt x="640" y="360" on="1"/>
        <pt x="632" y="362" on="0"/>
        <pt x="632" y="373" on="1"/>
        <pt x="632" y="386" on="0"/>
        <pt x="640" y="386" on="1"/>
        <pt x="675" y="394" on="0"/>
        <pt x="736" y="419" on="0"/>
        <pt x="761" y="437" on="1"/>
        <pt x="763" y="439" on="0"/>
        <pt x="769" y="445" on="0"/>
        <pt x="775" y="445" on="1"/>
        <pt x="780" y="445" on="0"/>
        <pt x="789" y="440" on="0"/>
        <pt x="789" y="437" on="1"/>
        <pt x="785" y="374" on="1"/>
        <pt x="812" y="403" on="0"/>
        <pt x="884" y="441" on="0"/>
        <pt x="909" y="441" on="1"/>
        <pt x="963" y="441" on="0"/>
        <pt x="1043" y="404" on="0"/>
        <pt x="1097" y="340" on="0"/>
        <pt x="1124" y="256" on="0"/>
      </contour>
      <contour>
        <pt x="1023" y="208" on="1"/>
        <pt x="1023" y="292" on="0"/>
        <pt x="951" y="385" on="0"/>
        <pt x="884" y="385" on="1"/>
        <pt x="850" y="385" on="0"/>
        <pt x="807" y="356" on="0"/>
        <pt x="785" y="331" on="1"/>
        <pt x="785" y="87" on="1"/>
        <pt x="785" y="53" on="0"/>
        <pt x="844" y="11" on="0"/>
        <pt x="883" y="11" on="1"/>
        <pt x="920" y="11" on="0"/>
        <pt x="973" y="41" on="0"/>
        <pt x="1007" y="94" on="0"/>
        <pt x="1023" y="166" on="0"/>
      </contour>
      <contour>
        <pt x="470" y="510" on="1"/>
        <pt x="470" y="541" on="0"/>
        <pt x="457" y="595" on="0"/>
        <pt x="427" y="634" on="0"/>
        <pt x="378" y="656" on="0"/>
        <pt x="342" y="656" on="1"/>
        <pt x="305" y="656" on="0"/>
        <pt x="265" y="646" on="0"/>
        <pt x="246" y="626" on="0"/>
        <pt x="242" y="596" on="0"/>
        <pt x="242" y="577" on="1"/>
        <pt x="242" y="354" on="1"/>
        <pt x="259" y="352" on="0"/>
        <pt x="293" y="350" on="0"/>
        <pt x="315" y="350" on="1"/>
        <pt x="401" y="350" on="0"/>
        <pt x="470" y="431" on="0"/>
      </contour>
      <contour>
        <pt x="252" y="18" on="1"/>
        <pt x="224" y="23" on="0"/>
        <pt x="198" y="67" on="0"/>
        <pt x="198" y="91" on="1"/>
        <pt x="198" y="592" on="1"/>
        <pt x="198" y="617" on="0"/>
        <pt x="216" y="662" on="0"/>
        <pt x="248" y="666" on="1"/>
        <pt x="248" y="667" on="1"/>
        <pt x="230" y="665" on="0"/>
        <pt x="202" y="664" on="0"/>
        <pt x="179" y="664" on="1"/>
        <pt x="156" y="664" on="0"/>
        <pt x="124" y="666" on="0"/>
        <pt x="107" y="668" on="1"/>
        <pt x="107" y="667" on="1"/>
        <pt x="136" y="660" on="0"/>
        <pt x="160" y="616" on="0"/>
        <pt x="160" y="592" on="1"/>
        <pt x="160" y="91" on="1"/>
        <pt x="160" y="66" on="0"/>
        <pt x="134" y="23" on="0"/>
        <pt x="106" y="18" on="1"/>
        <pt x="106" y="17" on="1"/>
        <pt x="124" y="19" on="0"/>
        <pt x="156" y="20" on="0"/>
        <pt x="179" y="20" on="1"/>
        <pt x="202" y="20" on="0"/>
        <pt x="235" y="19" on="0"/>
        <pt x="252" y="17" on="1"/>
      </contour>
      <contour>
        <pt x="775" y="-239" on="1"/>
        <pt x="761" y="-231" on="0"/>
        <pt x="747" y="-193" on="0"/>
        <pt x="747" y="-168" on="1"/>
        <pt x="747" y="315" on="1"/>
        <pt x="747" y="334" on="0"/>
        <pt x="747" y="361" on="0"/>
        <pt x="747" y="381" on="0"/>
        <pt x="748" y="397" on="0"/>
        <pt x="749" y="406" on="1"/>
        <pt x="732" y="397" on="0"/>
        <pt x="694" y="380" on="0"/>
        <pt x="673" y="375" on="1"/>
        <pt x="673" y="374" on="1"/>
        <pt x="699" y="366" on="0"/>
        <pt x="715" y="323" on="0"/>
        <pt x="715" y="291" on="1"/>
        <pt x="715" y="-168" on="1"/>
        <pt x="715" y="-193" on="0"/>
        <pt x="702" y="-231" on="0"/>
        <pt x="686" y="-240" on="1"/>
        <pt x="686" y="-241" on="1"/>
        <pt x="696" y="-240" on="0"/>
        <pt x="725" y="-238" on="0"/>
        <pt x="740" y="-238" on="1"/>
        <pt x="748" y="-238" on="0"/>
        <pt x="768" y="-239" on="0"/>
        <pt x="775" y="-240" on="1"/>
      </contour>
      <contour>
        <pt x="1086" y="208" on="1"/>
        <pt x="1086" y="256" on="0"/>
        <pt x="1064" y="334" on="0"/>
        <pt x="1020" y="390" on="0"/>
        <pt x="953" y="421" on="0"/>
        <pt x="909" y="421" on="1"/>
        <pt x="896" y="421" on="0"/>
        <pt x="859" y="408" on="0"/>
        <pt x="842" y="398" on="1"/>
        <pt x="842" y="397" on="1"/>
        <pt x="851" y="401" on="0"/>
        <pt x="874" y="405" on="0"/>
        <pt x="884" y="405" on="1"/>
        <pt x="922" y="405" on="0"/>
        <pt x="981" y="375" on="0"/>
        <pt x="1021" y="322" on="0"/>
        <pt x="1042" y="250" on="0"/>
        <pt x="1042" y="208" on="1"/>
        <pt x="1042" y="178" on="0"/>
        <pt x="1032" y="117" on="0"/>
        <pt x="1011" y="64" on="0"/>
        <pt x="979" y="23" on="0"/>
        <pt x="957" y="11" on="1"/>
        <pt x="957" y="10" on="1"/>
        <pt x="1017" y="29" on="0"/>
        <pt x="1086" y="133" on="0"/>
      </contour>
      <contour>
        <pt x="607" y="19" on="1"/>
        <pt x="590" y="27" on="0"/>
        <pt x="570" y="47" on="0"/>
        <pt x="559" y="64" on="1"/>
        <pt x="380" y="336" on="1"/>
        <pt x="370" y="333" on="0"/>
        <pt x="339" y="330" on="0"/>
        <pt x="325" y="330" on="1"/>
        <pt x="316" y="330" on="1"/>
        <pt x="316" y="329" on="1"/>
        <pt x="339" y="324" on="0"/>
        <pt x="368" y="289" on="0"/>
        <pt x="388" y="256" on="1"/>
        <pt x="537" y="14" on="1"/>
      </contour>
      <contour>
        <pt x="536" y="510" on="1"/>
        <pt x="536" y="545" on="0"/>
        <pt x="518" y="603" on="0"/>
        <pt x="477" y="646" on="0"/>
        <pt x="413" y="670" on="0"/>
        <pt x="367" y="671" on="1"/>
        <pt x="367" y="670" on="1"/>
        <pt x="401" y="668" on="0"/>
        <pt x="448" y="641" on="0"/>
        <pt x="478" y="597" on="0"/>
        <pt x="491" y="541" on="0"/>
        <pt x="491" y="510" on="1"/>
        <pt x="491" y="447" on="0"/>
        <pt x="451" y="371" on="0"/>
        <pt x="416" y="354" on="1"/>
        <pt x="416" y="353" on="1"/>
        <pt x="468" y="377" on="0"/>
        <pt x="536" y="454" on="0"/>
      </contour>
    </TTGlyph>
    <TTGlyph name="Racute" xMin="29" yMin="-6" xMax="725" yMax="924">
      <component glyphName="R" x="0" y="0" flags="0x204"/>
      <component glyphName="acute" x="217" y="0" flags="0x4"/>
    </TTGlyph>
    <TTGlyph name="Rcaron" xMin="29" yMin="-6" xMax="725" yMax="918">
      <component glyphName="R" x="0" y="0" flags="0x204"/>
      <component glyphName="caron" x="145" y="0" flags="0x4"/>
    </TTGlyph>
    <TTGlyph name="Rcommaaccent" xMin="29" yMin="-285" xMax="725" yMax="690">
      <component glyphName="R" x="0" y="0" flags="0x204"/>
      <component glyphName="commaaccent" x="195" y="-5" flags="0x4"/>
    </TTGlyph>
</ttFont>
